<svg width="112" height="294" viewBox="0 0 112 294" fill="none" xmlns="http://www.w3.org/2000/svg">
<path d="M103.169 3.68262C105.072 2.15167 109.983 -0.424095 110.44 0.0595703C110.446 0.0653604 110.451 0.0725324 110.456 0.0791016C110.549 0.201255 110.299 0.637066 110.39 0.830078C110.483 1.02469 111.412 1.87928 111.099 2.53516C110.639 3.48878 109.011 5.17806 108.724 5.61133C108.54 5.9227 108.469 6.43956 108.271 6.85449C108.133 7.13652 108.005 7.38323 107.886 7.61035C107.88 7.62206 107.873 7.63388 107.867 7.64551L107.932 7.56445C107.536 8.42139 107.205 9.04269 107.303 10.3594C106.755 10.6192 106.178 10.8611 105.562 11.0879C105.44 11.8527 104.441 12.4586 104.267 12.8613C104.134 13.1928 104.388 13.6239 104.25 13.9697C104.095 14.3667 103.419 14.6668 103.135 15.3887C102.67 16.5671 103.655 17.5122 103.491 18.3115C103.328 19.1451 102.167 19.8076 102.134 21.0029C102.211 21.2107 102.292 21.419 102.371 21.6289C102.717 21.7643 103.061 21.8975 103.401 22.0293C103.336 22.598 102.607 22.3542 102.387 22.7627C102.121 23.2497 102.612 23.9374 102.438 24.2734C102.298 24.5435 101.599 24.5463 101.436 24.9111C101.196 25.441 101.991 25.8716 101.975 26.2451C101.985 26.3994 101.179 28.6485 101.091 28.7529C100.79 29.2212 100.316 29.1941 99.8584 29.1855C99.7668 29.1835 99.6756 29.1816 99.5869 29.1846C99.0309 29.9143 97.2219 31.3423 96.3828 31.7139C96.1456 31.5992 95.906 31.5273 95.6445 31.6006C93.4365 32.2246 91.721 34.0076 89.9746 35.0859C89.201 35.5652 88.2969 35.8206 87.4033 35.9287C87.5646 32.3682 83.8253 31.0102 86.6582 35.4531C85.4989 35.0964 85.3173 36.6369 84.3799 36.7246C83.7681 36.7814 83.1464 36.2468 82.3613 36.5469C80.9711 37.0837 80.1414 39.5311 78.5 36.2305C77.0944 37.4206 75.2352 36.6871 75.7764 39.9297C75.434 40.2649 73.7087 38.8534 73.1543 38.7822C72.6275 38.7097 68.9901 39.1791 68.4336 39.3574C67.8757 39.5269 66.9142 39.8602 66.5732 40.3076C66.1364 40.868 67.0644 44.1 64.5352 40.9326C63.5048 41.723 63.0601 41.7984 61.8125 41.8701C61.5878 41.8833 61.3222 41.3692 61.21 41.4189C60.9782 41.5265 60.767 42.0981 60.3848 42.3389C59.7596 42.7325 58.8365 41.8316 59.7363 43.4629C59.4412 43.9562 59.1573 44.4485 58.877 44.9434C58.5644 44.7003 58.2507 44.4582 57.9355 44.2178C57.8912 44.6826 57.8517 45.1465 57.8145 45.6104C56.7984 43.0956 55.9824 45.3532 57.2441 46.4229C56.1876 46.3704 55.1305 46.3389 54.0703 46.3379C52.5653 43.6644 52.184 47.121 53.293 48.3896C53.2091 48.4426 53.1258 48.4967 53.043 48.5498C52.1892 48.4127 51.8097 48.9175 51.2402 49.2646C51.1852 49.2983 51.1278 49.3302 51.0684 49.3604C50.8576 49.4779 50.6227 49.5784 50.3506 49.6455C48.9979 49.9699 48.9073 49.6603 47.7715 48.7539C47.5774 48.9929 47.3897 49.2259 47.1895 49.4658C48.1155 53.4885 44.5522 47.9183 44.0127 51.79C41.9732 50.2741 40.9547 52.4294 40.1748 53.7451C40.0853 53.8981 40.3285 54.2844 40.2266 54.5127C39.9664 55.0693 38.5407 55.2548 39.3604 56.4658C38.7475 56.3412 38.1387 56.2166 37.5312 56.0947C37.3659 56.5044 37.1923 56.9182 37.0283 57.3252C37.2733 57.7041 37.5187 58.084 37.7637 58.4629C36.3158 57.5396 35.6783 58.6269 35.0283 58.6074C34.8956 58.6033 34.532 58.1057 34.1572 58.1484C33.7197 58.1942 33.2217 58.7408 32.7354 58.8467C32.9834 59.4952 33.2449 60.1333 33.5078 60.7695C33.1171 61.4834 31.8338 60.2396 31.3975 60.4072C31.2937 60.4445 30.3628 61.4068 30.3662 61.4756C30.2254 62.0386 31.2488 63.0479 30.4893 63.5166C30.3685 63.5879 29.8682 63.4328 29.7959 63.5264C29.6794 63.6765 30.2764 64.1687 31.0938 64.2432C31.2591 64.3585 31.4333 64.4515 31.6104 64.5068C31.6534 64.5203 31.6969 64.5311 31.7402 64.54C30.342 65.03 30.7626 66.8612 30.3623 67.4043C30.2376 67.5632 29.3953 67.5664 29.1982 68.0859C29.037 68.5029 29.6814 69.6155 29.5635 70.1348C29.4338 70.7002 28.7324 70.9248 28.6816 71.1777C28.6348 71.4188 29.1992 71.6382 29.1963 71.9727C29.1776 73.0152 28.2857 73.9909 28.2871 74.8145C28.2886 76.0332 29.9821 77.0353 30.75 77.9893C30.6513 78.2418 30.3053 78.5037 30.3125 78.7676C30.3847 81.9912 30.3092 85.6776 30.2275 88.9609C30.1791 90.4817 28.3592 94.4762 31.9111 93.0908C32.5896 93.5462 31.5177 97.4984 31.5889 98.2295C31.6507 98.9549 32.365 99.4421 32.4434 100.007C32.6789 101.702 32.3744 102.979 33.2236 104.952C33.446 105.466 34.284 105.915 34.3213 106.228C34.3636 106.602 33.6981 107.132 33.7285 107.629C33.8024 108.805 34.4077 110.939 34.4863 112.051C34.4985 112.259 33.883 112.454 33.7412 112.783C33.1837 114.056 33.5194 115.316 35.4639 114.654C35.0509 115.447 35.1612 116.146 35.4131 116.746C35.414 116.748 35.4151 116.751 35.416 116.753C35.7012 117.463 36.1419 118.122 36.3301 118.855C37.0988 121.821 37.656 127.379 38.8936 129.83C39.6782 131.381 40.5301 131.183 40.168 133.759C40.0854 134.319 39.948 134.899 39.8535 135.594C39.6214 137.196 38.2764 138.86 40.3184 139.722C40.0745 141.499 40.5975 142.809 39.1865 144.31C39.586 144.399 39.9853 144.488 40.3838 144.579C40.4208 144.786 40.4582 144.994 40.4951 145.203C40.1432 145.323 39.7909 145.443 39.4395 145.562C39.5456 147.06 41.2562 148.738 41.3965 150.02C41.6405 152.141 41.6947 157.699 41.4365 159.76C41.3028 160.858 42.0464 160.824 40.5898 161.611C40.7211 161.838 40.8516 162.066 40.9824 162.294C41.3308 162.406 41.6797 162.52 42.0273 162.633C42.1779 163.99 41.8249 165.685 41.9551 166.984C42.1965 169.356 43.4222 172.869 43.0283 175.305C42.9972 175.498 42.9148 175.713 42.8184 175.933C42.7688 176.046 42.7151 176.161 42.6631 176.275C42.4955 176.646 42.3419 177.01 42.3711 177.309C42.4521 178.14 43.5936 178.259 43.707 179.321C43.8986 181.157 42.9085 184.672 43.1992 186.373C43.2832 186.875 43.7273 187.065 43.8115 187.401C44.1722 188.82 44.296 190.033 45.1504 191.091C44.3264 192.473 42.9544 192.619 41.7285 193.426C41.3001 193.746 40.4376 194.216 40.1543 195.233C40.1053 195.494 40.1304 195.822 40.3623 196.149C40.5083 196.368 40.7515 196.556 41.0107 196.696C40.9606 196.442 40.9104 196.188 40.8604 195.934C42.0841 196.957 43.5762 196.228 44.4111 196.396C44.5758 196.431 44.6912 196.91 45.1953 196.97C45.7833 197.041 46.8203 196.75 47.5225 196.817C47.7153 196.248 47.9134 195.679 48.1172 195.113C49.3362 194.688 49.9299 196.066 50.6621 196.115C50.7945 196.112 53.1922 195.869 53.3271 195.847C54.3892 195.59 54.0383 194.336 57.248 194.683C57.8189 194.753 58.262 195.187 58.7715 195.239C59.6619 195.306 62.5093 194.745 62.874 193.971C63.8569 195.172 66.8843 195.417 67.6729 195.982C67.9061 196.147 67.7878 196.8 68.5234 197.173C69.1121 197.466 70.8848 197.519 71.6348 197.918C72.4223 198.333 72.5035 198.974 72.8408 199.161C72.9846 199.241 73.1618 199.231 73.3555 199.215C73.5417 199.199 73.7442 199.178 73.9453 199.226C73.9978 199.237 74.0502 199.253 74.1016 199.277C75.3907 199.887 76.2827 201.08 77.3135 201.562C78.8047 202.261 80.6825 201.669 82.2012 201.731C82.4819 201.957 82.6692 202.355 83.002 202.515C87.0725 204.492 91.6891 207.01 95.5645 210.248C97.5494 211.577 100.15 217.612 101.453 214.567C102.202 214.813 104.152 219.044 103.832 222.22C103.829 222.29 103.825 222.361 103.821 222.43C103.739 223.122 103.674 223.701 103.678 223.972C103.691 224.981 104.231 225.796 104.246 226.602C104.283 229.046 103.892 230.745 104.22 233.725C104.304 234.497 104.871 235.34 104.835 235.802C104.791 236.351 104.162 236.905 104.071 237.614C103.871 239.293 103.743 242.462 103.421 244.074C103.363 244.368 102.844 244.413 102.63 244.813C101.796 246.375 101.543 248.199 103.184 248.127C101.922 250.1 102.341 252.186 101.898 254.18C101.072 258.388 97.9706 265.81 95.8574 269.631C94.5418 272.018 95.236 272.599 91.4648 275.088C90.8068 275.48 90.0917 275.835 89.2871 276.18C89.2167 276.206 89.1452 276.232 89.0732 276.259C88.9575 276.302 88.8391 276.347 88.7188 276.394C86.761 277.145 84.4925 277.067 83.8672 279.108C81.6723 279.925 80.1621 281.052 78.0576 280.775C78.019 281.131 77.9797 281.487 77.9395 281.842C77.6899 281.981 77.4405 282.119 77.1924 282.256C76.9828 282.048 76.7691 281.842 76.5586 281.635C74.7265 282.507 72.8825 284.675 71.2471 285.39C68.5912 286.673 61.0412 288.906 58.0029 288.979C56.433 289.081 56.4217 289.65 55.3633 288.601C55.0274 288.727 54.6977 288.849 54.3506 288.966C54.1564 289.245 53.9571 289.523 53.7529 289.799C51.6764 289.982 49.1668 289.511 47.1816 289.192C45.4685 288.937 43.3128 288.557 41.2275 287.803C41.202 287.794 41.176 287.784 41.1504 287.775C39.072 287.043 37.0479 286.134 35.6221 285.105C34.9346 284.611 34.2818 283.646 33.5771 283.25C32.5536 282.671 31.8557 283.285 30.5576 282.511C28.2978 281.183 24.9356 277.601 22.9902 276.136C22.4116 275.71 21.9305 275.742 21.5225 275.454C19.7753 274.209 18.4905 273.045 16.6152 271.853C15.5873 269.535 16.6055 268.947 17.0225 267.723C17.2853 266.769 18.2227 264.461 19.0664 264.453C19.563 264.33 20.1634 264.057 20.6943 263.875C20.7465 263.729 20.9661 264.031 21.1475 264.262C21.3293 264.506 21.4992 264.788 21.6572 265.1C21.9626 265.708 22.1906 266.418 22.5801 267.351C25.0818 269.726 27.9674 271.921 30.9336 273.929C31.0314 274.368 31.1286 274.804 31.2324 275.242L31.2305 275.244C32.1974 276.315 33.1298 275.966 33.8545 276.21C36.7005 277.161 40.2919 278.997 44.1494 280.659C44.1713 280.669 44.194 280.678 44.2158 280.688C49.0018 282.924 55.4201 282.551 59.7363 281.306C61.328 280.953 66.1968 278.526 67.4473 278.46C67.7791 278.455 68.0553 278.868 68.3555 278.751C70.8403 277.264 73.265 275.647 75.6436 273.962C78.7828 272.692 81.7258 270.91 84.6006 268.978C84.661 268.937 84.7218 268.895 84.7822 268.854C86.4266 267.715 87.7472 265.97 88.8721 264.028C94.9934 252.288 94.8616 236.803 94.3896 222.883C94.3886 222.864 94.388 222.845 94.3867 222.826C94.3369 222.156 94.1108 221.482 93.5732 220.656C92.5546 219.001 89.5127 217.232 87.2578 215.578C86.3169 214.88 86.3362 213.792 84.5879 213.66C84.6936 213.426 84.7989 213.191 84.9043 212.957C83.5089 212.571 82.4371 212.686 80.9697 212.041C79.7439 211.493 76.4297 210.016 75.3457 209.425C74.7864 209.119 75.2008 208.778 74.6582 208.537C73.753 208.138 71.5794 207.859 70.2637 207.304C70.2315 207.29 70.1998 207.276 70.1689 207.263C70.0728 207.22 69.9724 207.17 69.8691 207.115C68.8727 206.579 67.4877 205.598 66.7051 205.438C63.6083 204.762 60.2278 205.11 56.958 204.871C56.0551 204.796 54.8467 204.189 54.5469 204.222C53.9714 204.288 53.8265 204.937 53.4502 205.047C51.5493 205.589 48.3814 205.262 46.3672 205.593C42.8093 206.162 39.0697 207.063 35.2324 207.903C35.1385 207.924 35.044 207.947 34.9502 207.97C32.7847 208.497 30.6265 209.551 28.5547 210.896C25.4758 212.743 21.0897 217.602 18.5752 220.401C18.0202 220.995 17.5729 220.42 17.1797 220.985C16.7488 221.611 16.9142 222.215 16.7529 222.528C15.8528 224.244 14.2379 227.657 13.0332 229.97C12.9799 230.068 12.9277 230.164 12.876 230.259C12.6607 230.652 12.461 231.003 12.2676 231.289C12.0527 231.604 11.4583 231.697 11.3867 231.924C11.3496 232.04 11.6185 232.396 11.5547 232.76C11.03 235.992 10.6468 238.507 10.5713 242.066C10.4804 248.941 12.7876 257.06 14.2676 264.547C14.5897 266.178 13.8837 267.557 13.9521 267.78C14.1023 268.273 14.8596 268.428 15.291 269.386C15.8953 270.742 16.3347 272.335 16.749 273.985C17.6647 275.557 18.5699 277.092 19.5205 278.199C20.5209 279.364 22.302 280.494 23.2764 281.482C24.0296 282.307 25.6673 284.434 26.2021 284.501C26.5139 284.561 26.8959 284.201 27.1777 284.379C27.4302 284.543 27.6105 285.104 27.8945 285.347C28.7428 286.076 29.2214 286.501 29.873 286.966L29.5635 286.873C29.5834 286.884 29.6038 286.896 29.624 286.907C29.8947 287.058 30.1871 287.212 30.5439 287.374C32.2979 288.389 39.9769 289.439 40.0352 290.075V290.099C40.0149 290.248 39.3848 290.422 39.2969 290.618C39.212 290.816 39.366 292.013 38.4453 292.279C37.1195 292.688 33.8144 292.712 33.0498 292.705C32.5375 292.748 31.8782 292.972 31.1875 293.003C29.9688 293.054 29.0466 292.931 28.1436 292.854C28.1136 292.851 28.0827 292.848 28.0527 292.846C28.0121 292.829 27.8837 292.803 27.8447 292.783C27.1247 292.657 26.3846 292.562 25.4023 292.529C24.768 291.915 24.194 291.254 23.6865 290.554C22.6474 290.25 21.6192 288.977 21.1064 288.645C20.6752 288.379 20.2118 288.478 19.7646 288.173C19.2648 287.836 18.8034 286.981 17.96 286.318C16.5843 285.218 15.6112 285.689 14.7314 285.024C13.8188 284.332 13.1207 282.686 11.9365 281.839C11.7272 281.778 11.5168 281.714 11.3057 281.648C11.1572 281.914 11.0105 282.179 10.8662 282.444C10.3002 281.963 10.585 281.388 10.1982 280.857C9.75436 280.243 9.0648 280.23 8.77148 279.806C8.58384 279.531 8.5799 279.047 8.44141 278.632C8.4145 278.551 8.38242 278.472 8.34277 278.399C8.18041 278.14 7.82314 277.355 7.74121 277.061C7.73294 277.021 7.72233 276.981 7.70898 276.943C7.46215 276.232 6.8846 276.566 6.65527 276.212C6.56385 276.075 5.40243 273.299 5.35449 273.136C4.98369 271.897 5.82125 271.574 5.62695 270.557C5.09504 267.765 3.67628 265.107 2.80859 262.57C2.42171 261.442 2.20342 260.214 2.09961 259.012C4.73247 260.366 5.66209 255.991 2.43652 258.208C2.67515 256.804 1.54122 256.059 1.48145 254.782C1.44344 253.942 1.84464 253.318 1.65039 252.148C1.3034 250.107 -0.376301 247.925 2.13965 247.066C1.43997 244.642 2.31026 242.457 0.0126953 241.561C-0.144464 240.88 1.23802 239.184 1.46484 238.451C1.57996 237.752 2.85856 232.376 3.22266 231.509C3.45639 230.628 3.96011 229.088 4.05273 228.277C4.11885 227.651 3.41336 226.812 3.6582 226.09C3.71268 225.93 3.81508 225.779 3.98242 225.645C4.25985 225.451 4.74388 225.309 5.54102 225.258C6.15711 223.502 6.54156 222.947 7.65527 221.61C7.85996 221.366 8.23893 221.547 8.32812 221.392C8.50975 221.072 8.5591 220.364 8.86719 219.773C9.37679 218.798 10.4629 218.748 9.25293 218.123C9.44385 217.387 9.65101 216.644 9.86914 215.902C10.2302 215.834 10.5902 215.77 10.9502 215.709C10.9336 215.224 10.9257 214.732 10.9189 214.242C12.251 215.769 12.9228 212.862 11.4883 212.894C12.6748 211.974 13.8917 211.1 15.1396 210.281C16.7059 211.92 17.4198 208.14 16.375 207.455C16.4931 207.334 16.6125 207.213 16.7324 207.093C18.1975 206.47 18.8482 205.157 20.5322 204.294C22.2186 203.461 22.2353 203.771 23.2979 204.308C23.6011 204.012 23.9077 203.723 24.2266 203.436C24.6201 199.73 26.7129 204.223 29.2031 200.633C30.4076 201.429 31.7759 200.944 33.2129 200.325C33.3532 200.264 33.4942 200.202 33.6348 200.139C34.2066 199.864 34.7465 199.55 35.2275 199.284C35.4188 199.178 35.3498 198.824 35.5996 198.66C35.8635 198.488 36.3481 198.407 36.792 198.284C36.7192 198.208 36.6515 198.138 36.5908 198.073C35.8172 197.161 35.6358 196.669 35.4482 196.271C35.118 195.485 35.0555 194.989 35.0459 194.542C35.0371 193.637 35.3224 192.907 35.6836 191.999C35.1678 189.008 34.8696 186.224 34.5576 183.406C34.9251 183.121 35.2929 182.832 35.6602 182.539L35.6631 182.538C36.0158 181.426 34.9684 181.045 34.6895 180.499C34.1969 179.495 33.8271 178.354 33.5439 177.032C33.5211 176.927 33.4993 176.821 33.4775 176.715C32.3301 171.033 32.5554 163.074 32.0957 158.249C31.9821 156.949 30.8207 152.829 31.3428 151.864C31.481 151.615 32.1012 151.461 32.0918 151.211C31.3887 149.089 30.6578 146.96 29.9062 144.863C30.1502 140.253 28.4691 135.777 27.3906 131.37C26.4078 127.33 25.357 123.312 24.2422 119.407C24.2414 119.404 24.2401 119.401 24.2393 119.398C21.9388 111.153 20.5212 102.952 19.6846 94.7344C19.4458 92.3358 18.5912 89.3329 18.7441 86.9463C18.8061 85.9414 19.9588 85.4632 18.9746 84.2236C19.2936 84.1883 19.6136 84.1534 19.9326 84.1182C19.4636 83.0279 18.6803 82.3396 18.5234 81.0791C18.3887 80.0135 18.1874 77.1726 18.2754 76.2207C18.3171 75.7319 18.93 75.888 18.9092 75.4277C18.8686 74.6429 17.9739 72.988 17.9541 71.8682C17.9323 70.8889 18.6306 69.1743 18.5391 68.4062C18.3499 66.8024 17.9613 65.0987 17.833 63.208C17.8258 63.1032 17.8201 62.9983 17.8145 62.8945C17.8147 60.6968 18.5695 58.3781 19.7051 56.7676C20.4992 55.5969 22.1165 54.9741 22.3135 54.7256C22.7339 54.1876 22.3025 53.4965 22.5527 53.0967C23.8447 51.0425 26.8165 49.998 28.21 49.0596C32.858 45.9431 37.0159 42.8336 40.9854 40.0537C41.5634 39.6536 42.2145 39.1775 42.9092 38.6562C42.9806 38.6025 43.0525 38.548 43.125 38.4941C45.9869 36.3473 49.4992 34.3477 51.8955 33.6367C52.5815 33.433 52.8568 34.3633 53.374 34.0947C53.9498 33.7973 53.9693 33.0693 54.2178 32.8867C55.9188 31.6034 59.8435 29.134 61.877 29.0205C62.2645 28.9966 62.7945 29.5872 62.9951 29.502C63.097 29.4587 63.1359 28.8926 63.4375 28.7139C66.1064 27.1369 68.2906 26.6287 71.1133 25.7725C76.5146 24.127 82.2982 21.155 87.627 19.5732C87.9991 19.4626 88.3893 19.4977 88.752 19.5918C89.9047 17.3616 92.7285 15.5851 94.0332 13.7168C94.7239 12.7162 95.1725 10.9872 95.9844 10.0703C96.6241 9.34242 98.7209 7.96862 98.793 7.48145C98.8404 7.18813 98.4208 6.75315 98.6299 6.50195C98.8238 6.27669 99.4695 6.21031 99.7705 5.98926C101.046 5.07223 101.669 4.82753 102.837 3.97754C102.899 3.93207 102.965 3.88242 103.034 3.83008C103.046 3.80145 103.118 3.73703 103.131 3.70898C103.143 3.70022 103.156 3.69157 103.169 3.68262ZM2.04785 250.826C3.27755 250.902 1.94898 248.501 1.42383 249.534C1.30493 249.776 1.7253 250.805 2.04785 250.826ZM87.0859 206.874C87.2369 206.946 87.3883 207.019 87.5381 207.091C87.6764 206.779 87.8143 206.466 87.9521 206.153C87.593 206.124 87.2328 206.097 86.8721 206.071C86.9452 206.339 87.0162 206.607 87.0859 206.874ZM27.873 82.9092C27.8876 83.0279 27.9022 83.1474 27.917 83.2666C28.341 83.2218 28.7653 83.1765 29.1895 83.1318C28.9986 82.9085 28.808 82.6896 28.6172 82.4629C28.3692 82.6139 28.1207 82.7601 27.873 82.9092ZM81.2402 36.0635C80.8226 34.3805 79.5857 36.3457 80.5439 36.9863C80.7603 37.1293 81.3489 36.4997 81.2402 36.0635ZM89.4668 19.8535C89.8852 20.0431 90.1909 20.2305 90.2627 20.1934C90.5229 20.0557 90.4703 19.4028 90.7012 18.8799L89.4668 19.8535Z" fill="black"/>
</svg>
