<svg width="94" height="94" viewBox="0 0 94 94" fill="none" xmlns="http://www.w3.org/2000/svg">
<path d="M54.374 35.4482C54.6072 35.3778 55.0282 35.4281 55.2607 35.5889C55.3371 35.6361 55.395 35.6822 55.4482 35.7314C55.9014 36.2132 55.961 36.5266 56.1035 36.8721C56.2713 37.2725 56.3938 37.6482 56.5078 38.0254C56.6517 38.4947 56.7707 39.002 56.8623 39.4785C56.9203 39.6537 56.9804 39.805 57.0439 39.9209C57.0896 40.0038 57.1401 40.0751 57.1904 40.1455C57.2596 40.2456 57.3291 40.344 57.3936 40.4893C57.4436 40.6003 57.4754 40.7371 57.4727 40.8311C57.4714 40.8749 57.463 40.9128 57.4551 40.9424C57.4462 40.9773 57.4386 41.0089 57.4434 41.0459C57.4469 41.0727 57.4592 41.1001 57.4746 41.1338C57.4994 41.1898 57.5304 41.2529 57.5439 41.3633C57.5935 41.7673 57.6344 42.2263 57.6699 42.6729C57.7097 43.171 57.7432 43.6531 57.7822 44.0361C57.8119 44.3282 57.8279 44.6914 57.8389 45.0957C57.8436 45.2869 57.8484 45.4993 57.8516 45.6982C57.8592 46.1302 57.8655 46.558 57.8809 46.9248C57.8961 47.2855 57.94 47.6576 57.9824 48.0186C58.0334 48.4516 58.082 48.8671 58.0742 49.2256C58.0727 49.2988 58.0399 49.3891 58 49.5039C57.9718 49.5851 57.9396 49.6788 57.9111 49.7852C57.9391 50.2361 57.965 50.6884 57.9893 51.1406C57.9953 51.1562 58.0015 51.1724 58.0078 51.1885L58.0088 51.1895C58.1501 51.553 58.343 52.0515 58.2871 52.7695C58.2729 52.9523 58.2335 53.0696 58.1982 53.1748C58.1637 53.278 58.1329 53.3704 58.1328 53.5029C58.1328 53.6535 58.1673 53.8294 58.2051 54.0205C58.2582 54.2901 58.3173 54.5888 58.2949 54.8955C58.2934 54.9164 58.2917 54.9395 58.29 54.9629C58.2742 55.1835 58.2511 55.5134 58.1855 55.8408C58.2161 56.8059 58.2413 57.7675 58.2637 58.7324C58.2916 59.9418 58.3158 61.1614 58.3369 62.3691C58.344 62.7661 58.3507 63.1587 58.3574 63.5518C58.3705 64.3328 58.2945 65.0861 58.1396 65.6455C58.0624 65.93 57.9682 66.1454 57.8633 66.2998C57.8108 66.3757 57.7548 66.4346 57.6973 66.4756C57.6685 66.4939 57.6393 66.5127 57.6094 66.5215C57.5994 66.5282 57.4795 66.5481 57.5986 66.4482C57.5974 66.4448 57.6026 66.4396 57.582 66.4395C57.5553 66.4392 57.518 66.4672 57.5088 66.4805C57.4827 66.5203 57.4838 66.5099 57.4736 66.5186C57.458 66.524 57.4427 66.5229 57.4277 66.5205C57.3979 66.516 57.3677 66.5023 57.3379 66.4873C57.278 66.4534 57.2181 66.4008 57.1592 66.3311C57.0412 66.189 56.9279 65.9848 56.8232 65.71C56.6146 65.1703 56.4627 64.4301 56.3965 63.6523C56.3633 63.2607 56.3303 62.8692 56.2969 62.4736C56.2228 61.6018 56.1485 60.7222 56.0752 59.8438C56.0666 59.7756 56.0578 59.7107 56.0498 59.6445C55.9898 59.1475 55.8985 58.6974 55.8057 58.2383C55.7844 58.1333 55.7631 58.0294 55.7422 57.9238C55.5833 57.122 55.5455 55.565 55.5234 54.708C55.523 54.6925 55.5229 54.6767 55.5225 54.6611C55.5173 54.4584 55.508 54.2655 55.4971 54.041C55.4707 53.5044 55.4353 52.7792 55.4189 51.2637C55.3898 50.8236 55.3622 50.3839 55.335 49.9453C55.2387 48.3981 55.1472 46.845 55.0479 45.3096C54.8816 43.0588 54.7885 40.7085 54.3262 38.7148C53.9844 39.0473 53.6884 39.2458 53.4346 39.4834C53.0567 39.8107 52.7599 40.1163 52.5322 40.375C52.4702 40.4451 52.4124 40.5147 52.3564 40.584C51.9405 41.1078 51.6833 41.8215 51.4883 42.3291C51.0918 43.576 50.7887 44.9213 50.4766 46.2617C50.1092 47.8713 49.8512 49.5034 49.8564 51.1289C49.8557 51.1629 49.8588 51.2011 49.8408 51.2998C49.8358 51.3252 49.8286 51.3553 49.8164 51.3936C49.8072 51.3803 49.7869 51.6849 49.3662 51.8936C49.1556 51.9921 48.8925 51.9714 48.749 51.9121C48.6112 51.8632 48.5008 51.7647 48.501 51.7646C48.4594 51.7287 48.4316 51.6989 48.4102 51.6738C48.2656 51.4823 48.3012 51.4981 48.2803 51.4658C48.258 51.4149 48.2556 51.4062 48.2471 51.3838C48.2348 51.3499 48.2262 51.3225 48.2188 51.2998C48.2022 51.2494 48.1886 51.2071 48.1748 51.1631C48.1479 51.077 48.1223 50.9939 48.0957 50.9092C48.0441 50.7441 47.9914 50.5786 47.9375 50.4141C47.8296 50.0843 47.7175 49.7578 47.5996 49.4297C47.3791 48.816 47.1398 48.2016 46.8877 47.5967C46.7017 47.1508 46.4794 46.7023 46.2422 46.2588C45.7413 45.3252 45.1742 44.4077 44.5879 43.4971C44.4066 43.2355 44.2254 42.9802 44.0498 42.7344C43.8765 42.4916 43.7125 42.2693 43.5479 42.0508C43.0858 41.4381 42.6576 40.9181 42.3057 40.5205C42.0781 40.2632 41.8386 40.0103 41.6104 39.8193C41.5039 39.7302 41.402 39.6592 41.3125 39.6084C41.3133 39.6493 41.3145 39.69 41.3154 39.7305C41.32 39.9177 41.3252 40.0987 41.3311 40.2627C41.405 41.1868 41.4909 42.1133 41.5771 43.0459C41.572 43.1071 41.5661 43.1698 41.5605 43.2344C41.5071 43.8551 41.5403 44.5771 41.6143 45.5879C41.6351 45.8735 41.6614 46.2094 41.6885 46.5518C41.7414 47.2215 41.8031 48.0038 41.8652 48.9141C41.9052 49.4999 41.879 49.8165 41.8564 50.0605C41.8499 50.1333 41.8446 50.202 41.8408 50.2715C41.8279 50.5103 41.8819 50.7615 41.9453 51.0488C42.0282 51.4297 42.127 51.8765 42.1191 52.4932C42.0918 54.4306 42.2843 55.2814 42.4287 55.9121C42.4712 56.099 42.5095 56.2712 42.5371 56.4424C42.6273 57.0052 42.6499 57.8171 42.6396 58.4355C42.6312 58.9214 42.7571 59.8885 42.8779 60.6201C42.9233 60.8937 42.9553 61.274 42.9922 61.7148C43.0303 62.1706 43.075 62.7055 43.1475 63.2686C43.331 64.6971 43.4264 65.4541 43.5029 66.0674C43.5246 66.2405 43.5441 66.4027 43.5645 66.5645C43.6291 67.0778 43.7 67.71 43.7725 68.3564C43.8586 69.1237 43.9468 69.9065 44.0264 70.5C44.127 72.0473 44.2217 73.5958 44.3174 75.1436C44.3664 75.9394 44.3225 76.7095 44.1895 77.2861C44.0562 77.8626 43.8457 78.1992 43.5996 78.2207C43.3536 78.242 43.0883 77.9471 42.8574 77.4023C42.6266 76.8572 42.4506 76.1055 42.3623 75.3125C42.1851 73.7167 42.0087 72.1203 41.8418 70.5234C41.6384 68.577 41.4486 66.6344 41.2861 64.6826C41.1727 63.3196 41.0662 61.9566 40.9648 60.5928C40.9544 60.4518 40.9439 60.3104 40.9336 60.1699C40.7792 59.0319 40.6309 57.8904 40.5459 57.0869C40.4759 56.4258 40.4684 55.9323 40.4629 55.5195C40.459 55.2331 40.4547 54.9741 40.4316 54.7207C40.4192 54.5845 40.4008 54.3984 40.3779 54.1699C40.2856 53.2505 40.1289 51.6773 40.0752 50.2432C40.0511 49.6043 40.0448 48.8633 40.0391 48.1533C40.031 47.1405 40.0239 46.1918 39.9678 45.7256C39.9674 45.7221 39.9672 45.7184 39.9668 45.7148C39.8681 44.8861 39.8242 43.9246 39.7891 43.0889C39.7541 42.2728 39.7269 41.5745 39.6582 41.1709C39.5768 40.691 39.5682 40.2896 39.5664 39.6592C39.5664 39.5442 39.5669 39.4269 39.5693 39.2891C39.5707 39.2155 39.5725 39.1503 39.5771 39.0586C39.592 38.9708 39.5535 38.863 39.6914 38.5361C39.7843 38.3285 40.0442 37.9832 40.415 37.8535C40.6781 37.7652 40.9263 37.6946 41.3467 37.7793C41.3689 37.7846 41.3913 37.7911 41.4141 37.7979C42.3945 38.0576 42.9061 38.6982 43.2295 39.0635C43.7059 39.6405 43.9991 40.0839 44.5059 40.6953C44.8204 41.079 45.122 41.4794 45.3906 41.8691C45.5978 42.1692 45.789 42.4622 45.9492 42.7314C46.1148 43.0096 46.3142 43.3231 46.5186 43.6523C46.7892 44.0882 47.0688 44.5532 47.293 44.998C47.4779 45.3648 47.5963 45.6882 47.6963 45.9766C47.7273 46.0662 47.7564 46.1532 47.7852 46.2363C47.9181 46.504 48.0466 46.7777 48.166 47.0576C48.1778 47.0853 48.1895 47.1132 48.2012 47.1406C48.2286 47.1861 48.2582 47.2333 48.2881 47.2822C48.3532 47.3895 48.4234 47.5081 48.498 47.6396C48.5206 47.4787 48.5445 47.3302 48.5713 47.1992C48.607 47.0239 48.6633 46.8803 48.7197 46.7363L48.7207 46.7344C48.7245 46.7248 48.7276 46.7147 48.7314 46.7051C48.7738 46.4434 48.8184 46.1877 48.8672 45.9268C49.0269 45.0717 49.1851 44.2143 49.3662 43.3496C49.3813 43.2515 49.397 43.1513 49.4131 43.0527C49.4913 42.571 49.5813 42.0988 49.623 41.7793C49.6788 41.4312 49.8477 40.5964 50.3574 39.6328C50.4184 39.5221 50.4865 39.4075 50.5625 39.2949C50.8641 38.8412 51.2165 38.4246 51.5215 38.0977C51.7378 37.8646 51.9808 37.6947 52.2188 37.5361C52.4395 37.3888 52.6624 37.2478 52.8262 37.0859C52.9068 37.0062 52.974 36.9186 53.0059 36.8545C53.0107 36.8449 53.0144 36.8352 53.0176 36.8271C53.0682 36.7383 53.1229 36.6385 53.1875 36.5273C53.2245 36.4644 53.2879 36.3687 53.3955 36.2197C53.452 36.1431 53.5133 36.0571 53.6289 35.9258C53.6918 35.8583 53.7545 35.7808 53.9248 35.6553C54.0133 35.5954 54.1311 35.5101 54.374 35.4482ZM82.7158 38.0176C83.5486 37.8374 84.2906 38.0266 84.8135 38.166C84.8988 38.1898 84.9787 38.2132 85.0518 38.2354C85.4689 38.3203 85.8731 38.4266 86.2686 38.5439C86.2918 38.5621 86.315 38.5807 86.3379 38.5996C86.4427 38.6855 86.5606 38.7588 86.6982 38.8301C87.059 38.9951 87.4784 39.2812 87.8066 39.7129C88.0328 40.0051 88.2219 40.3514 88.3809 40.7461C88.4823 41.0008 88.4793 41.1453 88.4785 41.2627C88.4781 41.2972 88.477 41.3295 88.4785 41.3613C88.4838 41.4698 88.5521 41.5605 88.6309 41.6689C88.6941 41.7562 88.7637 41.8539 88.8135 41.9785C88.8483 42.0682 88.8736 42.1706 88.8799 42.2861C88.9079 43.2381 88.9821 43.5946 89.083 43.9014C89.1089 43.9892 89.1315 44.0697 89.1416 44.1514C89.1753 44.4172 89.0961 44.7857 88.998 45.0488C88.9226 45.2587 88.8977 45.691 88.8877 46.0215C88.8843 46.1473 88.8481 46.3089 88.8027 46.498C88.7558 46.6941 88.6986 46.9184 88.6582 47.1621C88.628 47.3445 88.6004 47.5 88.5771 47.6328C88.4554 48.1464 88.2799 48.4052 88.1475 48.6172C88.0918 48.7017 88.0373 48.7774 87.9824 48.8496C87.8091 49.0788 87.5758 49.3182 87.3369 49.5303C87.0502 49.7858 86.756 50.0067 86.5391 50.1777C86.2005 50.3709 85.8618 50.5396 85.5303 50.6982C85.6631 50.7883 85.8044 50.8608 85.9453 50.9375C85.9811 50.957 86.0174 50.9766 86.0527 50.9971C86.3268 51.1525 86.5924 51.6408 86.709 51.9053C86.7112 51.91 86.7136 51.9152 86.7158 51.9199C86.7446 51.9829 86.7751 52.0411 86.8096 52.1084C86.8901 52.2683 87.0038 52.4884 87.1318 52.9619C87.1908 53.0898 87.2454 53.2185 87.2969 53.3467C87.5443 53.9622 87.7226 54.5773 87.877 55.1543C88.1041 55.9857 88.205 56.7883 88.2686 57.5801C88.2719 57.5974 88.2758 57.6149 88.2793 57.6328C88.3476 57.9841 88.4199 58.4177 88.4102 58.6943C88.3982 59.0462 88.3732 59.2849 88.3496 59.4814C88.3553 59.8607 88.3562 60.2394 88.3564 60.6172C88.3569 61.3412 88.3486 62.0596 88.3506 62.7754C88.3515 63.1171 88.3547 63.4588 88.3613 63.7998C88.3674 64.1136 88.3756 64.4267 88.3848 64.7402C88.4114 64.9228 88.4418 65.0966 88.4697 65.2578C88.509 65.4843 88.5434 65.6867 88.5537 65.8535C88.5786 66.2555 88.5285 66.7113 88.4893 67.0488C88.4829 67.1039 88.4771 67.1561 88.4717 67.2041C88.4814 67.4732 88.4906 67.7421 88.499 68.0117C88.4889 68.0291 88.4786 68.0467 88.4678 68.0645C88.3312 68.2897 88.3229 68.571 88.3047 69.0146C88.2985 69.1631 88.2914 69.3306 88.2773 69.5186C88.2731 69.5754 88.2673 69.6339 88.2617 69.6943C88.2461 69.8628 88.1904 69.9487 88.1445 70.0166C88.131 70.0367 88.1179 70.0557 88.1074 70.0752C88.0718 70.1414 88.1011 70.215 88.1357 70.3018C88.1808 70.4157 88.2346 70.5513 88.165 70.7227C87.9433 71.2632 88.0433 71.5166 88.1201 71.71C88.1426 71.7668 88.1627 71.8188 88.1719 71.8701C88.2013 72.0384 88.1362 72.2667 88.0586 72.4365C87.9975 72.5705 88.0155 72.8546 88.0527 73.0713C88.0666 73.1547 88.0559 73.2605 88.042 73.3887C88.0278 73.5195 88.0106 73.6721 88.0166 73.8389C88.0319 74.2572 88.0351 74.4804 88.0371 74.6602C88.0378 74.7101 88.0375 74.7585 88.0381 74.8057C88.04 74.955 88.0326 75.1417 88.0244 75.3291C88.0147 75.5535 88.0034 75.7812 88.0068 75.9561C87.9832 76.0638 87.9583 76.1754 87.9336 76.2822C87.8578 76.6106 87.7804 76.9363 87.6885 77.2832C87.6256 77.5177 87.4598 77.7651 87.2119 77.9219C86.9636 78.0742 86.7073 78.0425 86.4824 77.9443C86.2558 77.8447 86.0849 77.6515 85.9482 77.4873C85.8112 77.3268 85.7387 77.1422 85.7578 76.9287C85.785 76.6206 85.8059 76.2912 85.8301 75.9639C85.839 75.841 85.8489 75.7152 85.8584 75.5918C85.9007 75.0437 85.9491 74.4972 86.0166 73.9541C86.0639 73.5734 86.1137 73.1949 86.165 72.8154C86.1703 72.7767 86.1753 72.7374 86.1807 72.6982C86.154 72.3719 86.1298 72.0477 86.1309 71.8213C86.1318 71.6335 86.1763 71.5008 86.2139 71.3877C86.2396 71.3102 86.2625 71.2396 86.2656 71.1689C86.2673 71.1306 86.268 71.0776 86.2686 71.0137C86.271 70.7542 86.2725 70.3131 86.3564 69.917C86.3888 69.765 86.4408 69.5918 86.4932 69.4209C86.5012 69.3948 86.5096 69.3687 86.5176 69.3428C86.6034 69.0636 86.6805 68.8026 86.666 68.668C86.6405 68.4322 86.6814 68.1637 86.7158 67.9268C86.7487 67.7006 86.7755 67.5025 86.7373 67.3887C86.6917 67.2526 86.7149 67.1382 86.748 66.9678C86.771 66.8494 86.7985 66.7039 86.8115 66.5059C86.8265 66.2772 86.8631 66.1151 86.8936 65.9775C86.9362 65.7843 86.9678 65.6382 86.9111 65.4209C86.8481 65.1793 86.8067 64.9274 86.8252 64.7285C86.8336 64.6384 86.8307 64.534 86.8271 64.4268C86.8224 64.2846 86.8166 64.1353 86.8369 63.998C86.8537 63.8848 86.8998 63.7909 86.9404 63.707C86.9531 63.681 86.965 63.656 86.9756 63.6318C86.973 63.5423 86.9705 63.452 86.9668 63.3623C86.9587 63.348 86.9496 63.333 86.9404 63.3174C86.8941 63.2392 86.8365 63.1406 86.8057 63.0205C86.7569 62.8291 86.7784 62.659 86.7998 62.4805C86.8164 62.3406 86.8335 62.1962 86.8174 62.0312C86.8064 61.92 86.7802 61.7911 86.7539 61.666C86.7149 61.4787 86.675 61.295 86.6846 61.165C86.6883 61.1162 86.7161 61.0721 86.7432 61.0293C86.745 61.0264 86.7472 61.0234 86.749 61.0205C86.7358 60.9279 86.7212 60.8329 86.707 60.7412C86.6734 60.5211 86.6377 60.303 86.5996 60.0859C86.5895 60.0594 86.5793 60.0323 86.5693 60.0059C86.5208 59.8774 86.4727 59.7512 86.4141 59.6738C86.3503 59.5873 86.2954 59.3653 86.2344 59.1309C86.1945 58.9772 86.1526 58.8208 86.1055 58.6943C86.078 58.6206 86.0987 58.5443 86.1201 58.4658C86.1403 58.3938 86.1603 58.3164 86.1416 58.2412C86.1321 58.2029 86.1131 58.1622 86.0928 58.1201C86.075 58.0834 86.0565 58.0428 86.042 58.001C86.0286 57.9622 86.0302 57.8696 86.0322 57.7529C86.0333 57.6796 86.0343 57.5977 86.0312 57.5117C85.9722 57.2947 85.9106 57.0787 85.8457 56.8682C85.8093 56.8301 85.765 56.798 85.7139 56.7783C85.6772 56.7641 85.6349 56.7551 85.5918 56.7451C85.5332 56.7319 85.4727 56.719 85.4209 56.6943C85.3802 56.6746 85.3587 56.6444 85.3672 56.6191C85.3713 56.6075 85.3814 56.5967 85.3906 56.5869C85.4012 56.5758 85.4105 56.5654 85.4082 56.5566C85.4063 56.5502 85.3949 56.5454 85.3818 56.54C85.3612 56.5316 85.3348 56.5207 85.3271 56.4961C85.2988 56.4014 85.2758 56.2927 85.252 56.1885C85.2387 56.1306 85.2245 56.0732 85.21 56.0215C85.1918 55.9587 85.1734 55.8991 85.1533 55.8486C85.1087 55.7366 85.0882 55.564 85.0684 55.3955C85.0545 55.2778 85.0405 55.1603 85.0176 55.0645C84.9951 54.9707 84.9435 54.8831 84.8936 54.8008C84.8334 54.7011 84.7753 54.6084 84.7705 54.5127C84.7696 54.4933 84.7961 54.4582 84.8291 54.4141C84.8525 54.3828 84.8788 54.3465 84.9014 54.3086C84.8579 54.2004 84.8149 54.0932 84.7715 53.9873C84.7652 53.9857 84.7585 53.9831 84.752 53.9814L84.6357 53.9492C84.5182 53.9114 84.4082 53.8502 84.417 53.7031C84.4199 53.6532 84.4484 53.6082 84.4736 53.5674C84.4984 53.5274 84.5206 53.491 84.5127 53.459C84.5033 53.4225 84.4609 53.3958 84.415 53.3682C84.3505 53.3291 84.2787 53.2881 84.2764 53.207V53.0811C84.2787 53.0384 84.2845 52.9893 84.2988 52.9346C84.1944 52.7309 84.0831 52.5351 83.9619 52.3506C83.7601 52.0432 83.5295 51.765 83.2549 51.5293C83.1988 51.4811 83.1507 51.4236 83.1084 51.3555C83.0633 51.2971 83.027 51.2338 82.998 51.167C82.9867 51.3178 82.969 51.4127 82.9453 51.4375C82.9023 51.4821 82.859 51.5266 82.8154 51.5674C82.8132 51.5725 82.8108 51.5774 82.8086 51.582C82.7921 51.6165 82.7775 51.6853 82.7627 51.7539C82.7593 51.7696 82.7554 51.7855 82.752 51.8008C82.7255 51.917 82.6689 51.8704 82.6387 51.8447L82.6377 51.8438C82.6305 51.8377 82.6231 51.8357 82.6152 51.834C82.5965 51.83 82.5709 51.8243 82.5186 51.751C82.5033 51.7538 82.4878 51.7558 82.4727 51.7559C82.3088 51.756 82.1495 51.6571 81.9961 51.5381C81.9942 51.5386 81.9922 51.5385 81.9902 51.5391C81.9597 51.5477 81.9238 51.5578 81.8955 51.542C81.8812 51.5372 81.8678 51.5304 81.8564 51.5205C81.7916 51.4639 81.7486 51.4093 81.7139 51.3623C81.6071 51.3037 81.494 51.2418 81.3555 51.1553C81.286 51.111 81.2073 51.0606 81.1123 50.9824C81.0194 50.8972 80.8875 50.8091 80.7686 50.5195C80.6894 50.3384 80.6813 49.9683 80.8662 49.7246C80.8962 49.6858 80.9267 49.649 80.9609 49.6104C81.0255 49.5374 81.1016 49.466 81.1836 49.4033C81.2195 49.3491 81.2558 49.2937 81.293 49.2451C81.3456 49.1766 81.3991 49.12 81.4492 49.0928C81.5709 49.0265 81.7141 49.051 81.8008 49.0781C81.8151 49.0825 81.8287 49.087 81.8408 49.0908C81.9069 49.0725 81.9703 49.0571 82.0303 49.0439C82.0335 49.0538 82.0369 49.0646 82.04 49.0752C82.0736 49.1889 82.1161 49.2058 82.1777 49.2158C82.1789 49.2057 82.1815 49.195 82.1826 49.1836C82.1857 49.1511 82.1886 49.1119 82.1914 49.0723C82.1953 49.0184 82.1992 48.9623 82.2041 48.918C82.208 48.8835 82.2124 48.8703 82.2148 48.8848C82.2159 48.8916 82.2171 48.9039 82.2178 48.915C82.2185 48.9267 82.2188 48.9374 82.2197 48.9395C82.2205 48.938 82.2216 48.9293 82.2227 48.9189C82.2245 48.901 82.2274 48.8777 82.2305 48.877C82.242 48.8743 82.255 48.8822 82.2676 48.8896C82.2816 48.8979 82.2956 48.9052 82.3066 48.8984C82.3191 48.8913 82.3362 48.9265 82.3535 48.9609C82.3656 48.985 82.3782 49.0087 82.3887 49.0186C82.399 49.0281 82.4095 49.0089 82.4199 48.9902C82.4324 48.9679 82.445 48.9465 82.4551 48.9766C82.4571 48.9827 82.4597 49.0205 82.4629 49.0674C82.4652 49.1006 82.4677 49.1388 82.4707 49.1738C82.4837 49.1738 82.4969 49.175 82.5098 49.1777C82.5102 49.1728 82.5103 49.1672 82.5107 49.1621C82.521 49.0427 82.534 48.8797 82.5547 48.9766C82.56 49.0012 82.5641 49.0468 82.5674 49.0879C82.5706 49.1283 82.5733 49.1653 82.5771 49.1729C82.5815 49.1805 82.5867 49.1556 82.5918 49.1289C82.5991 49.091 82.6072 49.0486 82.6162 49.0879C82.6168 49.0906 82.6175 49.0937 82.6182 49.0967C82.6247 49.1246 82.6341 49.166 82.6445 49.249C82.6539 49.2564 82.6625 49.2653 82.6719 49.2734C82.6905 49.264 82.7003 49.2776 82.707 49.3047C82.7139 49.3113 82.7216 49.3173 82.7285 49.3242C82.7431 49.3387 82.7569 49.3546 82.7715 49.3701C82.7852 49.361 82.8026 49.3522 82.8174 49.3389C82.8359 49.322 82.8501 49.3269 82.8662 49.333C82.8829 49.3394 82.9016 49.3469 82.9316 49.332C83.0081 49.2946 83.0473 49.2778 83.0791 49.2646C83.0882 49.2609 83.097 49.2575 83.1055 49.2539C83.1321 49.2426 83.1619 49.2372 83.1914 49.2314C83.2266 49.2245 83.2624 49.2175 83.2949 49.2012C83.3333 49.2539 83.367 49.3126 83.3984 49.3711C83.4146 49.4014 83.3867 49.5128 83.3193 49.6836C83.3047 49.7207 83.2862 49.7589 83.2686 49.7998C83.2796 49.7871 83.2892 49.7731 83.3008 49.7607C83.4869 49.5594 83.733 49.3976 83.8408 49.3213C83.8485 49.3161 83.8557 49.3112 83.8613 49.3066C84.4158 48.9683 84.9504 48.6435 85.4297 48.3018C86.0262 47.8914 86.5743 47.3427 86.6289 47.0928C86.6306 47.0876 86.6324 47.0828 86.6338 47.0781C86.7848 46.5535 86.9256 46.0535 87.0391 45.5547C87.0511 45.5019 87.0628 45.4489 87.0742 45.3965C87.0997 44.9506 87.0965 44.5215 87.0957 44.2314C87.0958 43.9919 87.1298 43.8238 87.1553 43.6787C87.1726 43.5794 87.1855 43.4911 87.1768 43.4043C87.172 43.3578 87.1631 43.2947 87.1504 43.2207C87.1196 43.0403 87.0636 42.7953 86.9893 42.5576C86.9201 42.3361 86.8543 42.1074 86.8018 41.8926C86.7443 41.6571 86.6926 41.3885 86.6309 41.1592C86.5447 40.8273 86.4294 40.5967 86.3379 40.5469C86.2523 40.4969 86.1843 40.4552 86.1055 40.417C85.9516 40.3521 85.7991 40.2829 85.6553 40.2207C85.3613 40.0932 85.1022 39.9947 84.9414 39.9932C84.7498 39.9917 84.6042 39.9336 84.3867 39.8574C84.2363 39.8055 84.0488 39.7434 83.7998 39.707C83.5142 39.6665 83.3263 39.6375 83.1748 39.624C82.968 39.6052 82.7997 39.6265 82.7227 39.749C82.7138 39.7643 82.7068 39.779 82.7012 39.793C82.5125 40.0306 82.3275 40.256 82.1572 40.417C82.069 40.5 81.9799 40.6062 81.8916 40.7188C81.7747 40.8675 81.6588 41.028 81.5381 41.166C81.4388 41.2792 81.3317 41.3609 81.2383 41.4346C81.209 41.4579 81.1811 41.4805 81.1553 41.5029C81.0942 41.61 81.0371 41.7178 80.9824 41.8281C80.9801 41.8495 80.9783 41.8723 80.9766 41.8955C80.9674 42.0128 80.9583 42.1567 80.918 42.3174C80.8538 42.5734 80.749 42.777 80.6445 43C80.5707 43.1578 80.498 43.3257 80.4473 43.5254C80.4424 43.5445 80.4377 43.5633 80.4336 43.582C80.4007 43.729 80.3904 43.8741 80.3877 44.04C80.3836 44.2862 80.394 44.5514 80.3643 44.7363C80.3533 44.8027 80.32 44.8635 80.2871 44.9199L80.2861 44.9209C80.284 44.9247 80.2824 44.9288 80.2803 44.9326C80.2792 45.3928 80.2891 45.8561 80.3027 46.3232C80.3094 46.3633 80.3158 46.4049 80.3223 46.4463C80.3538 46.6438 80.3849 46.8367 80.4326 46.9648C80.4733 47.0731 80.4973 47.3049 80.5186 47.5801C80.5243 47.6515 80.5305 47.7272 80.5361 47.8047C80.5536 48.0416 80.5717 48.2863 80.5986 48.4873C80.6142 48.6062 80.5817 48.7121 80.5479 48.8271C80.5162 48.9356 80.4836 49.0401 80.4893 49.1611C80.4921 49.2215 80.5039 49.2873 80.5166 49.3555C80.5277 49.4158 80.5401 49.4803 80.5469 49.5479C80.5531 49.6122 80.5339 49.748 80.5098 49.9268C80.4948 50.0388 80.4781 50.1607 80.4639 50.293C80.4782 50.6404 80.4914 50.9883 80.5039 51.3359C80.5301 51.4086 80.5647 51.472 80.6094 51.5225C80.6414 51.5587 80.6795 51.5902 80.7188 51.6221C80.7723 51.6651 80.8283 51.7094 80.8721 51.7705C80.906 51.818 80.919 51.8738 80.9043 51.9111C80.8974 51.9284 80.8846 51.9421 80.873 51.9541C80.8597 51.9679 80.8475 51.9808 80.8477 51.9961C80.848 52.007 80.8572 52.0182 80.8682 52.0322C80.8859 52.0548 80.9089 52.0846 80.9092 52.1289C80.9101 52.2936 80.9003 52.4818 80.8906 52.665C80.8799 52.8695 80.869 53.0692 80.874 53.2285C80.8796 53.407 80.8422 53.6599 80.8047 53.9141C80.7785 54.0911 80.7528 54.2696 80.7412 54.4219C80.7299 54.5704 80.7467 54.7277 80.7637 54.8779C80.784 55.0588 80.8035 55.2342 80.7715 55.3809C80.7647 55.4108 80.7269 55.4481 80.6797 55.4941C80.6462 55.5267 80.6076 55.5639 80.5723 55.6064C80.5702 55.793 80.5664 55.9848 80.5615 56.1709C80.5665 56.1776 80.5719 56.1854 80.5771 56.1924C80.6949 56.3499 80.8565 56.5617 80.7559 56.8584C80.7303 56.933 80.6842 56.9805 80.6426 57.0234C80.6018 57.0654 80.5649 57.1024 80.5566 57.1572C80.5474 57.22 80.5715 57.2918 80.5977 57.374C80.6344 57.4892 80.6755 57.6141 80.6348 57.7412C80.632 57.7498 80.629 57.759 80.626 57.7686C80.5969 57.862 80.5537 57.9936 80.4688 58.1309C80.4423 58.5315 80.4124 58.9316 80.3799 59.333C80.3723 59.4287 80.3642 59.522 80.3564 59.6123C80.3082 60.1919 80.2565 60.7658 80.2041 61.3408C80.1742 61.6657 80.0564 61.9758 79.8721 62.2051C79.6875 62.4321 79.4522 62.5595 79.21 62.5586C78.9676 62.5552 78.7347 62.4229 78.5547 62.1924C78.375 61.9595 78.2647 61.6466 78.2412 61.3213C78.2036 60.7907 78.1662 60.2554 78.1318 59.7275C78.1271 59.6997 78.1224 59.671 78.1182 59.6426C78.1155 59.625 78.1125 59.6074 78.1094 59.5898C78.0751 59.4063 78.0139 59.2276 77.9531 59.0498C77.9379 59.0038 77.923 58.9612 77.9082 58.917C77.7955 58.5778 77.8491 57.9289 77.8789 57.5703C77.8794 57.5639 77.8804 57.5573 77.8809 57.5508C77.8879 57.4664 77.8898 57.3852 77.8926 57.29C77.8991 57.0686 77.9085 56.7617 77.9893 56.1309C77.9885 55.9485 77.9892 55.7607 77.9912 55.5781C78.0133 53.5882 78.1333 51.5997 78.2793 49.6113C78.2791 49.5864 78.2785 49.5601 78.2783 49.5342C78.274 49.0344 78.2697 48.4134 78.3193 48.0244C78.3426 47.8448 78.3652 47.678 78.3867 47.5381C78.4236 47.2879 78.4581 47.0921 78.4893 46.9189C78.6177 45.6912 78.5887 44.5564 78.9658 43.1279C79.0829 42.7423 79.2178 42.3626 79.375 41.9873C79.5833 41.4902 79.8307 41.0041 80.1221 40.541C80.3895 40.1153 80.6964 39.71 81.0312 39.3369C81.2098 39.1058 81.3883 38.8907 81.5547 38.7002C81.5816 38.6694 81.608 38.6385 81.6338 38.6094C82.009 38.2313 82.4196 38.0887 82.7158 38.0176ZM0.90332 36.6738C1.14588 36.6736 1.37782 36.797 1.56836 36.9932C1.75862 37.1916 1.89415 37.4598 1.95312 37.7568C2.04852 38.2401 2.16198 38.735 2.2793 39.2295C2.28834 39.2547 2.29794 39.2808 2.30664 39.3066C2.3712 39.4974 2.46706 39.6655 2.56543 39.8389C2.58786 39.8776 2.61063 39.9158 2.63281 39.9551C2.8006 40.2533 2.86451 40.8777 2.90234 41.2207C2.90309 41.2271 2.90354 41.2339 2.9043 41.2402C2.91378 41.3247 2.92618 41.3972 2.94141 41.4873C2.96381 41.6196 2.989 41.771 3.01758 42.0166C3.03461 42.1681 3.05404 42.3673 3.07129 42.6074C3.10946 42.7887 3.14397 42.9558 3.17969 43.1377C3.55346 45.038 3.84038 46.9716 4.09961 48.9023C4.10491 48.9264 4.11075 48.9509 4.11621 48.9756C4.22135 49.4511 4.35145 50.0453 4.38184 50.4258C4.42111 50.9126 4.43392 51.2434 4.44238 51.5166C4.64231 53.0536 4.84625 54.5893 5.08887 56.1182C5.16495 56.5976 5.24546 57.0768 5.33008 57.5547C5.40801 57.9947 5.48842 58.4338 5.57129 58.874C5.60044 58.9804 5.62992 59.0846 5.65918 59.1855C5.69949 59.3251 5.73939 59.4591 5.77734 59.5869C5.86962 59.8975 5.95194 60.1764 6.00195 60.4082C6.12262 60.9671 6.18439 61.6167 6.22852 62.0957C6.23583 62.1745 6.24246 62.249 6.24902 62.3174C6.3245 62.6908 6.40066 63.0669 6.47656 63.4434C6.47099 63.4698 6.46512 63.4964 6.45898 63.5234C6.38153 63.8651 6.44414 64.2626 6.54004 64.8857C6.58179 65.1573 6.62979 65.4732 6.6748 65.8447C6.70411 66.0863 6.67105 66.2139 6.64453 66.3213C6.63671 66.3528 6.62912 66.3826 6.62402 66.4121C6.60679 66.5129 6.6559 66.6089 6.71289 66.7217C6.78724 66.8703 6.87612 67.0477 6.85449 67.3018C6.78547 68.1114 6.95392 68.4396 7.08203 68.6885C7.11961 68.762 7.15355 68.8285 7.17676 68.8975C7.2521 69.1219 7.25236 69.4569 7.22559 69.7148C7.204 69.9158 7.30378 70.307 7.40234 70.5977C7.43944 70.7059 7.46017 70.864 7.4834 71.041C7.50824 71.2306 7.53616 71.444 7.59082 71.6729C7.72833 72.2473 7.79741 72.5577 7.85254 72.8018C7.86847 72.8733 7.88374 72.9391 7.89844 73.0039C7.94079 73.1911 7.9853 73.4245 8.0293 73.6572C8.03383 73.6816 8.03847 73.7064 8.04297 73.7305C8.10148 74.0422 8.15993 74.3593 8.2168 74.6016C8.25796 75.236 8.29153 75.8765 8.30957 76.5322C8.31858 76.8705 8.22897 77.2191 8.04883 77.4775C7.86851 77.7354 7.6221 77.8554 7.37598 77.8477C7.12884 77.8399 6.89778 77.7005 6.71289 77.4941C6.52818 77.2868 6.40072 77.009 6.35449 76.6963C6.26162 76.07 6.14949 75.4254 6.04492 74.7842C5.99736 74.4937 5.95033 74.2026 5.90527 73.9092C5.82959 73.4176 5.75883 72.9212 5.69727 72.4248C5.62861 71.8713 5.56508 71.3217 5.50391 70.7686C5.49765 70.712 5.49066 70.655 5.48438 70.5977C5.3638 70.1434 5.24803 69.6878 5.18457 69.3652C5.13238 69.1003 5.13673 68.8963 5.1416 68.7275C5.14477 68.6102 5.14793 68.5053 5.13086 68.4014C5.12185 68.3468 5.10699 68.2722 5.08984 68.1816C5.01972 67.8105 4.89986 67.1799 4.875 66.5947C4.86416 66.336 4.87166 66.0289 4.87891 65.7393C4.88885 65.3217 4.89644 64.9325 4.84766 64.7451C4.76137 64.4129 4.73218 64.0223 4.70605 63.6797C4.68061 63.3495 4.65811 63.0659 4.5918 62.9092C4.51276 62.7242 4.50715 62.5573 4.49707 62.3066C4.49049 62.1355 4.48116 61.9222 4.44531 61.6387C4.40388 61.3113 4.39993 61.0734 4.39648 60.873C4.3912 60.5888 4.38794 60.3778 4.2793 60.0762C4.20454 59.8693 4.13729 59.6556 4.08984 59.4531C4.06119 59.3311 4.03931 59.2138 4.02832 59.1055C4.01509 58.975 3.98787 58.8272 3.95898 58.6748C3.92074 58.473 3.88002 58.2594 3.86816 58.0615C3.85835 57.8979 3.88144 57.7558 3.90234 57.6309C3.90883 57.5923 3.91506 57.5552 3.91992 57.5195C3.89658 57.3919 3.87298 57.2635 3.84863 57.1357C3.83738 57.1165 3.82519 57.0963 3.8125 57.0752C3.74848 56.969 3.66931 56.8386 3.61133 56.6699C3.51957 56.4028 3.50287 56.1577 3.48438 55.8984C3.46999 55.6967 3.45498 55.4863 3.40332 55.252C3.36805 55.092 3.31453 54.9122 3.26172 54.7344C3.18322 54.4698 3.10583 54.2088 3.08887 54.0205C3.08256 53.9499 3.1008 53.8848 3.11914 53.8203V53.8193C3.12035 53.8151 3.12184 53.8109 3.12305 53.8066C3.01596 53.3611 2.90599 52.9142 2.79395 52.4688C2.77899 52.4314 2.76377 52.3938 2.74902 52.3564C2.67657 52.1725 2.60598 51.9928 2.5332 51.8818C2.4544 51.7623 2.3587 51.4366 2.25879 51.0967C2.19306 50.8724 2.12601 50.6448 2.05859 50.457C2.01931 50.348 2.02884 50.2352 2.03906 50.1201C2.04874 50.0136 2.05803 49.901 2.02832 49.7881C2.01339 49.7314 1.98924 49.6717 1.96289 49.6084C1.93966 49.5525 1.91501 49.4945 1.89453 49.4307C1.87563 49.3717 1.86577 49.2341 1.85352 49.0596C1.84608 48.9526 1.83684 48.8286 1.82422 48.7002C1.74012 48.3718 1.65685 48.0402 1.57422 47.71C1.53376 47.6453 1.48649 47.5916 1.43262 47.5527C1.39408 47.525 1.35036 47.5035 1.30566 47.4814C1.24456 47.4511 1.18134 47.4215 1.12598 47.3711C1.08278 47.3319 1.05838 47.2801 1.06543 47.2412C1.06878 47.2233 1.079 47.2082 1.08789 47.1943C1.09814 47.1784 1.10766 47.1639 1.10449 47.1494C1.10216 47.139 1.09084 47.1294 1.07715 47.1182C1.05527 47.1002 1.0268 47.0772 1.01758 47.0352C0.983888 46.8804 0.954023 46.6934 0.926758 46.5176C0.89655 46.3227 0.865592 46.1243 0.829102 45.9756C0.787542 45.8054 0.773557 45.5561 0.758789 45.3037C0.748298 45.1267 0.7387 44.9564 0.71875 44.8047C0.699537 44.6578 0.652049 44.5166 0.604492 44.3721C0.548067 44.2019 0.494678 44.0405 0.496094 43.8906C0.496478 43.8607 0.526235 43.8179 0.563477 43.7646C0.589923 43.7267 0.620215 43.683 0.646484 43.6348C0.609888 43.4484 0.577536 43.2758 0.543945 43.0889C0.537695 43.0834 0.530898 43.0769 0.524414 43.0713C0.393639 42.9607 0.218065 42.8036 0.213867 42.5586C0.213127 42.5293 0.214735 42.4985 0.21875 42.4668C0.228838 42.388 0.264395 42.3332 0.296875 42.2842C0.328695 42.236 0.358 42.1942 0.355469 42.1396C0.352136 42.076 0.313633 42.0074 0.272461 41.9346C0.215077 41.8345 0.14979 41.7151 0.166016 41.5859C0.167111 41.5772 0.168744 41.5674 0.169922 41.5576C0.181754 41.4671 0.196919 41.3198 0.255859 41.1768C0.207132 40.7811 0.164278 40.3839 0.12793 39.9863C0.0673715 39.3206 0.0210087 38.6524 0.000976562 37.9668C-0.00828234 37.634 0.0798232 37.2978 0.251953 37.0488C0.424236 36.7997 0.661562 36.6724 0.90332 36.6738ZM24.1582 40.4766C24.5062 40.5135 24.7869 40.7191 24.9297 40.8877C25.2999 41.3697 25.2769 41.5967 25.3457 41.8242C25.3932 42.0437 25.4223 42.2334 25.4492 42.4102C25.4763 42.5911 25.4998 42.7603 25.5205 42.9121C25.6742 43.7578 25.8251 44.5875 25.9902 45.416C25.9905 45.4725 25.9901 45.5304 25.9902 45.5898C25.9902 45.8012 26.0043 46.0231 26.0312 46.2705C26.0953 46.8666 26.2383 47.5925 26.4375 48.5723C26.5595 49.1725 26.7022 49.8682 26.8594 50.6904C26.9606 51.2202 26.9661 51.504 26.9697 51.7334C26.9709 51.8011 26.9722 51.8647 26.9756 51.9287C26.987 52.1469 27.0648 52.3658 27.1572 52.623C27.2769 52.9564 27.4206 53.3574 27.4707 53.9141C27.629 55.689 27.8847 56.4381 28.0791 57.0059C28.136 57.1736 28.1868 57.3234 28.2275 57.4814C28.2499 57.5681 28.27 57.6613 28.2891 57.7588C28.3831 58.2378 28.4391 58.8314 28.46 59.3018C28.4808 59.7512 28.6565 60.6292 28.8057 61.2939C28.8625 61.5464 28.909 61.8896 28.96 62.2959C29.0127 62.7157 29.0703 63.2027 29.1533 63.7207C29.3619 65.0301 29.4538 65.7288 29.5293 66.29C29.5505 66.4493 29.5705 66.5989 29.5898 66.7471C29.6292 67.049 29.6696 67.3989 29.71 67.7666C29.7325 67.9722 29.7552 68.1815 29.7773 68.3936C29.8514 69.1017 29.9214 69.82 29.9854 70.3662C30.0393 71.6202 30.0721 72.8781 30.1143 74.1133C30.1201 74.278 30.126 74.4423 30.1328 74.6064C30.1617 75.3212 30.1129 76.0235 29.9688 76.5576C29.8247 77.0898 29.6025 77.3932 29.3564 77.4092C29.1096 77.423 28.8554 77.1502 28.6357 76.6562C28.4167 76.1635 28.2445 75.4752 28.1748 74.7412C28.1588 74.5736 28.1439 74.4061 28.1289 74.2383C28.0146 72.9356 27.9127 71.6472 27.8008 70.3594C27.731 69.5497 27.659 68.7406 27.585 67.9316C27.4974 66.9743 27.4068 66.0185 27.3115 65.0654C27.1887 63.835 27.0509 62.6066 26.8955 61.3809C26.8794 61.254 26.8641 61.1294 26.8477 61.0029C26.6447 59.9821 26.4298 58.9666 26.291 58.251C26.2809 58.1986 26.2708 58.147 26.2617 58.0967C26.1684 57.5825 26.1291 57.1886 26.0938 56.8457C26.067 56.5871 26.0427 56.3583 25.998 56.1299C25.9742 56.0077 25.9386 55.8398 25.8965 55.6387C25.7249 54.8154 25.422 53.4185 25.2217 52.124C25.1331 51.5495 25.0498 50.8786 24.9697 50.2354C24.8555 49.3178 24.7497 48.4586 24.6455 48.0361C24.5335 47.5831 24.4377 47.0776 24.3574 46.5811C24.3056 46.2609 24.2589 45.9454 24.2168 45.6465C24.113 44.912 24.0301 44.2655 23.9307 43.9102C23.8284 43.5483 23.7876 43.2167 23.7363 42.7998C23.5941 42.9845 23.4673 43.1476 23.3525 43.3008C22.989 43.79 22.7238 44.1705 22.4512 44.7969C22.1494 45.4928 21.865 46.221 21.6299 46.7852C21.5216 47.0429 21.4178 47.3433 21.3232 47.6592C21.1976 48.0772 21.0899 48.52 20.9912 48.9229C20.9096 49.2549 20.8249 49.5273 20.7578 49.7725C20.737 49.8486 20.7186 49.9226 20.7021 49.9941C20.7005 50.0173 20.6987 50.0404 20.6973 50.0635C20.6801 50.3302 20.6624 50.5975 20.6445 50.8643C20.6488 50.9122 20.6541 50.9625 20.6592 51.0146C20.6842 51.2789 20.7137 51.602 20.707 52.0039C20.6953 52.639 20.6171 53.1912 20.5029 53.79C20.4685 53.9669 20.4326 54.1447 20.3818 54.3467C20.3559 54.4472 20.3282 54.5529 20.2803 54.6855C20.2529 54.7561 20.2321 54.8219 20.1533 54.9521C20.1113 55.0092 20.0753 55.0993 19.875 55.2324C19.7794 55.2929 19.6107 55.3584 19.4248 55.3447C19.24 55.3306 19.1184 55.2655 19.0254 55.2002C18.6898 54.9247 18.6683 54.7618 18.5811 54.6211C18.3932 54.2462 18.2257 53.8935 18.0352 53.5273C17.7586 52.9904 17.472 52.4674 17.3018 52.0859C17.2393 51.9456 17.2039 51.8089 17.1719 51.6797V51.6777C17.1696 51.6688 17.1673 51.6594 17.165 51.6504C17.0524 51.4406 16.9415 51.2372 16.8252 51.0264C16.4442 50.3363 16.0612 49.6539 15.6699 48.9746C15.6212 48.901 15.5718 48.8268 15.5225 48.752C15.2837 48.3906 15.0492 48.0419 14.8721 47.832C14.679 47.604 14.2872 46.9718 13.8545 46.3643C13.7359 46.1986 13.6105 46.0361 13.4951 45.8975L13.4941 45.9004C13.4549 45.9831 13.4557 46.0161 13.4463 46.0957C13.4394 46.1636 13.4332 46.2558 13.4258 46.3662C13.4186 46.4658 13.3745 46.7141 13.3438 47.0732C13.3243 47.2931 13.3094 47.5548 13.3018 47.8301C13.3169 48.1772 13.3392 48.5337 13.3652 48.8896C13.3937 49.2803 13.4231 49.6751 13.4531 50.0693C13.4888 50.2282 13.5318 50.3608 13.583 50.4688C13.6195 50.5435 13.6618 50.6075 13.7051 50.6738C13.7643 50.7659 13.8251 50.8555 13.877 50.9873C13.9174 51.0897 13.9384 51.208 13.9287 51.292C13.9241 51.3309 13.9124 51.362 13.9023 51.3887C13.891 51.4192 13.8817 51.4468 13.8838 51.4795C13.8854 51.5033 13.8952 51.5285 13.9082 51.5586C13.9289 51.6064 13.9558 51.6704 13.9619 51.7656C13.9852 52.127 14.0013 52.5365 14.0166 52.9385C14.0336 53.3854 14.0506 53.8225 14.0771 54.1709C14.1069 54.5596 14.103 55.1179 14.0996 55.6768C14.0972 56.0658 14.095 56.4575 14.1035 56.791C14.1119 57.1196 14.15 57.4586 14.1865 57.7881C14.2303 58.1824 14.272 58.5636 14.2588 58.8887C14.256 58.9544 14.2231 59.038 14.1816 59.1426C14.1523 59.2163 14.1188 59.3012 14.0889 59.3975C14.1073 59.7492 14.1238 60.1011 14.1396 60.4531C14.1424 60.5139 14.1458 60.575 14.1484 60.6357C14.1542 60.6498 14.1601 60.6642 14.166 60.6787V60.6797C14.3024 61.0123 14.4893 61.468 14.4238 62.124C14.4072 62.2905 14.3667 62.3975 14.3301 62.4932C14.2942 62.5871 14.2616 62.6711 14.2598 62.792C14.2577 62.9295 14.2898 63.0902 14.3252 63.2656C14.3748 63.5109 14.4307 63.7859 14.4043 64.0654C14.4025 64.0844 14.4004 64.1048 14.3984 64.126C14.3798 64.3279 14.352 64.6275 14.2822 64.9277C14.3002 65.8064 14.3134 66.6886 14.3232 67.5674C14.3398 69.0336 14.3475 70.5028 14.3535 71.9678C14.3538 72.0583 14.3523 72.1547 14.3496 72.2422C14.3322 72.8568 14.2489 73.4352 14.1084 73.8799C13.9467 74.3878 13.7246 74.6872 13.4814 74.6885C13.2403 74.7036 12.9945 74.4265 12.792 73.9326C12.6159 73.5013 12.4856 72.933 12.418 72.3223C12.4081 72.2352 12.3997 72.1391 12.3926 72.0488C12.302 70.8915 12.2106 69.7291 12.1211 68.5723C12.1135 68.5119 12.1057 68.4489 12.0986 68.3896C12.0451 67.9382 11.9588 67.5232 11.8721 67.1064C11.8521 67.0107 11.832 66.9137 11.8125 66.8184C11.6639 66.086 11.6467 64.665 11.6357 63.8828C11.6355 63.8685 11.635 63.8541 11.6348 63.8398C11.6322 63.6538 11.6252 63.4792 11.6172 63.2734C11.5979 62.7836 11.573 62.1214 11.5771 60.7373C11.5742 60.6862 11.5713 60.6351 11.5684 60.584C11.5484 60.2336 11.5291 59.8837 11.5107 59.5332C11.3295 56.03 11.176 52.5274 11.082 48.999C11.0656 48.1306 11.0455 47.2877 11.1514 46.3135C11.157 46.2498 11.1634 46.1819 11.1719 46.1113C11.2052 45.7772 11.3309 45.2127 11.5635 44.8164C12.0424 43.9496 12.8674 43.6338 13.4521 43.5078C13.9745 43.413 14.2351 43.5782 14.3818 43.6445C14.538 43.7286 14.6262 43.8013 14.6963 43.8594C14.8426 43.9848 14.9233 44.077 15.0059 44.1719C15.1587 44.3519 15.2618 44.4994 15.3545 44.6387C16.0022 45.6588 16.29 46.3169 16.5654 46.877C17.1639 48.0057 17.7233 49.1327 18.2822 50.2656C18.5783 50.8664 18.8643 51.4696 19.1426 52.0811C19.2104 51.3834 19.2684 50.6783 19.3174 49.9717C19.3348 49.7185 19.3613 49.4671 19.3955 49.2178C19.5418 48.1562 19.83 47.1326 20.2012 46.1543C20.3977 45.5771 20.6109 45.037 20.8252 44.5469C21.1281 43.8549 21.4324 43.2615 21.7148 42.7842C22.0321 42.2476 22.4053 41.7023 22.79 41.1943C22.9206 41.0298 23.0476 40.8488 23.3789 40.6465C23.5446 40.5518 23.8116 40.4382 24.1582 40.4766ZM68.9951 36.8994C69.7742 36.8303 70.4702 36.9409 71.1533 37.1064C71.4737 37.1725 71.7483 37.2275 72.1016 37.3623C72.2033 37.4035 72.2993 37.4488 72.3887 37.4971C72.9536 37.8104 73.2966 38.1763 73.5508 38.4805C74.1087 39.1656 74.4842 40.0045 74.7295 40.6748C74.7694 40.7745 74.8055 40.911 74.8203 41.0029C74.8529 41.2025 74.8534 41.3227 74.8574 41.4385C74.9044 42.042 74.9146 42.5687 74.9336 43.1191C74.9239 43.1554 74.9137 43.195 74.9033 43.2314C74.7741 43.6921 74.7738 44.2682 74.7705 45.1611C74.7695 45.4374 74.7679 45.7342 74.7627 46.0811C74.7605 46.2223 74.757 46.3769 74.7529 46.5381C74.7443 46.8766 74.6923 47.0576 74.6494 47.1992C74.6368 47.2415 74.6248 47.2817 74.6152 47.3223C74.6014 47.3821 74.6005 47.4408 74.6055 47.502C74.627 47.4894 74.647 47.4777 74.667 47.4658C74.7312 47.4274 74.8169 47.3877 74.9023 47.3477C75.0053 47.2996 75.1048 47.2517 75.1826 47.2021C75.4065 47.1774 75.6302 47.1611 75.8525 47.1445C75.9648 47.1367 76.1033 47.2167 76.2236 47.375C76.3449 47.5331 76.4443 47.7537 76.5039 47.9932C76.5634 48.2328 76.5785 48.4744 76.5459 48.6709C76.5142 48.867 76.4311 49.003 76.3291 49.0488C76.1191 49.1418 75.9084 49.2346 75.6924 49.3213C75.4352 49.4253 75.1722 49.5192 74.9014 49.5879C74.8025 49.613 74.7015 49.6358 74.6006 49.6582C74.597 50.104 74.6635 50.3833 74.7188 50.6182C74.7448 50.7272 74.7687 50.8266 74.7812 50.9287C74.822 51.2623 74.7725 51.7325 74.708 52.0869C74.6568 52.3702 74.6975 52.9354 74.7529 53.3643C74.7738 53.527 74.7721 53.7458 74.7695 54.0039C74.7669 54.2714 74.7635 54.5801 74.7852 54.9111C74.8399 55.7469 74.8659 56.1923 74.8867 56.5488C74.8926 56.6498 74.8977 56.7454 74.9033 56.8398C74.9212 57.1387 74.935 57.5117 74.9482 57.8867C74.9641 58.3377 74.9801 58.7934 75.0049 59.1416C74.9631 60.0434 74.9138 60.9389 74.8652 61.8418C74.8401 62.3 74.7244 62.7482 74.5381 63.0703C74.3516 63.3976 74.1112 63.5744 73.8643 63.5713C73.6173 63.569 73.3812 63.3865 73.2021 63.0547C73.0232 62.7281 72.9176 62.2773 72.9033 61.8184C72.8752 60.8835 72.8469 59.955 72.8271 59.0205C72.803 57.8866 72.7909 56.7494 72.8047 55.6152C72.8143 54.8215 72.8297 54.0279 72.8496 53.2344C72.8517 53.1527 72.8533 53.0707 72.8555 52.9893C72.8025 52.3218 72.7547 51.6546 72.7402 51.1875C72.7283 50.7977 72.7645 50.5181 72.7949 50.2754C72.8017 50.222 72.8068 50.1704 72.8125 50.1201C72.7438 50.1103 72.6695 50.0979 72.5977 50.083C72.4418 50.0497 72.2951 50.0192 72.2344 50.0557C72.1275 50.1195 71.9891 50.124 71.8662 50.1279C71.7487 50.1317 71.645 50.1354 71.5996 50.1895C71.546 50.2536 71.4845 50.2485 71.3936 50.2412C71.3304 50.2362 71.2529 50.2301 71.1533 50.2451C71.0382 50.2626 70.9507 50.2494 70.876 50.2383C70.7712 50.2226 70.6919 50.2106 70.5996 50.293C70.4975 50.3845 70.3844 50.4554 70.2822 50.4609C70.2358 50.4634 70.1858 50.4784 70.1338 50.4941C70.0648 50.515 69.9916 50.5371 69.9189 50.5322C69.8592 50.5281 69.8018 50.4936 69.751 50.4629C69.7351 50.4533 69.7195 50.4443 69.7051 50.4365C69.6614 50.4483 69.6177 50.4601 69.5742 50.4727C69.569 50.482 69.5632 50.4924 69.5576 50.5029C69.5294 50.5557 69.4951 50.6207 69.4424 50.6621C69.3587 50.7277 69.269 50.723 69.1748 50.7178C69.1015 50.7137 69.0243 50.7096 68.9453 50.7383C68.8913 50.7579 68.833 50.7934 68.7754 50.8281C68.6901 50.8796 68.6054 50.9306 68.5371 50.9297C68.5115 50.9292 68.4828 50.9047 68.4551 50.8809L68.4492 50.876C68.2997 50.9378 68.1521 51.0019 68.0029 51.0674C67.9914 51.0783 67.9793 51.0889 67.9678 51.0996C67.911 51.152 67.8562 51.2031 67.8271 51.2627C67.7958 51.3273 67.6898 51.387 67.5781 51.4502C67.505 51.4916 67.4295 51.5348 67.3711 51.5811C67.3369 51.608 67.2932 51.5867 67.2471 51.5654C67.2043 51.5455 67.1599 51.5255 67.1221 51.543C67.1033 51.5518 67.0848 51.5699 67.0654 51.5889C67.0484 51.6056 67.0299 51.6235 67.0098 51.6367C66.9906 51.6487 66.9405 51.6436 66.877 51.6377C66.8374 51.6341 66.7931 51.6306 66.7461 51.6299C66.635 51.678 66.5242 51.7248 66.4141 51.7705C66.3969 51.8029 66.3851 51.8425 66.3799 51.8906C66.3762 51.9251 66.3757 51.9657 66.375 52.0068C66.3741 52.0628 66.3726 52.1207 66.3633 52.1689C66.356 52.2064 66.3411 52.2244 66.3252 52.2139C66.3177 52.2088 66.3096 52.1976 66.3027 52.1875C66.2949 52.176 66.2882 52.1656 66.2832 52.167C66.2796 52.1682 66.2783 52.1783 66.2764 52.1904C66.2734 52.2097 66.2692 52.2345 66.2549 52.2393C66.2008 52.2561 66.1366 52.2643 66.0742 52.2725C66.0051 52.2815 65.9364 52.2913 65.8848 52.3115C65.8272 52.3338 65.7346 52.3218 65.6426 52.3096C65.5778 52.3011 65.5143 52.2924 65.46 52.2959C65.4077 52.2993 65.3608 52.3307 65.3154 52.3613C65.2608 52.3982 65.2083 52.4331 65.1523 52.416C65.141 52.4125 65.1194 52.3795 65.0928 52.3379C65.0739 52.3084 65.0519 52.2746 65.0293 52.2441C64.9662 52.26 64.9021 52.2742 64.8389 52.2871C64.8379 52.2925 64.8369 52.2981 64.8359 52.3037C64.8136 52.4324 64.783 52.6093 64.6621 52.5391C64.647 52.5302 64.6327 52.5157 64.6191 52.499L64.5459 52.3965C64.5348 52.3837 64.5238 52.3754 64.5137 52.374C64.4909 52.3714 64.4723 52.401 64.4521 52.4336C64.4237 52.4797 64.392 52.5314 64.3408 52.5039C64.3373 52.502 64.333 52.5001 64.3291 52.498C64.292 52.4784 64.2372 52.449 64.1729 52.3789C64.0457 52.3898 63.9203 52.3956 63.7959 52.4004C63.8001 52.6265 63.7863 52.914 63.7734 53.2031C63.7626 53.4442 63.7533 53.6854 63.7578 53.8926C63.7623 54.0962 63.7978 54.3048 63.833 54.5078C63.8752 54.7516 63.9168 54.9839 63.9053 55.1875C63.9029 55.2284 63.8707 55.2825 63.8301 55.3506C63.8013 55.3988 63.7684 55.4533 63.7393 55.5156C63.7426 55.5499 63.7456 55.5846 63.749 55.6191C63.7705 55.8395 63.7927 56.0635 63.8145 56.2852C63.8204 56.2935 63.8268 56.3019 63.833 56.3105V56.3115C63.9749 56.5091 64.1699 56.7776 64.1221 57.1943C64.1099 57.3003 64.0718 57.3711 64.0381 57.4346C64.005 57.497 63.9757 57.5535 63.9775 57.6299C63.9797 57.7164 64.017 57.8143 64.0576 57.9209C64.1148 58.0709 64.1787 58.2385 64.1621 58.417C64.161 58.4292 64.1604 58.4424 64.1592 58.4561C64.1477 58.5855 64.1303 58.7771 64.0723 58.9736C64.1235 59.5277 64.1734 60.0835 64.2217 60.6406C64.293 61.4682 64.3633 62.2964 64.4199 63.1387C64.4269 63.2433 64.434 63.3447 64.4404 63.4463C64.469 63.9016 64.4066 64.3522 64.2598 64.6943C64.1137 65.0316 63.8927 65.2695 63.6484 65.2422C63.4075 65.2743 63.1646 65.1259 62.9492 64.833C62.7354 64.5419 62.573 64.127 62.4922 63.6836C62.4742 63.5846 62.4561 63.486 62.4375 63.3838C62.3242 62.7719 62.199 62.1462 62.0781 61.5205C62.0678 61.4827 62.0576 61.4444 62.0479 61.4072C61.9747 61.1264 61.8708 60.8704 61.7666 60.6143C61.7426 60.555 61.7189 60.4956 61.6953 60.4365C61.5158 59.9854 61.4402 59.0764 61.4023 58.5742C61.4016 58.5651 61.4011 58.556 61.4004 58.5469C61.3913 58.4277 61.3791 58.3152 61.3643 58.1836C61.3296 57.8695 61.2798 57.4462 61.2549 56.5469C61.2282 56.3245 61.2032 56.0988 61.1807 55.875C61.177 55.839 61.1734 55.8024 61.1699 55.7666C60.9699 53.716 60.9101 51.6206 61.0674 49.5293C61.125 48.7576 61.2112 47.9781 61.3467 47.1963C61.351 47.1594 61.3557 47.122 61.3604 47.084C61.4298 46.5006 61.552 45.8022 61.7012 45.2695C61.7388 45.1334 61.7782 45.0071 61.8164 44.8965C62.057 44.2052 62.2607 43.7571 62.4326 43.3916C62.6144 42.9316 62.8089 42.4793 63.0244 42.0283C63.6215 40.733 64.6109 39.6628 65.5566 38.7988C65.9271 38.4542 66.3202 38.134 66.7441 37.8447C67.2054 37.5364 67.6491 37.2662 68.2588 37.0498C68.5111 36.9672 68.7578 36.923 68.9951 36.8994ZM91.7217 49.1562C91.7662 49.1517 91.8983 49.1526 91.8164 49.2471C91.81 49.3027 91.9702 49.2288 91.9844 49.2129C92.0169 49.2088 92.0486 49.1997 92.0781 49.2002C92.1376 49.1982 92.1953 49.2022 92.251 49.208C92.3621 49.2199 92.4663 49.2417 92.5576 49.2725C92.7399 49.3342 92.8555 49.4262 92.8857 49.5254C92.9346 49.6895 92.9859 49.857 93.0342 50.0254C93.0397 50.0342 93.0448 50.0438 93.0498 50.0527C93.0871 50.116 93.1591 50.1751 93.2305 50.2324C93.2468 50.2458 93.2634 50.2598 93.2793 50.2734C93.3708 50.3493 93.3744 50.4883 93.3623 50.6025L93.3467 50.7119C93.3422 50.7394 93.3426 50.7657 93.3428 50.7969C93.3431 50.869 93.3437 50.9678 93.2832 51.1787C93.2897 51.2367 93.295 51.3001 93.2988 51.3574C93.3061 51.4673 93.311 51.5759 93.3135 51.6885L93.3105 51.6611C93.3324 52.1953 93.3017 52.7453 93.2578 53.2939C93.2592 53.302 93.2613 53.3101 93.2627 53.3184C93.2904 53.4811 93.3248 53.6819 93.2949 53.8135C93.2569 53.9802 93.2178 54.0953 93.1836 54.1895C93.1409 54.7162 93.1077 55.2426 93.1221 55.7646C93.1266 55.9284 93.1354 56.0921 93.1504 56.2549C93.1641 56.4046 93.1818 56.5536 93.2021 56.7031C93.2352 56.7882 93.2721 56.8696 93.3066 56.9443C93.355 57.0481 93.3988 57.1428 93.417 57.2207C93.4609 57.4111 93.4358 57.6345 93.417 57.7988C93.414 57.8259 93.4116 57.8515 93.4092 57.875C93.4167 57.9119 93.424 57.9489 93.4316 57.9854C93.4506 58.0773 93.4703 58.1707 93.4893 58.2627C93.4803 58.2721 93.4706 58.2813 93.4609 58.291C93.3405 58.4118 93.3516 58.5479 93.3672 58.7627C93.374 58.8562 93.3812 58.9649 93.3789 59.0928C93.3774 59.1752 93.3288 59.2203 93.2891 59.2568C93.2774 59.2676 93.2665 59.2781 93.2578 59.2881C93.2279 59.3225 93.2634 59.3556 93.3057 59.3945C93.3607 59.4451 93.4271 59.5067 93.374 59.5938C93.2052 59.8705 93.3321 59.983 93.4287 60.0693C93.457 60.0946 93.4825 60.1177 93.4971 60.1416C93.5444 60.2187 93.5048 60.3329 93.4473 60.4199C93.4016 60.4891 93.4532 60.6235 93.5166 60.7236C93.5405 60.7617 93.5427 60.8139 93.5449 60.875C93.5472 60.9387 93.5506 61.0127 93.5781 61.0908C93.6479 61.2885 93.6811 61.3943 93.708 61.4795C93.7157 61.5036 93.7222 61.5266 93.7295 61.5488C93.7524 61.6206 93.7725 61.7078 93.792 61.7979C93.8153 61.9043 93.8389 62.0129 93.8691 62.0957C93.8418 62.3109 93.8067 62.5246 93.7715 62.7393C93.7532 62.8477 93.6436 62.9567 93.4619 63.0352C93.2801 63.1154 93.0419 63.1608 92.7949 63.1641C92.5482 63.1674 92.3096 63.1277 92.126 63.0518C91.9424 62.9775 91.8296 62.8711 91.8086 62.7637C91.7667 62.5431 91.7251 62.326 91.6904 62.1074C91.6482 61.8408 91.6165 61.5772 91.6104 61.3115C91.6061 61.1261 91.6072 60.9396 91.6123 60.7539C91.6128 60.7351 91.6137 60.7162 91.6143 60.6973C91.5487 60.5433 91.4876 60.3909 91.4639 60.2822C91.4443 60.1933 91.4745 60.1254 91.5 60.0684C91.5175 60.0292 91.5334 59.9944 91.5293 59.96C91.5271 59.9414 91.5224 59.916 91.5166 59.8857C91.493 59.7615 91.4517 59.5515 91.501 59.3555C91.5229 59.2686 91.5692 59.1662 91.6133 59.0684C91.6763 58.9285 91.7343 58.7971 91.71 58.7344C91.6674 58.6245 91.6887 58.4943 91.707 58.3789C91.7244 58.2701 91.7388 58.1738 91.6953 58.123L91.6943 58.1211C91.6404 58.0609 91.6559 58.0038 91.6787 57.9189C91.6946 57.861 91.7136 57.7867 91.7158 57.6914C91.7182 57.58 91.7461 57.4987 91.7695 57.4297C91.8025 57.3315 91.8269 57.2593 91.7607 57.1582C91.6877 57.0481 91.6364 56.9295 91.6475 56.832C91.6526 56.7874 91.6467 56.7372 91.6396 56.6855C91.6303 56.617 91.6201 56.5436 91.6367 56.4756C91.6505 56.4195 91.6939 56.3699 91.7324 56.3262C91.7443 56.3127 91.7557 56.2996 91.7656 56.2871C91.761 56.2437 91.7564 56.1997 91.751 56.1562C91.7427 56.1499 91.7331 56.1436 91.7236 56.1367C91.676 56.102 91.6174 56.0595 91.585 56.0029C91.5336 55.9132 91.5531 55.8286 91.5732 55.7393C91.5889 55.67 91.6055 55.5979 91.5898 55.5186C91.579 55.4643 91.5535 55.4028 91.5283 55.3428C91.491 55.2538 91.4541 55.1662 91.4658 55.1016C91.4703 55.0773 91.4975 55.0532 91.5254 55.0303H91.5264C91.5282 55.0287 91.5304 55.0269 91.5322 55.0254C91.4947 54.874 91.4544 54.7226 91.4131 54.5713C91.4043 54.5589 91.3953 54.5466 91.3867 54.5342C91.344 54.4729 91.3023 54.4124 91.248 54.376C91.1891 54.3366 91.1465 54.2265 91.1016 54.1113C91.0722 54.0363 91.0414 53.9576 91.0049 53.8955C90.9835 53.8591 91.0108 53.8188 91.0391 53.7783C91.0654 53.7405 91.0923 53.7013 91.0811 53.6631C91.0753 53.6438 91.0606 53.6237 91.0449 53.6025C91.031 53.5838 91.0158 53.5641 91.0059 53.543C90.9966 53.5231 91.0087 53.4762 91.0244 53.415C91.0341 53.3775 91.0455 53.3349 91.0537 53.291C91.0235 53.1781 90.9938 53.066 90.9658 52.9531C90.9365 52.9319 90.8992 52.9145 90.8525 52.9023C90.8191 52.8936 90.7796 52.8875 90.7393 52.8809C90.6842 52.8719 90.6273 52.8624 90.5811 52.8467C90.5453 52.8344 90.5295 52.8173 90.542 52.8037C90.5482 52.7973 90.5612 52.7912 90.5723 52.7861C90.5847 52.7804 90.5954 52.7754 90.5947 52.7705C90.5941 52.767 90.5848 52.7642 90.5732 52.7607C90.5546 52.7552 90.5305 52.7471 90.5283 52.7324C90.5201 52.6776 90.5218 52.6161 90.5234 52.5547C90.5252 52.4853 90.5265 52.4203 90.5146 52.3672C90.5014 52.3081 90.529 52.2221 90.5557 52.1338C90.5744 52.0736 90.5923 52.0103 90.5977 51.959C90.5996 51.9395 90.5977 51.9203 90.5928 51.9014C90.5934 51.896 90.5901 51.8794 90.5908 51.874C90.5836 51.843 90.569 51.8128 90.5557 51.7832C90.5292 51.7247 90.5043 51.6695 90.5312 51.6172C90.5367 51.6068 90.5733 51.5918 90.6191 51.5732C90.6516 51.5601 90.6886 51.5448 90.7227 51.5283C90.7187 51.4688 90.7159 51.4024 90.7148 51.3418C90.7096 51.34 90.7037 51.3378 90.6982 51.3359C90.5759 51.2937 90.4081 51.2306 90.499 51.127C90.5221 51.0998 90.5672 51.0813 90.6074 51.0645C90.6469 51.0479 90.682 51.0332 90.6885 51.0146C90.6958 50.9937 90.6702 50.9711 90.6416 50.9453C90.6015 50.9095 90.5565 50.8708 90.5928 50.8271C90.5953 50.824 90.5978 50.8199 90.6006 50.8164C90.6267 50.7834 90.6655 50.7353 90.7461 50.6865C90.7604 50.5503 90.7795 50.4155 90.8008 50.2803C90.8361 50.0526 90.8791 49.8266 90.9248 49.5947C90.9477 49.4832 91.058 49.3688 91.2393 49.2812C91.3301 49.2376 91.4352 49.203 91.5479 49.1797C91.604 49.1686 91.6622 49.1589 91.7217 49.1562ZM82.9941 50.3652C82.9944 50.3691 82.9949 50.373 82.9951 50.377C82.9971 50.3721 82.9989 50.3671 83.001 50.3623C83.0013 50.358 83.0025 50.3539 83.0029 50.3496C83.0001 50.3549 82.997 50.36 82.9941 50.3652ZM68.6953 38.3633C68.6155 38.3905 68.5119 38.4344 68.4141 38.4814C68.3947 38.499 68.3717 38.5189 68.3506 38.5391C68.2402 38.6428 68.1088 38.7756 67.9336 38.917C67.6563 39.1418 67.3888 39.3078 67.1113 39.5029C66.9504 39.6165 66.7867 39.7409 66.623 39.8945C66.5655 39.9486 66.5084 40.0057 66.4512 40.0654C66.2946 40.2286 66.1306 40.4238 65.9775 40.6191C65.749 40.9093 65.5493 41.1997 65.3916 41.3838C65.3323 41.4526 65.2629 41.4991 65.1943 41.5459H65.1924C65.1878 41.5491 65.1833 41.5525 65.1787 41.5557C64.9472 41.923 64.7559 42.308 64.6016 42.7119C64.5421 42.8665 64.4851 43.0242 64.4297 43.1826C64.417 43.2354 64.4043 43.2895 64.3916 43.3428C64.3295 43.6036 64.275 43.8579 64.2676 44.0332C64.2594 44.2226 64.1429 44.6653 64.0449 45.1328C63.9966 45.3617 63.9526 45.5963 63.9219 45.8086C63.9115 45.88 63.9027 45.9493 63.8955 46.0146C63.8789 46.1667 63.8184 46.301 63.7578 46.4404C63.7014 46.5703 63.645 46.7051 63.626 46.8604C63.6165 46.938 63.6146 47.0239 63.6143 47.1152C63.614 47.1954 63.6148 47.2803 63.6104 47.3682C63.6062 47.4503 63.5642 47.6281 63.5166 47.8594C63.4871 48.0023 63.4554 48.1659 63.4277 48.3389C63.408 48.7636 63.3995 49.191 63.3984 49.6221C63.3984 49.66 63.3984 49.6981 63.3984 49.7363C63.4086 49.7788 63.4219 49.819 63.4355 49.8564C63.5318 49.822 63.6462 49.8186 63.7207 49.8164C63.7229 49.8163 63.7253 49.8165 63.7275 49.8164C63.7569 49.8154 63.7839 49.8107 63.8154 49.8047C63.8914 49.79 63.9927 49.7703 64.2188 49.79C64.2788 49.7722 64.3401 49.7556 64.4014 49.7402C65.0556 49.5761 65.7353 49.5029 66.4199 49.4482C66.4279 49.4456 66.4361 49.4431 66.4443 49.4404C66.6061 49.387 66.8071 49.3206 66.9453 49.3291C67.1216 49.3398 67.2458 49.3591 67.3467 49.3779C67.8917 49.335 68.4326 49.2828 68.9629 49.1826C69.129 49.1512 69.2946 49.1151 69.458 49.0732C69.6083 49.0348 69.7575 48.9925 69.9062 48.9473C69.9875 48.9004 70.0636 48.8503 70.1338 48.8037C70.2324 48.7381 70.3215 48.6789 70.3984 48.6475C70.5838 48.5718 70.8134 48.5574 70.9834 48.5469C71.0111 48.5452 71.0374 48.5438 71.0615 48.542C71.1854 48.4939 71.3115 48.4442 71.4355 48.3945C71.4465 48.4016 71.4575 48.4093 71.4688 48.417C71.6101 48.5137 71.7458 48.4777 71.958 48.4209C72.0503 48.3962 72.1564 48.3673 72.2861 48.3438C72.369 48.3289 72.4234 48.3679 72.4678 48.3994C72.4808 48.4087 72.4931 48.4173 72.5049 48.4238C72.5454 48.4462 72.5711 48.404 72.6016 48.3545C72.6405 48.2904 72.6902 48.2133 72.7881 48.2471C72.7972 48.2502 72.8067 48.2512 72.8154 48.2539C72.8195 47.9137 72.8308 47.5543 72.8584 47.208C72.8863 46.8655 72.9376 46.4502 72.9873 46.0684C72.9901 46.0461 72.9924 46.0239 72.9951 46.002C73.0701 45.4156 73.1399 44.8681 73.1211 44.5957C73.0882 44.1071 73.1216 43.5594 73.1484 43.0664C73.1742 42.601 73.1924 42.196 73.1465 41.9727C73.1191 41.8401 73.1093 41.7172 73.1055 41.5947C73.1044 41.4969 73.097 41.3607 73.1064 41.3428H73.1182C73.0536 41.1377 72.9675 40.8874 72.8203 40.5791C72.6317 40.1869 72.5005 39.9137 72.3809 39.6895C72.2125 39.3799 72.0599 39.1423 71.7598 38.9619C71.6386 38.8916 71.5193 38.8384 71.418 38.8076C71.2272 38.7492 70.9309 38.6712 70.7178 38.6045C70.5591 38.5548 70.3704 38.5162 70.1768 38.4873C69.9197 38.4486 69.6534 38.4275 69.4219 38.4062C69.2308 38.3886 69.0773 38.3564 68.9414 38.3379C68.8989 38.3322 68.859 38.3281 68.8203 38.3262C68.7771 38.337 68.7351 38.3498 68.6953 38.3633ZM92.5693 44.7148C92.723 44.6644 92.8893 44.8453 92.9531 44.9502C92.9544 44.952 92.9558 44.9542 92.957 44.9561C92.9732 44.9806 92.9908 45.0011 93.0107 45.0254C93.056 45.0823 93.1283 45.1702 93.1611 45.3711C93.1907 45.4166 93.2168 45.4633 93.2383 45.5098C93.4643 46.0302 93.3199 46.424 93.1338 46.707C93.1333 46.7111 93.1323 46.7155 93.1318 46.7197C93.1228 46.8019 93.0999 46.9091 93.0332 46.9551C92.9489 47.0134 92.8759 47.0413 92.8135 47.0625C92.6019 47.2314 92.2578 47.543 91.6816 47.4805C91.5361 47.4595 91.4128 47.4118 91.3125 47.3584C91.3082 47.356 91.3042 47.3529 91.2998 47.3506C91.2607 47.3298 91.2205 47.3108 91.1777 47.292C91.1421 47.2993 91.1031 47.3101 91.0664 47.3184C91.0151 47.3303 90.9661 47.3378 90.9365 47.3291C90.8659 47.3087 90.8308 47.2201 90.8105 47.1543C90.8072 47.1437 90.8046 47.1331 90.8018 47.124C90.7557 47.0991 90.709 47.0723 90.6611 47.04C90.6664 47.0313 90.6729 47.0228 90.6787 47.0137C90.7526 46.8991 90.722 46.8617 90.6738 46.7852C90.6537 46.7528 90.6291 46.7107 90.6143 46.6543C90.6045 46.6171 90.6458 46.5799 90.6797 46.5518C90.685 46.5472 90.6896 46.5422 90.6943 46.5381C90.6915 46.546 90.6889 46.555 90.6855 46.5635C90.6726 46.5954 90.6638 46.6307 90.7012 46.6416C90.7093 46.6435 90.7458 46.6352 90.791 46.623C90.8235 46.6143 90.8611 46.604 90.8955 46.5947C90.9065 46.6184 90.9206 46.6426 90.9375 46.666C90.9336 46.6695 90.9298 46.6731 90.9258 46.6768L90.8574 46.7432C90.7928 46.8134 90.752 46.8864 90.8398 46.8809C90.8691 46.8783 90.9112 46.8567 90.9482 46.8369C90.9845 46.8177 91.0164 46.7995 91.0283 46.8018C91.0418 46.8045 91.0319 46.831 91.0225 46.8604C91.0089 46.9012 90.9977 46.9499 91.043 46.9385C91.046 46.9376 91.0494 46.9365 91.0527 46.9355C91.0846 46.9268 91.1317 46.9128 91.2012 46.8613C91.2673 46.8855 91.3339 46.8946 91.3936 46.8916C91.4944 46.8869 91.5713 46.8471 91.6162 46.7988C91.639 46.7763 91.6583 46.6719 91.667 46.5039C91.67 46.6781 91.6841 46.7837 91.6953 46.8018C91.7172 46.8385 91.757 46.8727 91.8184 46.8848C91.8918 46.8999 92.0055 46.8773 92.1064 46.7832C92.1761 46.7187 92.2387 46.6261 92.2734 46.5264C92.277 46.5162 92.2801 46.5054 92.2832 46.4951C92.3738 46.4387 92.4482 46.3574 92.4746 46.2979C92.4967 46.2485 92.4653 46.2111 92.4375 46.1846C92.4182 46.1663 92.4007 46.1519 92.4023 46.1367C92.4033 46.1287 92.4061 46.1172 92.4092 46.1045C92.423 46.0518 92.4339 45.9593 92.3584 45.9287C92.3256 45.9157 92.2682 45.9135 92.2168 45.9209C92.142 45.93 92.079 45.9558 92.0928 45.9395C92.1165 45.9106 92.0842 45.9177 92.0596 45.9297C92.0356 45.9404 92.018 45.954 92.0469 45.9248C92.0812 45.8898 92.0641 45.9003 92.042 45.9199C92.0266 45.9334 92.0088 45.9513 92.002 45.959C91.9941 45.9676 91.9729 45.9947 91.9561 46.0186C91.932 46.0521 91.9164 46.0799 91.9531 46.0361C91.9936 45.9875 92.0184 45.9556 92.0107 45.9736C92.0072 45.9822 92.0097 45.9814 92.0127 45.9805C92.0166 45.9793 92.0198 45.9779 92.0117 45.999C92.0054 46.0156 91.988 46.0557 91.9717 46.0928C91.9699 46.0946 91.9676 46.0959 91.9658 46.0977C91.956 46.1075 91.9466 46.1175 91.9385 46.126C91.9263 46.1195 91.9129 46.113 91.8984 46.1064C91.8985 46.0984 91.8986 46.0893 91.8984 46.0801C91.8969 46.0331 91.8864 45.9732 91.8564 45.9404C91.808 45.8886 91.7436 45.9133 91.6943 45.9473C91.6862 45.9527 91.6776 45.9574 91.6699 45.9629C91.6716 46.1538 91.6768 46.334 91.6699 46.4805C91.6696 46.4884 91.6674 46.4962 91.667 46.5039C91.6669 46.4992 91.6671 46.4941 91.667 46.4893C91.6644 46.342 91.6671 46.1587 91.6689 45.9639C91.6394 45.9851 91.6126 46.0057 91.5801 46.0098C91.5516 46.0133 91.5167 46.0066 91.4824 46.0029C91.4308 45.9975 91.383 45.9967 91.376 46.0254C91.3733 46.0362 91.3881 46.0635 91.4033 46.0898V46.0908C91.4043 46.0925 91.4053 46.0941 91.4062 46.0957C91.3589 46.1067 91.3198 46.1146 91.2832 46.1201C91.2758 46.1175 91.2681 46.1156 91.2607 46.1133C91.2241 46.1019 91.188 46.0914 91.1406 46.0723C91.0891 46.0514 91.0502 46.0545 91.0107 46.0596C90.9848 46.0629 90.9584 46.0673 90.9258 46.0674C90.907 46.0676 90.9337 46.0838 90.9619 46.0996C90.988 46.1144 91.0156 46.1289 91.0078 46.1318C91.0034 46.1332 90.9897 46.1317 90.9756 46.1309C90.9632 46.1302 90.9498 46.1298 90.9414 46.1309C90.9343 46.1321 90.949 46.1428 90.9678 46.1553C90.9796 46.1631 90.9928 46.172 91.0039 46.1797C90.9822 46.19 90.9611 46.2031 90.9424 46.2188C90.9151 46.2198 90.8799 46.2201 90.835 46.2197C90.8025 46.2195 90.7633 46.2181 90.7236 46.2178C90.6847 46.2174 90.6444 46.2185 90.6084 46.2197C90.5822 46.1959 90.5451 46.1753 90.5107 46.1514C90.484 46.1341 90.4596 46.117 90.4473 46.0996C90.4073 46.0427 90.4647 45.9654 90.5381 45.9248C90.595 45.8926 90.5767 45.7949 90.5576 45.6982C90.55 45.6623 90.5683 45.6258 90.5928 45.5859C90.6182 45.5445 90.6508 45.4981 90.6699 45.4365C90.7219 45.2786 90.7718 45.2043 90.8076 45.1465C90.8184 45.13 90.8293 45.1147 90.8398 45.0996C90.8712 45.053 90.9204 45.0037 90.9678 44.9609C91.0255 44.909 91.0846 44.8635 91.126 44.8193C91.2662 44.8052 91.3892 44.8223 91.4912 44.8496C91.545 44.8642 91.5973 44.9729 91.6289 45.1543C91.6615 45.3362 91.6722 45.5745 91.6719 45.8213C91.6715 45.5791 91.682 45.3441 91.7207 45.1631C91.7594 44.9827 91.8185 44.8718 91.8877 44.8545C91.9932 44.8259 92.12 44.8107 92.2607 44.8232C92.2693 44.8212 92.2777 44.8188 92.2861 44.8174C92.3496 44.8068 92.4246 44.7672 92.5098 44.7354C92.5292 44.7281 92.5495 44.721 92.5693 44.7148ZM90.6992 46.5049C90.7145 46.5091 90.7201 46.5149 90.7061 46.5283C90.7027 46.5316 90.6984 46.5345 90.6943 46.5381C90.6988 46.5255 90.7018 46.5146 90.6992 46.5049ZM90.624 46.4434C90.6519 46.4608 90.6807 46.4772 90.6953 46.4941C90.698 46.4973 90.6983 46.5012 90.6992 46.5049C90.6873 46.5016 90.6697 46.4987 90.6504 46.4961C90.5936 46.4897 90.5226 46.4716 90.5684 46.417C90.5705 46.4147 90.5722 46.4114 90.5742 46.4092C90.5877 46.4206 90.6058 46.432 90.624 46.4434ZM90.6084 46.2197C90.6519 46.2594 90.6632 46.3095 90.5742 46.4092C90.5582 46.3956 90.5487 46.3818 90.5518 46.3701C90.5565 46.3511 90.5471 46.3298 90.5381 46.3086C90.53 46.2896 90.5223 46.2702 90.5254 46.2539C90.5263 46.2495 90.5493 46.2467 90.5674 46.2451C90.5787 46.2441 90.5886 46.2432 90.5889 46.2422C90.5888 46.2408 90.5772 46.239 90.5645 46.2373C90.553 46.2358 90.5399 46.2344 90.5332 46.2324C90.5192 46.2283 90.5335 46.2232 90.5684 46.2207C90.5809 46.2198 90.5944 46.2202 90.6084 46.2197ZM4.81348 35.4746C4.85898 35.4936 4.87605 35.517 4.8877 35.5303C4.90877 35.5577 4.91178 35.5672 4.91699 35.5752C4.96154 35.6334 4.98214 35.5962 5.01367 35.6035C5.07261 35.6007 5.13064 35.5973 5.18652 35.5947C5.29806 35.5889 5.40231 35.585 5.49414 35.585C5.67771 35.5849 5.79484 35.601 5.82715 35.6348C5.87911 35.6891 5.93345 35.747 5.98438 35.8057C5.98995 35.8082 5.99585 35.8108 6.00098 35.8135C6.03923 35.8339 6.11019 35.8451 6.18164 35.8564C6.19809 35.859 6.21537 35.8615 6.23145 35.8643C6.35303 35.8847 6.32277 35.9758 6.30664 36.0273L6.30566 36.0303C6.30188 36.0419 6.302 36.0522 6.30273 36.0645C6.30473 36.0951 6.30703 36.1343 6.25195 36.2324C6.25945 36.2551 6.26632 36.2785 6.27148 36.3027C6.27634 36.3256 6.28049 36.3497 6.28418 36.374L6.25391 36.2578C6.31541 36.5088 6.30481 36.7822 6.27734 37.0596C6.27894 37.0629 6.28058 37.0669 6.28223 37.0703C6.31403 37.1355 6.35312 37.2159 6.32812 37.2812C6.29614 37.3638 6.26102 37.424 6.23047 37.4736C6.20368 37.7162 6.18481 37.9561 6.21094 38.1836C6.219 38.2544 6.23199 38.3254 6.25 38.3936C6.26691 38.4575 6.28734 38.5197 6.31055 38.582C6.34442 38.6125 6.38276 38.6398 6.41797 38.666C6.46757 38.7027 6.51169 38.7357 6.53125 38.7676C6.57793 38.8431 6.55846 38.9472 6.54395 39.0254C6.54155 39.0381 6.53896 39.0506 6.53711 39.0615C6.56551 39.1136 6.59544 39.1657 6.625 39.2188C6.61643 39.2247 6.60687 39.2312 6.59766 39.2373C6.48306 39.3131 6.4978 39.3718 6.51953 39.4648C6.52909 39.5059 6.53907 39.5527 6.54102 39.6113C6.54191 39.6486 6.49593 39.6771 6.45801 39.7002C6.44685 39.707 6.43602 39.7128 6.42773 39.7188C6.39941 39.7391 6.43643 39.7479 6.47949 39.7588C6.53528 39.7726 6.6023 39.7925 6.55273 39.8398C6.39461 39.9917 6.52276 40.0257 6.62109 40.0557C6.64985 40.0646 6.67621 40.073 6.69141 40.083C6.74052 40.1146 6.70412 40.1779 6.64844 40.2256C6.62179 40.2496 6.63152 40.2822 6.65723 40.3145C6.65936 40.3182 6.65628 40.3319 6.6582 40.3359C6.67417 40.3552 6.69788 40.3745 6.72266 40.3916C6.74622 40.4079 6.74807 40.432 6.75 40.46C6.752 40.489 6.75415 40.5228 6.78125 40.5576C6.84934 40.6453 6.88203 40.6926 6.9082 40.7305C6.91563 40.7412 6.92266 40.7517 6.92969 40.7617C6.95202 40.7936 6.97064 40.8339 6.98926 40.874C7.01149 40.9219 7.03413 40.9703 7.06348 41.0068C7.03384 41.1031 6.99574 41.1975 6.95801 41.29C6.93807 41.3375 6.82775 41.383 6.64551 41.416C6.46279 41.4491 6.22445 41.4668 5.97754 41.4668C5.73074 41.4668 5.49231 41.4488 5.30957 41.416C5.12692 41.3832 5.01584 41.3386 4.99609 41.293C4.95681 41.2011 4.91699 41.1109 4.88477 41.0225C4.84549 40.9145 4.81712 40.809 4.81348 40.7051C4.81096 40.6324 4.81284 40.5601 4.81934 40.4883C4.82 40.4809 4.82152 40.4732 4.82227 40.4658C4.81613 40.4604 4.80973 40.4546 4.80371 40.4492L4.80566 40.4785C4.74852 40.4422 4.69664 40.4041 4.6748 40.374C4.65512 40.3473 4.68427 40.3196 4.70898 40.2969C4.72596 40.2809 4.74088 40.266 4.73633 40.2539C4.73387 40.2474 4.7288 40.2386 4.72266 40.2285C4.69754 40.1869 4.65384 40.1152 4.69824 40.0322C4.71793 39.9942 4.76168 39.947 4.80273 39.8994C4.86184 39.8337 4.91571 39.7686 4.89062 39.748C4.84637 39.7107 4.86505 39.6534 4.88086 39.6016C4.89594 39.5523 4.9084 39.51 4.86328 39.4971C4.80944 39.4815 4.82465 39.4551 4.8457 39.415C4.86021 39.3875 4.87715 39.3536 4.87793 39.3135C4.8786 39.2663 4.90484 39.226 4.92676 39.1924C4.95753 39.145 4.97987 39.1081 4.91406 39.0801C4.84101 39.0485 4.78965 39.0092 4.79883 38.9658C4.80311 38.9459 4.79584 38.9259 4.78809 38.9053C4.77793 38.8784 4.76731 38.85 4.78223 38.8174C4.79457 38.7905 4.83535 38.7592 4.87207 38.7324C4.88347 38.7241 4.89484 38.7165 4.9043 38.709C4.89903 38.6916 4.89381 38.6736 4.8877 38.6562C4.87947 38.6554 4.86972 38.6552 4.86035 38.6543C4.81346 38.6499 4.75607 38.6445 4.72363 38.6279C4.67218 38.6016 4.68915 38.561 4.70703 38.5186C4.72098 38.4857 4.7347 38.4514 4.71777 38.4209C4.70616 38.4 4.68084 38.3801 4.65527 38.3604C4.61731 38.3312 4.57993 38.3015 4.58984 38.2715C4.59368 38.2602 4.62091 38.2428 4.64746 38.2266C4.64909 38.2256 4.65072 38.2246 4.65234 38.2236C4.61272 38.1676 4.57079 38.1125 4.52734 38.0576C4.51848 38.0544 4.50964 38.0511 4.50098 38.0479C4.45803 38.0314 4.41579 38.0153 4.3623 38.0127C4.30462 38.0099 4.26085 37.9734 4.21484 37.9355C4.18464 37.9106 4.15316 37.8851 4.11621 37.8672C4.09458 37.8567 4.1202 37.8326 4.14648 37.8086C4.17081 37.7864 4.19603 37.7636 4.18457 37.75C4.1786 37.7432 4.16331 37.7386 4.14746 37.7334C4.13348 37.7288 4.11857 37.7235 4.1084 37.7168C4.09925 37.7104 4.10955 37.6874 4.12305 37.6582C4.13148 37.6399 4.14178 37.6186 4.14844 37.5977C4.1162 37.5571 4.08398 37.5174 4.05371 37.4766C4.02483 37.4749 3.98857 37.476 3.94336 37.4824C3.9108 37.4871 3.87229 37.4946 3.83301 37.502C3.77971 37.5119 3.72467 37.5225 3.67969 37.5273C3.64462 37.5311 3.6286 37.5276 3.64062 37.5186C3.64639 37.5143 3.65843 37.5088 3.66895 37.5039C3.68095 37.4983 3.69135 37.4931 3.69043 37.4912C3.68854 37.4903 3.67938 37.4918 3.66895 37.4932C3.65087 37.4954 3.62753 37.4977 3.625 37.4922C3.61569 37.4716 3.61555 37.445 3.61523 37.4189C3.61486 37.3896 3.61457 37.3607 3.60156 37.3418C3.58705 37.3207 3.61012 37.2771 3.63281 37.2334C3.64851 37.2033 3.66367 37.1732 3.66699 37.1504C3.67014 37.128 3.64594 37.1129 3.62207 37.0986C3.61153 37.0923 3.60061 37.0859 3.59277 37.0791C3.59685 37.0548 3.55534 36.9838 3.56152 36.96C3.54894 36.9459 3.54469 36.9314 3.56055 36.9141C3.56567 36.9085 3.60101 36.8953 3.64551 36.8789C3.67702 36.8673 3.71311 36.8541 3.74609 36.8408C3.74027 36.8135 3.73617 36.7859 3.7334 36.7588C3.72821 36.7589 3.72219 36.7587 3.7168 36.7588C3.59525 36.7603 3.42996 36.765 3.51562 36.7012C3.53761 36.6852 3.58105 36.6687 3.62012 36.6543C3.65849 36.6401 3.69342 36.6278 3.69922 36.6182C3.70531 36.6074 3.6789 36.601 3.65039 36.5947C3.60992 36.5859 3.56473 36.5765 3.59961 36.5498C3.60187 36.5481 3.60399 36.5458 3.60645 36.5439C3.63117 36.5248 3.66854 36.4985 3.74609 36.4619C3.75658 36.4 3.77113 36.3348 3.78809 36.2705C3.81648 36.1636 3.85172 36.0527 3.88867 35.9395C3.90697 35.8837 4.01201 35.8147 4.1875 35.7529C4.2754 35.7221 4.37748 35.695 4.4873 35.6729C4.54209 35.6614 4.59898 35.6516 4.65723 35.6436C4.68638 35.6393 4.71636 35.6361 4.74609 35.6318C4.73141 35.6228 4.68991 35.6338 4.66211 35.6318C4.64709 35.6317 4.63208 35.6314 4.61719 35.6279C4.60985 35.6254 4.6015 35.6252 4.5957 35.6104C4.60391 35.5956 4.55413 35.6102 4.64844 35.499C4.67831 35.4682 4.76978 35.4518 4.81348 35.4746ZM26.1816 0C26.424 0.00207174 26.6578 0.112422 26.8389 0.3125C27.0197 0.509624 27.1312 0.780683 27.1562 1.05664C27.1964 1.5122 27.2366 1.96948 27.2734 2.42285C27.2783 2.44659 27.2837 2.47092 27.2881 2.49512C27.3209 2.6746 27.3878 2.84106 27.4551 3.00293C27.4705 3.04026 27.4859 3.07874 27.501 3.11719C27.6153 3.40475 27.565 3.97177 27.5371 4.27051C27.5367 4.27605 27.5356 4.28155 27.5352 4.28711C27.5285 4.35975 27.5266 4.4343 27.5244 4.51074C27.5195 4.6845 27.5128 4.91517 27.4521 5.37695C27.4466 5.41711 27.441 5.45939 27.4346 5.50391C27.4363 5.65777 27.4365 5.82517 27.4355 5.97852C27.425 7.68055 27.3181 9.38717 27.1914 11.0918C27.1919 11.1132 27.1919 11.1352 27.1924 11.1572C27.2016 11.5863 27.2135 12.1144 27.1689 12.4482C27.1123 12.8696 27.0603 13.16 27.0156 13.3945C26.9135 14.7488 26.8205 16.1019 26.7764 17.4561C26.7625 17.8808 26.7541 18.3041 26.751 18.7295C26.7481 19.1193 26.749 19.5123 26.7529 19.9014C26.7765 20.13 26.8048 20.3469 26.8311 20.5469C26.868 20.8286 26.9004 21.0821 26.9102 21.2881C26.9335 21.7888 26.8861 22.3568 26.8506 22.7754C26.8448 22.8429 26.8388 22.9086 26.834 22.9688C26.847 23.3052 26.8615 23.6378 26.876 23.9736C26.8662 23.9957 26.8562 24.0184 26.8457 24.041C26.7146 24.3224 26.7126 24.6738 26.71 25.2285C26.7088 25.4665 26.7077 25.7492 26.6953 26.0742C26.6873 26.2812 26.6353 26.3964 26.5928 26.4834C26.5803 26.5094 26.5681 26.534 26.5586 26.5586C26.5262 26.6432 26.5593 26.7303 26.5986 26.8369C26.6497 26.9771 26.7115 27.1439 26.6523 27.3564C26.6495 27.3666 26.6463 27.3767 26.6436 27.3867C26.4666 28.0615 26.5847 28.3568 26.6738 28.5879C26.7003 28.6568 26.7243 28.7187 26.7373 28.7812C26.7794 28.9791 26.7312 29.2795 26.668 29.4932C26.6179 29.6707 26.6611 30.0188 26.7178 30.2812C26.7285 30.3301 26.7333 30.39 26.7354 30.457V30.9404C26.7373 31.0339 26.7428 31.133 26.7539 31.2373C26.8101 31.7541 26.8358 32.0267 26.8564 32.25C26.8623 32.3135 26.8674 32.3716 26.873 32.4287C26.8906 32.6197 26.904 32.845 26.916 33.0811C26.9304 33.3603 26.9432 33.6449 26.9648 33.8623C26.9156 34.4075 26.8626 34.948 26.7637 35.5361C26.7597 35.5594 26.755 35.5821 26.751 35.6045C26.6954 55.915 26.5345 36.2346 26.2686 36.4619C25.9943 36.6992 25.7165 36.6693 25.502 36.5566C25.2811 36.4434 25.1369 36.2182 24.998 36.0488C24.8646 35.8721 24.7919 35.6433 24.8018 35.3818C24.8025 35.3631 24.803 35.343 24.8037 35.3232C24.8193 34.8236 24.8004 34.2765 24.7891 33.7334C24.7732 33.0435 24.7618 32.3466 24.7744 31.6514C24.7831 31.1648 24.796 30.6777 24.8135 30.1895C24.8153 30.14 24.8175 30.0895 24.8193 30.0391C24.7642 29.6269 24.7134 29.2211 24.6973 28.9268C24.6838 28.6954 24.7186 28.5123 24.748 28.3682C24.7683 28.2678 24.7868 28.1775 24.7852 28.085C24.7843 28.036 24.781 27.965 24.7773 27.8857C24.7711 27.75 24.7632 27.5715 24.7607 27.3672C24.7572 27.0984 24.7644 26.7731 24.8018 26.4805C24.8304 26.2503 24.8846 25.9899 24.9365 25.7363C25.0108 25.3727 25.0802 25.0406 25.0615 24.8672C25.0286 24.5734 25.0615 24.2239 25.0908 23.9258C25.1188 23.6366 25.1435 23.3833 25.1035 23.2402C25.0559 23.0694 25.077 22.9188 25.1084 22.7041C25.1302 22.5543 25.1568 22.3698 25.1689 22.1162C25.183 21.8279 25.2193 21.6218 25.25 21.4463C25.2932 21.2009 25.3253 21.0176 25.2705 20.7402C25.2095 20.4334 25.1715 20.1134 25.1934 19.8604C25.1983 19.8033 25.2004 19.7418 25.2012 19.6777V19.2021C25.2035 19.1101 25.2097 19.0191 25.2217 18.9326C25.2415 18.7899 25.2898 18.6718 25.333 18.5674C25.3465 18.5348 25.3598 18.503 25.3711 18.4727C25.3713 18.3582 25.3707 18.2448 25.3701 18.1309C25.3625 18.1124 25.3544 18.0926 25.3457 18.0723C25.3022 17.9703 25.2486 17.8446 25.2227 17.6895C25.2198 17.6725 25.219 17.6554 25.2168 17.6387C25.1275 17.6698 25.0382 17.6993 24.9482 17.7236C24.7286 17.7834 24.5115 17.829 24.3008 17.8662C24.2839 17.8692 24.267 17.8721 24.25 17.875C24.2453 17.8758 24.24 17.8771 24.2354 17.8779C24.0747 17.9765 23.9138 18.068 23.7969 18.1133C23.7006 18.1505 23.6213 18.1341 23.5537 18.1201C23.507 18.1105 23.4654 18.1017 23.4277 18.1123C23.4075 18.118 23.3805 18.1281 23.3477 18.1396C23.2138 18.1867 22.9873 18.2657 22.7646 18.252C22.6659 18.2458 22.5468 18.2179 22.4336 18.1914C22.2716 18.1536 22.1211 18.1194 22.0566 18.1543C21.9434 18.2156 21.7987 18.2169 21.6719 18.2188C21.6114 18.2196 21.5549 18.2201 21.5078 18.2275C21.4664 18.2379 21.4322 18.2527 21.4092 18.2764C21.3436 18.3434 21.2705 18.3404 21.1689 18.333C21.0979 18.328 21.0073 18.322 20.8975 18.334C20.7673 18.3484 20.6699 18.3316 20.5898 18.3164C20.4756 18.2952 20.3899 18.278 20.2812 18.3535C20.1575 18.4379 20.0269 18.4981 19.9141 18.4941C19.8627 18.4924 19.8066 18.5034 19.749 18.5137C19.6721 18.5273 19.5892 18.5412 19.5107 18.5283C19.4478 18.5175 19.3916 18.476 19.3418 18.4395C19.3263 18.4281 19.3112 18.4167 19.2969 18.4072C19.2484 18.4137 19.1982 18.4208 19.1504 18.4277C19.1435 18.4363 19.1355 18.4454 19.1279 18.4551C19.0899 18.504 19.043 18.5644 18.9795 18.5986C18.8781 18.6529 18.7835 18.6356 18.6836 18.6172C18.6061 18.6028 18.5235 18.5878 18.4355 18.6045C18.3751 18.616 18.307 18.6424 18.2393 18.668C18.1382 18.7061 18.0402 18.7434 17.9678 18.7314C17.9409 18.7268 17.9155 18.6987 17.8906 18.6709V18.6699C17.8889 18.668 17.8874 18.6659 17.8857 18.6641C17.7162 18.7012 17.5452 18.7402 17.376 18.7793C17.3618 18.788 17.3472 18.7972 17.333 18.8057C17.2631 18.8474 17.1951 18.8879 17.1523 18.9414C17.106 18.9996 16.9823 19.04 16.8516 19.082C16.7658 19.1096 16.6771 19.138 16.6055 19.1729C16.5637 19.193 16.5212 19.1642 16.4775 19.1348C16.4368 19.1073 16.3948 19.0789 16.3516 19.0889C16.3298 19.0939 16.3068 19.1089 16.2822 19.124C16.2608 19.1373 16.2379 19.151 16.2139 19.1602C16.1914 19.1687 16.1395 19.1547 16.0732 19.1367C16.0322 19.1256 15.9852 19.1124 15.9365 19.1025C15.8104 19.1283 15.6842 19.1537 15.5576 19.1768C15.5324 19.2051 15.5103 19.2411 15.4941 19.2871C15.4825 19.3202 15.4735 19.3602 15.4639 19.4004C15.4508 19.4549 15.4371 19.5113 15.417 19.5566C15.4012 19.5922 15.3808 19.6075 15.3662 19.5938C15.3595 19.5874 15.3546 19.5747 15.3496 19.5635C15.3439 19.5507 15.3385 19.5387 15.333 19.5391C15.329 19.5395 15.325 19.5491 15.3203 19.5605C15.3129 19.5788 15.3032 19.6027 15.2871 19.6045C15.2264 19.6102 15.1565 19.6052 15.0889 19.6006C15.0144 19.5954 14.9398 19.5905 14.8818 19.5996C14.8164 19.6099 14.723 19.579 14.6279 19.5479C14.5615 19.5261 14.4945 19.504 14.4385 19.4961C14.3836 19.4885 14.3278 19.5099 14.2725 19.5303C14.2066 19.5547 14.1436 19.5783 14.0889 19.5498C14.0778 19.544 14.0632 19.5064 14.0449 19.46C14.032 19.4272 14.0166 19.3899 14 19.3555C13.9308 19.3575 13.8615 19.3574 13.793 19.3564C13.7907 19.3616 13.7875 19.3677 13.7852 19.373C13.7322 19.4938 13.6599 19.6583 13.5479 19.5645C13.5195 19.5404 13.5001 19.4949 13.4834 19.4541C13.4671 19.4141 13.4528 19.3782 13.4326 19.3711C13.4097 19.3631 13.3838 19.3884 13.3555 19.416C13.3147 19.4549 13.268 19.4984 13.2207 19.46C13.2175 19.4574 13.2145 19.454 13.2109 19.4512C13.1767 19.4239 13.1256 19.3841 13.0752 19.3018C12.9263 19.2825 12.7841 19.2584 12.6338 19.2324C12.4339 19.1963 12.2268 19.1538 12.0244 19.1113C12.0228 19.2519 12.0198 19.3928 12.0195 19.5332C12.0404 19.7146 12.0669 19.8893 12.0908 20.0498C12.1244 20.2753 12.1539 20.4765 12.1611 20.6426C12.1787 21.0408 12.1243 21.4925 12.084 21.8281C12.0774 21.883 12.0719 21.9347 12.0664 21.9824C12.0757 22.2478 12.0859 22.5187 12.0967 22.7842C12.0866 22.8016 12.0761 22.8191 12.0654 22.8369C11.931 23.0631 11.9258 23.339 11.917 23.7832C11.9132 23.9743 11.9085 24.1972 11.8926 24.459C11.8822 24.6264 11.8286 24.71 11.7852 24.7812C11.7724 24.8018 11.7607 24.8213 11.751 24.8408C11.7175 24.9082 11.7498 24.9815 11.7881 25.0664C11.8378 25.1756 11.8974 25.3094 11.8359 25.4824C11.6403 26.0285 11.7566 26.2721 11.8447 26.4639C11.8706 26.5191 11.8948 26.5689 11.9072 26.6191C11.9474 26.778 11.8961 27.0172 11.8311 27.1865C11.8217 27.2111 11.8153 27.2403 11.8115 27.2725C11.7943 27.4284 11.8295 27.6387 11.874 27.8164C11.8946 27.8982 11.8926 28.0066 11.8896 28.1299C11.8864 28.2646 11.8825 28.4153 11.9033 28.5771C11.9558 28.9928 11.9798 29.2073 11.999 29.3896C12.0045 29.4404 12.0094 29.4874 12.0146 29.5332C12.0311 29.6834 12.043 29.8629 12.0537 30.0547C12.0669 30.2751 12.0793 30.5107 12.1006 30.6807C12.0477 31.1376 11.9907 31.5787 11.8945 32.0811C11.842 32.3403 11.6852 32.6399 11.3838 32.8584C11.0703 33.0737 10.8169 32.9536 10.6289 32.8047C10.4353 32.6522 10.3264 32.4055 10.1709 32.2959C10.0221 32.1885 9.94208 32.0455 9.94629 31.8438C9.95339 31.4465 9.93624 30.9871 9.92578 30.5381C9.91212 29.9858 9.90356 29.4356 9.9209 28.876C9.93274 28.4906 9.95018 28.0998 9.97168 27.709C9.97395 27.6668 9.97623 27.6294 9.97852 27.5898C9.95898 27.4684 9.94024 27.3438 9.92383 27.2217C9.89635 27.0316 9.87466 26.8436 9.86621 26.7002C9.85501 26.5133 9.89191 26.3735 9.92285 26.2529C9.94403 26.1734 9.96268 26.1022 9.96191 26.0293C9.96149 25.9901 9.95884 25.9364 9.95605 25.8711C9.94463 25.6048 9.92533 25.1569 9.99512 24.748C10.0262 24.5635 10.083 24.3597 10.1377 24.1562C10.2159 23.8695 10.2883 23.6036 10.2715 23.4648C10.2418 23.2296 10.2789 22.9519 10.3115 22.7139C10.3427 22.4858 10.3703 22.2811 10.332 22.167C10.2863 22.0298 10.3089 21.9136 10.3428 21.7402C10.3664 21.6188 10.3951 21.4733 10.4102 21.2725C10.4275 21.0403 10.4663 20.8765 10.499 20.7383C10.545 20.5439 10.58 20.3946 10.5283 20.1748C10.4709 19.9296 10.4371 19.6715 10.4619 19.4717C10.4732 19.3804 10.4733 19.2753 10.4736 19.166C10.4741 19.0212 10.474 18.8695 10.5 18.7314C10.5215 18.6177 10.5718 18.524 10.6162 18.4414C10.63 18.4157 10.6436 18.3911 10.6553 18.3672C10.6568 18.2762 10.6584 18.1848 10.6592 18.0938C10.6518 18.0789 10.6432 18.0632 10.6348 18.0469C10.5925 17.9647 10.5407 17.8634 10.5166 17.7393C10.4785 17.5427 10.5092 17.3715 10.542 17.1914C10.5675 17.0513 10.5941 16.9046 10.5898 16.7363C10.5869 16.6216 10.571 16.4908 10.5547 16.3613C10.5304 16.1678 10.5062 15.9768 10.5273 15.8457C10.5354 15.7967 10.5668 15.755 10.5977 15.7139L10.6045 15.7051C10.5892 15.3817 10.5708 15.0625 10.5518 14.7393C10.5447 14.7114 10.5381 14.6831 10.5312 14.6553C10.4978 14.5186 10.4646 14.3862 10.416 14.2979C10.3634 14.2022 10.3374 13.9672 10.3096 13.7188C10.2914 13.5549 10.2724 13.3866 10.2451 13.25C10.2292 13.1708 10.2621 13.0942 10.2959 13.0166C10.3274 12.9441 10.3601 12.8698 10.3545 12.7881C10.3516 12.7471 10.3398 12.7025 10.3271 12.6553C10.316 12.6135 10.3036 12.5707 10.2969 12.5234C10.2907 12.4799 10.3097 12.3841 10.334 12.2627C10.349 12.1875 10.3664 12.1024 10.3809 12.0137C10.3671 11.7737 10.3544 11.5373 10.3428 11.2988C10.3167 11.248 10.2818 11.2032 10.2373 11.168C10.2054 11.1428 10.167 11.1209 10.1279 11.0986C10.0746 11.0683 10.0191 11.0374 9.97559 10.9951C9.94152 10.962 9.92929 10.9235 9.94434 10.8984C9.95136 10.8868 9.96396 10.878 9.97559 10.8701C9.98882 10.8611 10.0008 10.8529 10.001 10.8428C10.0009 10.8354 9.99152 10.8271 9.98047 10.8174C9.96283 10.8017 9.93963 10.7807 9.93945 10.75C9.93904 10.6353 9.94972 10.5061 9.95996 10.3818C9.97127 10.2466 9.98292 10.1039 9.97852 9.99609C9.97356 9.8741 10.0122 9.70245 10.0508 9.52637C10.0777 9.40411 10.1039 9.28917 10.1162 9.18164C10.1282 9.07766 10.112 8.97014 10.0957 8.86816C10.076 8.74927 10.0572 8.62121 10.0898 8.52246C10.0968 8.50224 10.1352 8.47753 10.1826 8.44727C10.2163 8.4258 10.2545 8.40102 10.29 8.37305C10.2904 8.35639 10.2916 8.33979 10.292 8.32324C10.295 8.20794 10.2987 8.095 10.3037 7.98535C10.2988 7.98084 10.2932 7.97633 10.2881 7.97168L10.1973 7.88379C10.1078 7.78621 10.0369 7.65997 10.1133 7.51465C10.1392 7.46421 10.1857 7.42985 10.2275 7.40137C10.2686 7.37304 10.306 7.34806 10.3145 7.31055C10.324 7.26798 10.3001 7.21726 10.2744 7.16309C10.2383 7.08693 10.198 6.99434 10.2393 6.91016C10.242 6.90443 10.245 6.89798 10.248 6.8916C10.2775 6.83101 10.3216 6.73883 10.4072 6.64648C10.4357 6.3787 10.4682 6.0952 10.5029 5.8252C10.5611 5.36549 10.6257 4.91471 10.6904 4.45508C10.7222 4.23161 10.8409 4.02226 11.0264 3.86914C11.2122 3.71505 11.4483 3.63646 11.6904 3.63672C11.9329 3.64304 12.1651 3.73672 12.3438 3.89844C12.5222 4.06019 12.6308 4.27517 12.6523 4.5C12.687 4.86274 12.7217 5.22741 12.7529 5.5918C12.7575 5.61122 12.7625 5.63157 12.7666 5.65137C12.7974 5.78946 12.8624 5.92963 12.9277 6.05762C12.9427 6.088 12.9571 6.11911 12.9717 6.15039C13.0826 6.38001 13.0247 6.83322 12.9932 7.07129C12.9926 7.07579 12.9917 7.08045 12.9912 7.08496C12.9837 7.14366 12.9817 7.20105 12.9785 7.2627C12.9708 7.41406 12.96 7.62138 12.876 8.05371C12.8759 8.16068 12.8743 8.27059 12.8721 8.38281C12.8717 8.39928 12.8715 8.41603 12.8711 8.43262C12.8397 9.78948 12.7118 11.1533 12.5645 12.5088V13.1045C12.5601 13.2864 12.5497 13.459 12.5254 13.5908C12.4635 13.9307 12.408 14.1544 12.3604 14.3438C12.2605 15.2532 12.1692 16.161 12.1064 17.0703C12.22 17.0434 12.3346 17.0168 12.4492 16.9912C12.4588 16.9861 12.4688 16.9812 12.4785 16.9766C12.551 16.9414 12.6188 16.8712 12.6875 16.8018C12.7034 16.7859 12.7181 16.7703 12.7334 16.7549C12.85 16.6367 13.0836 16.679 13.2119 16.7021C13.2142 16.7025 13.2165 16.7028 13.2188 16.7031C13.2492 16.7086 13.2799 16.71 13.3125 16.7109C13.3907 16.7133 13.5025 16.7164 13.7275 16.7842C13.7927 16.7797 13.8589 16.7763 13.9248 16.7744C14.6316 16.7537 15.3436 16.8221 16.0557 16.8994C16.0643 16.8984 16.0731 16.8976 16.082 16.8965C16.2584 16.8749 16.4771 16.8472 16.6172 16.8809C16.7957 16.9237 16.918 16.9656 17.0186 17.002C17.5846 17.0561 18.1514 17.0924 18.709 17.0674C18.8853 17.0593 19.0578 17.0449 19.2305 17.0234C19.3885 17.0038 19.5469 16.979 19.7041 16.9492C19.7933 16.9108 19.8714 16.8686 19.9492 16.8281C20.0568 16.7716 20.1452 16.7212 20.2266 16.6953C20.4156 16.6344 20.64 16.6333 20.8057 16.6279C20.8322 16.6272 20.8573 16.6269 20.8799 16.626C20.9495 16.6002 21.0158 16.5735 21.0781 16.5469C21.0832 16.5445 21.0992 16.5423 21.1045 16.54C21.1644 16.5183 21.2253 16.4971 21.2852 16.4756C21.2966 16.4828 21.3085 16.4903 21.3203 16.498C21.4694 16.5959 21.6158 16.5611 21.8457 16.5088C21.9457 16.486 22.0613 16.4602 22.1992 16.4404C22.2882 16.4277 22.3443 16.468 22.3896 16.501C22.4029 16.5107 22.4156 16.5195 22.4277 16.5264C22.4694 16.5499 22.4988 16.5087 22.5342 16.46C22.58 16.3967 22.6352 16.3216 22.7363 16.3584C23.059 16.4762 23.1595 16.329 23.2344 16.2178C23.2563 16.1852 23.276 16.1556 23.2988 16.1367C23.3725 16.0756 23.4989 16.0933 23.6006 16.1328C23.6636 16.1572 23.7575 16.1156 23.8389 16.0566C23.862 16.04 23.8834 16.0212 23.9033 16.0029C23.9381 15.9715 23.9919 15.9586 24.0537 15.9434C24.1177 15.9276 24.1911 15.9096 24.2617 15.8652C24.4402 15.7527 24.5288 15.694 24.6006 15.6465C24.621 15.6329 24.6395 15.6203 24.6582 15.6074C24.7171 15.5668 24.7918 15.524 24.8662 15.4795C24.9552 15.4263 25.0444 15.3699 25.1074 15.3145C25.1426 15.3067 25.1773 15.2961 25.2129 15.2881C25.2249 15.2389 25.2482 15.194 25.2734 15.1504L25.2803 15.1396C25.2601 14.7371 25.2368 14.3334 25.2129 13.9316C25.2054 13.897 25.1987 13.8618 25.1914 13.8271C25.1559 13.6559 25.1211 13.4891 25.0713 13.3809C25.0172 13.2637 24.9867 12.9685 24.9551 12.6572C24.9344 12.4544 24.9131 12.2451 24.8838 12.0723C24.8667 11.9716 24.898 11.8765 24.9307 11.7793C24.9611 11.6884 24.9932 11.5962 24.9863 11.4922C24.9828 11.4405 24.9694 11.3845 24.9561 11.3252C24.9443 11.273 24.9323 11.2176 24.9248 11.1602C24.918 11.1062 24.9356 10.989 24.958 10.8359C24.9719 10.7406 24.9879 10.6322 25.001 10.5195C24.9835 10.2243 24.9665 9.92116 24.9512 9.62598C24.9244 9.56397 24.8898 9.51103 24.8447 9.4668C24.8125 9.43566 24.7738 9.40905 24.7344 9.38184C24.6805 9.3447 24.6243 9.30639 24.5801 9.25391C24.5456 9.21291 24.5322 9.16481 24.5469 9.13281C24.5537 9.118 24.5666 9.10697 24.5781 9.09668C24.5914 9.08483 24.6028 9.07353 24.6025 9.06055C24.6021 9.05129 24.5931 9.04119 24.582 9.0293C24.5642 9.01017 24.5408 8.98557 24.54 8.94824C24.5378 8.81051 24.5464 8.64257 24.5547 8.48633C24.564 8.31175 24.5735 8.1419 24.5674 8.00293C24.5607 7.84679 24.596 7.63874 24.6318 7.41406C24.6568 7.2605 24.6818 7.1098 24.6924 6.98145C24.7028 6.85048 24.6849 6.71602 24.667 6.58789C24.6455 6.43661 24.6251 6.28179 24.6562 6.15527C24.6627 6.12966 24.7 6.09785 24.7471 6.05859C24.7805 6.0307 24.8192 5.99912 24.8545 5.96289C24.8555 5.80575 24.8575 5.63478 24.8613 5.47754C24.8563 5.47192 24.8509 5.46575 24.8457 5.45996L24.7588 5.36035C24.6652 5.23591 24.5883 5.08073 24.6641 4.8916C24.6892 4.82679 24.735 4.78381 24.7764 4.74707C24.8169 4.71081 24.8533 4.67874 24.8613 4.63184C24.8703 4.57838 24.8459 4.51542 24.8193 4.44824C24.7821 4.35089 24.7404 4.23826 24.7803 4.13184C24.783 4.12458 24.7861 4.11649 24.7891 4.1084C24.8176 4.03335 24.8601 3.91242 24.9443 3.79688C24.9687 3.45675 24.9967 3.10737 25.0273 2.76465C25.0784 2.19381 25.1367 1.61782 25.1943 1.04492C25.2227 0.769275 25.3374 0.499568 25.5205 0.304688C25.704 0.106606 25.9394 0.000212524 26.1816 0ZM39.5869 28.0459C39.5869 28.0581 39.6253 28.0608 39.5713 28.0869C39.5734 28.0689 39.5751 28.0505 39.5771 28.0322C39.5806 28.0366 39.5834 28.0416 39.5869 28.0459ZM39.5039 27.4121C39.5397 27.429 39.5334 27.3689 39.6875 27.5117C39.7678 27.61 39.7368 27.7505 39.7119 27.7871C39.6868 27.8333 39.6689 27.8465 39.6572 27.8584C39.6137 27.8951 39.6319 27.8798 39.6221 27.8877C39.6042 27.9005 39.6039 27.9017 39.6006 27.9053C39.5948 27.9115 39.5948 27.9147 39.5928 27.9189C39.5905 27.9265 39.5891 27.9335 39.5879 27.9404C39.5843 27.968 39.5821 27.995 39.5791 28.0215C39.5787 28.0249 39.5775 28.0288 39.5771 28.0322C39.5158 27.9545 39.4618 27.8702 39.4307 27.7764C39.3981 27.6772 39.384 27.5733 39.3975 27.4658C39.4043 27.4511 39.3874 27.4416 39.4277 27.4189C39.4367 27.4183 39.4197 27.4117 39.5039 27.4121ZM35.0312 6.44043C35.0912 6.4378 35.1868 6.44024 35.3174 6.46582C35.3836 6.48255 35.4806 6.51066 35.5908 6.5459C35.708 6.58321 35.8426 6.62956 35.9824 6.68066C36.3658 6.7654 36.7499 6.89333 37.1182 7.06836C37.2064 7.08416 37.2888 7.08915 37.3633 7.08008C37.4169 7.0738 37.4679 7.05955 37.5215 7.0459C37.5307 7.04354 37.5405 7.04134 37.5498 7.03906C37.5969 7.01251 37.6465 6.98638 37.7012 6.97363C37.7503 6.96226 37.797 6.97386 37.8184 7.00293C37.8282 7.01645 37.8322 7.03341 37.8359 7.04883C37.8403 7.0665 37.845 7.08207 37.8574 7.08887C37.8664 7.09368 37.8802 7.09089 37.8975 7.08789C37.925 7.08299 37.9612 7.07743 38.001 7.09961C38.1476 7.18136 38.3335 7.30089 38.5205 7.44043C38.7277 7.59395 38.9298 7.7707 39.0879 7.91016C39.2679 8.06642 39.4721 8.33749 39.6348 8.61328C39.7489 8.8047 39.8472 8.99927 39.9307 9.15723C40.0125 9.31171 40.1153 9.45952 40.209 9.60352C40.322 9.77721 40.422 9.94503 40.457 10.1045C40.4638 10.1367 40.4459 10.191 40.4209 10.2529C40.4034 10.2978 40.3828 10.3496 40.3672 10.4053C40.441 10.591 40.5061 10.773 40.5664 10.96C40.5734 10.9648 40.5808 10.9699 40.5879 10.9746V10.9756C40.6656 11.0277 40.7575 11.091 40.832 11.1816C40.915 11.2855 40.9756 11.4219 40.9688 11.5947C40.9651 11.6776 40.9334 11.7379 40.9043 11.791C40.8755 11.8425 40.8498 11.8887 40.8555 11.9453C40.8623 12.0108 40.903 12.0759 40.9473 12.1504C41.0091 12.2533 41.0773 12.3702 41.0635 12.501C41.0626 12.5098 41.0615 12.5194 41.0605 12.5293C41.0512 12.6254 41.0358 12.7649 40.9775 12.9102C41.0262 13.3003 41.0602 13.6875 41.0859 14.0732C41.1284 14.716 41.1472 15.357 41.1504 15.998C41.1516 16.3113 41.0602 16.6197 40.8906 16.8525C40.7528 17.0394 40.5731 17.1633 40.3809 17.2031C40.5236 17.3745 40.6405 17.5563 40.6787 17.7354C40.7224 17.9303 40.6617 18.1024 40.5381 18.1797C40.2923 18.3371 40.0096 18.4187 39.8174 18.4629C39.7547 18.4778 39.7006 18.4904 39.665 18.501L39.7324 18.4941C39.5973 18.5344 39.4613 18.5644 39.3271 18.5791C39.1987 18.5932 39.0731 18.6002 38.9473 18.6025C38.9345 18.6028 38.9213 18.6024 38.9082 18.6025C38.8112 18.6735 38.7108 18.7396 38.6416 18.7666C38.582 18.7891 38.5359 18.761 38.4951 18.7373C38.4672 18.721 38.4406 18.707 38.4189 18.7119C38.407 18.7146 38.3909 18.7201 38.3711 18.7266C38.287 18.7537 38.1525 18.7989 38.0137 18.7539C37.956 18.7335 37.8808 18.6891 37.8125 18.6465C37.7163 18.5855 37.6209 18.5295 37.582 18.5537C37.5105 18.5971 37.4205 18.577 37.3418 18.5586C37.2644 18.5413 37.1997 18.5255 37.168 18.5703C37.1303 18.6238 37.0898 18.6075 37.0312 18.584C36.992 18.5675 36.9433 18.548 36.8779 18.5449C36.8007 18.5416 36.7477 18.5126 36.7002 18.4883C36.6345 18.454 36.5811 18.429 36.5195 18.4932C36.4509 18.5643 36.3735 18.6129 36.3057 18.6006C36.2763 18.5947 36.2439 18.6004 36.21 18.6064C36.165 18.6145 36.1167 18.6231 36.0693 18.6055C36.0298 18.591 35.9955 18.5461 35.9648 18.5068C35.9553 18.4946 35.9463 18.4828 35.9375 18.4727C35.9091 18.4764 35.8803 18.4807 35.8516 18.4854C35.8478 18.4935 35.844 18.5025 35.8398 18.5117C35.8189 18.5585 35.7928 18.616 35.7559 18.6475C35.6981 18.697 35.6429 18.6761 35.582 18.6543C35.535 18.6373 35.4853 18.6194 35.4316 18.6338C35.3958 18.6435 35.3588 18.6676 35.3203 18.6914C35.2634 18.7268 35.2057 18.7619 35.1611 18.749C35.1444 18.7441 35.1264 18.7148 35.1094 18.6865C35.1084 18.6849 35.1074 18.6833 35.1064 18.6816C35.0088 18.7157 34.9114 18.7518 34.8105 18.79C34.8025 18.7986 34.7942 18.807 34.7861 18.8154C34.7453 18.857 34.7102 18.8977 34.6885 18.9512C34.6654 19.0088 34.595 19.0484 34.5195 19.0908C34.4878 19.1087 34.4551 19.1273 34.4248 19.1475C34.4116 19.1449 34.3716 19.1565 34.3584 19.1533C34.3409 19.1635 34.3239 19.1738 34.3086 19.1855C34.2961 19.1951 34.2834 19.1925 34.2705 19.1836L34.1934 19.1064C34.1806 19.0967 34.168 19.0912 34.1553 19.0957C34.1423 19.1003 34.1287 19.1136 34.1143 19.1279C34.1014 19.1407 34.0876 19.1545 34.0732 19.1631C34.0598 19.1708 34.0288 19.1551 33.9893 19.1357C33.9653 19.1237 33.9356 19.1105 33.9062 19.0996C33.8308 19.1228 33.7555 19.145 33.6797 19.166C33.6652 19.1939 33.6531 19.2298 33.6445 19.2754C33.6384 19.3082 33.6337 19.3477 33.6289 19.3877C33.6225 19.4422 33.6149 19.4988 33.6035 19.5439C33.5946 19.5791 33.5832 19.5931 33.5742 19.5791C33.5701 19.5725 33.5657 19.5601 33.5625 19.5488C33.5589 19.5362 33.556 19.5253 33.5527 19.5254C33.5504 19.5258 33.5484 19.5347 33.5459 19.5459C33.5418 19.5641 33.5361 19.5876 33.5264 19.5889C33.4904 19.5937 33.4498 19.5884 33.4082 19.583C33.3623 19.577 33.3178 19.5715 33.2832 19.5801C33.2435 19.5894 33.1861 19.5572 33.1299 19.5254C33.0889 19.5032 33.0483 19.4811 33.0146 19.4727C32.9821 19.4645 32.9476 19.4857 32.915 19.5059C32.8757 19.53 32.8399 19.553 32.8047 19.5244C32.7977 19.5185 32.7877 19.481 32.7754 19.4346C32.7666 19.4016 32.7571 19.3637 32.7461 19.3291C32.7051 19.3308 32.663 19.3312 32.6211 19.3301C32.6198 19.3352 32.6185 19.3413 32.6172 19.3467C32.5884 19.4674 32.5482 19.6317 32.4785 19.5371C32.461 19.5131 32.4484 19.4684 32.4375 19.4277C32.4271 19.3881 32.4167 19.3523 32.4043 19.3447C32.3899 19.3367 32.3741 19.362 32.3574 19.3896C32.3341 19.4284 32.3086 19.4715 32.2783 19.4336C32.2763 19.431 32.2738 19.4277 32.2715 19.4248C32.2648 19.4164 32.2582 19.4062 32.25 19.3945C32.2495 19.3983 32.2495 19.4025 32.249 19.4062C32.2104 19.7008 32.3372 20.0336 32.5801 20.5479C32.6865 20.7725 32.8158 21.0321 32.9678 21.3418C33.0657 21.5409 33.0757 21.6662 33.084 21.7686C33.0865 21.7986 33.0892 21.8271 33.0938 21.8545C33.1093 21.9486 33.1852 22.0158 33.2754 22.0938C33.2954 22.1111 33.3169 22.1285 33.3379 22.1475C33.4367 22.2341 33.5371 22.3369 33.5928 22.5107C33.8151 23.1809 34.136 23.3193 34.3447 23.4014C34.4081 23.426 34.4648 23.4456 34.5156 23.4736C34.6791 23.5649 34.8462 23.7525 34.9775 23.9062C35.0802 24.0317 35.3782 24.1362 35.6162 24.1582C35.7058 24.1679 35.8169 24.2062 35.957 24.2451C36.0415 24.2686 36.1366 24.2923 36.2441 24.3115C36.3126 24.3233 36.3819 24.3302 36.4541 24.3311C36.888 24.3303 37.0874 24.266 37.252 24.2207C37.2978 24.2068 37.3411 24.1932 37.3828 24.1777C37.5163 24.1289 37.6788 24.0633 37.8438 23.9766C38.0412 23.8738 38.2438 23.7384 38.3994 23.6104C38.5622 23.5253 38.7308 23.4268 38.9277 23.3145C39.0636 23.1811 39.1524 23.0671 39.1816 23.0176C39.19 23.0048 39.2016 22.9956 39.2158 22.9854L39.208 23.0488C39.2673 22.8912 39.3604 22.7631 39.4844 22.6221C39.6434 22.4465 39.8381 22.2735 40.0752 22.2031C40.3102 22.1335 40.5845 22.1859 40.8066 22.4277C40.9797 22.6133 41.0944 22.9098 41.1133 23.209C41.1116 23.2194 41.1097 23.2513 41.1074 23.2617C41.1042 23.3718 41.087 23.4844 41.0586 23.5918C40.8938 24.1866 40.5736 24.5823 40.2881 24.9111C40.2545 24.9406 40.1575 25.0277 40.1182 25.0488C39.9273 25.1888 39.7061 25.3552 39.4629 25.5137C38.7534 25.9929 37.7576 26.3812 36.7627 26.3379C36.4369 26.3283 36.116 26.2828 35.8096 26.21C35.5071 26.1383 35.1771 26.0411 34.8574 25.9072C34.794 25.8808 34.7328 25.8534 34.6699 25.8242C34.1332 25.6568 33.6261 25.3715 33.3154 25.1309C33.0562 24.9319 32.9162 24.7407 32.8037 24.5791C32.7253 24.4661 32.6621 24.367 32.585 24.2783C32.5437 24.2308 32.4852 24.1654 32.4189 24.0869C32.2168 23.8493 31.9377 23.478 31.7197 23.0615C31.6481 22.9247 31.5801 22.7833 31.5205 22.6416C31.4206 22.4041 31.3263 22.1151 31.2412 21.8369C31.1187 21.4391 31.0178 21.0608 30.9209 20.8887C30.7494 20.5862 30.6272 20.1992 30.543 19.832C30.5188 19.7272 30.4975 19.624 30.4785 19.5254C30.4308 19.2749 30.4091 19.0966 30.3623 18.9785C30.285 18.7817 30.2852 18.6038 30.2939 18.3516C30.3003 18.1758 30.311 17.96 30.3105 17.6748C30.3104 17.3448 30.3436 17.1112 30.373 16.916C30.4152 16.6402 30.4498 16.4361 30.4033 16.127C30.3519 15.782 30.3315 15.4238 30.3711 15.1445C30.389 15.0181 30.3979 14.8735 30.4082 14.7207C30.4084 14.7176 30.409 14.7141 30.4092 14.7109C30.4222 14.5172 30.4356 14.3157 30.4727 14.1328C30.5037 13.9798 30.5621 13.8553 30.6133 13.7461C30.6292 13.7124 30.6445 13.6786 30.6582 13.6465C30.6673 13.5229 30.6762 13.3986 30.6846 13.2754C30.6785 13.2549 30.671 13.2341 30.6641 13.2109C30.6289 13.0961 30.5853 12.9562 30.5723 12.7861C30.5518 12.5152 30.5993 12.2811 30.6514 12.0342C30.692 11.8423 30.7354 11.6423 30.7549 11.4062C30.7684 11.2441 30.7727 11.06 30.7822 10.8701C30.7954 10.5909 30.8233 10.3004 30.8955 10.0986C30.9228 10.0213 30.971 9.9645 31.0215 9.9043L31.0225 9.90332C31.0258 9.89945 31.0289 9.89545 31.0322 9.8916C31.1125 9.6341 31.1813 9.33901 31.5137 8.99316C31.6697 8.83176 31.8283 8.66987 31.9893 8.50977C32.0134 8.47812 32.0382 8.44627 32.0625 8.41504C32.1825 8.26113 32.3027 8.11192 32.3652 7.99414C32.4333 7.86621 32.6734 7.62479 32.9561 7.37598C33.1401 7.21349 33.3471 7.0466 33.5283 6.90332C33.6353 6.81896 33.7672 6.78123 33.9092 6.74707C34.0438 6.71473 34.1856 6.6843 34.3506 6.62109C34.4321 6.59013 34.528 6.54907 34.6465 6.51172C34.7512 6.47916 34.8753 6.44833 35.0312 6.44043ZM34.8818 8.79883C34.7384 8.87144 34.5714 8.97031 34.4346 9.03906C34.0816 9.21881 33.8219 9.36957 33.6094 9.48926C33.2902 9.72081 32.9722 9.96999 32.6572 10.2285C32.7194 10.1241 32.5846 10.2956 32.5303 10.4795C32.4631 10.6711 32.4077 10.9047 32.3604 11.1416C32.2655 11.6214 32.1987 12.1371 32.1416 12.6523C32.092 13.1043 32.0502 13.5622 32.0137 14.0225C31.9922 14.2932 31.9729 14.5655 31.9531 14.8389C31.9423 14.9888 31.9324 15.137 31.9248 15.2842C31.9336 15.5266 31.9511 15.7559 31.9697 15.9668C31.9923 16.2246 32.0144 16.4562 32.0264 16.6533C32.0884 16.6429 32.1568 16.6631 32.2041 16.6768C32.2055 16.6771 32.2067 16.6774 32.208 16.6777C32.226 16.6832 32.2434 16.6846 32.2637 16.6855C32.3128 16.6878 32.3781 16.6907 32.5166 16.7588C32.5565 16.7544 32.5965 16.7517 32.6357 16.75C33.0648 16.7317 33.499 16.808 33.9355 16.9014C33.9409 16.9005 33.9466 16.8993 33.9521 16.8984C34.045 16.8835 34.1523 16.8659 34.2383 16.8838L34.168 16.8896C34.1835 16.8919 34.1983 16.8955 34.2119 16.9004C34.3274 16.9414 34.4058 16.9824 34.4697 17.0186C34.8261 17.0717 35.1726 17.1168 35.5225 17.1123C35.63 17.1111 35.742 17.1043 35.8457 17.0928C35.9468 17.0816 36.0464 17.0674 36.1426 17.0498C36.1991 17.0182 36.2505 16.9814 36.2979 16.9482C36.3631 16.9019 36.4248 16.8609 36.4766 16.8438C36.598 16.8031 36.751 16.8289 36.8574 16.8496C36.876 16.8529 36.8942 16.8568 36.9102 16.8594C36.9949 16.8343 37.0738 16.8078 37.1592 16.7812C37.1658 16.7902 37.1729 16.8 37.1797 16.8096C37.2638 16.9301 37.3567 16.9183 37.4941 16.9014C37.5577 16.8936 37.6226 16.8856 37.71 16.8857C37.7648 16.886 37.797 16.9345 37.8232 16.9736C37.8307 16.9852 37.8394 16.9954 37.8467 17.0039C37.8721 17.033 37.8915 16.9971 37.9141 16.9541C37.9432 16.8984 37.9769 16.8315 38.0391 16.8818C38.2327 17.0442 38.2994 16.914 38.3477 16.8154C38.3616 16.7865 38.3745 16.7605 38.3896 16.7451C38.4376 16.6955 38.5149 16.7317 38.5762 16.7861C38.6248 16.8293 38.7085 16.7729 38.7686 16.7061C38.79 16.6809 38.8269 16.6764 38.8652 16.6719C38.9072 16.6669 38.9536 16.6617 39.002 16.6309C39.1222 16.5529 39.1847 16.5134 39.2344 16.4824C39.2487 16.4735 39.2624 16.4654 39.2754 16.457L39.2764 16.4561C39.2411 16.3653 39.2131 16.2698 39.1953 16.1719C39.1098 15.6987 39.0148 15.2257 38.9141 14.7568C38.9059 14.7328 38.8974 14.7087 38.8896 14.6846C38.8316 14.5047 38.7402 14.3426 38.6475 14.1836C38.6262 14.1472 38.605 14.1107 38.584 14.0742C38.4253 13.7954 38.3744 13.2282 38.3359 12.9268C38.3352 12.9213 38.3347 12.9156 38.334 12.9102C38.3251 12.8382 38.3127 12.7728 38.2969 12.6953C38.2655 12.5458 38.2248 12.3412 38.1709 12.0186C38.1564 11.9425 38.1424 11.8631 38.126 11.7754C38.0744 11.6322 38.0226 11.4949 37.9688 11.3594C37.7762 10.8739 37.5575 10.4456 37.3145 10.1387C37.065 9.82124 36.8351 9.66306 36.1855 9.24707C35.863 9.01481 35.5009 8.84453 35.0439 8.72559C35.0065 8.73958 34.9429 8.76346 34.8818 8.79883Z" fill="black"/>
</svg>
