<svg width="1040" height="1577" viewBox="0 0 1040 1577" fill="none" xmlns="http://www.w3.org/2000/svg">
<path d="M192.928 63.3614C214.388 43.8106 244.973 20.9672 274.908 16.0231C284.832 14.3839 306.515 17.7191 314.372 14.4906C352.214 -1.05391 358.528 -5.98207 398.317 9.15174C424.906 19.2649 454.029 26.3292 474.606 49.5059C519.694 92.7561 559.694 132.99 583.027 191.024C600.639 234.828 603.432 283.529 635.93 319.979C639.654 324.155 641.939 331.867 646.537 335.443C648.162 336.849 654.162 335.113 656.93 337.366C657.135 343.242 652.379 344.4 653.41 348.189C655.063 353.717 656.624 359.718 658.574 365.148C662.596 376.373 661.695 386.922 662.698 398.185C664.119 414.207 660.683 429.717 660.701 445.261C660.766 482.573 679.983 520.584 709.789 544.527C719.012 553.667 731.402 560.365 741.006 568.767C756.731 582.52 770.004 598.956 783.184 614.868C795.397 629.605 801.425 657.627 813.175 669.698C828.222 685.145 856.968 696.945 875.294 709.001C887.229 717.464 900.892 725.703 911.991 735.138C932.351 752.445 943.849 776.166 956.426 798.611C961.488 807.651 981.671 834.897 989.649 840.755C1004.32 851.52 1014.2 855.849 1021.18 874.258C1025.83 885.245 1025.71 884.027 1023.88 896.241C1023.59 898.134 1029.81 902.819 1026.6 906.383C1023.12 904.481 1020.74 901.361 1018.26 901.388C1015.27 912.224 1032.66 945.14 1036.31 957.318C1038.6 964.954 1039.02 966.847 1040 975.106C1033.33 962.723 1028.32 954.136 1023.74 940.927C1021.41 962.634 1031.72 993.746 1032.46 1016.07C1032.56 1019.07 1034.22 1021.14 1034.32 1024.33L1032.89 1024.79C1023.28 1019.94 1026.3 1002.09 1023.41 992.253C1017.23 971.177 1016.28 948.251 1012.66 926.686C1010.34 912.917 1003.37 899.61 999.857 885.947C998.835 882.187 977.008 862.4 973.33 856.044C967.581 846.106 958.032 835.528 952.246 825.252C948.401 819.021 942.382 807.038 938.425 801.82C923.583 797.073 917.908 779.731 902.954 768.895C880.579 752.679 858.51 737.183 834.9 722.493C828.463 718.49 816.639 714.685 810.918 710.518L811.689 709.528C808.772 707.708 809.265 708.544 807.825 705.897L809.46 703.423C814.206 704.928 819.565 705.099 824.274 703.387L824.191 702.161C815.367 696.056 755.226 671 746.319 673.395C747.945 675.693 757.335 679.493 760.279 680.738C755.616 681.96 757.056 681.287 753.332 684.913C726.619 674.46 700.594 661.786 674.206 650.603C670.992 649.241 667.667 647.523 664.584 645.912C660.813 647.624 656.401 649.774 652.639 651.323C633.041 685.568 614.613 730.435 627.775 768.704C638.01 798.469 638.707 825.572 622.887 853.955C613.092 871.52 600.823 876.907 591.393 893.236C579.788 913.335 579.44 937.255 573.486 958.945C571.422 966.465 564.208 975.15 560.727 984.679C555.378 986.653 538.846 993.159 536.31 997.631C539.006 1003 564.642 1040.67 568.659 1042.63C572.211 1040.67 573.863 1038.73 576.992 1039.21C578.989 1042.64 576.384 1050.04 575.592 1054.56C593.664 1064.28 587.792 1065.27 579.984 1080.61C569.009 1102.15 559.975 1123.33 552.566 1146.21C542.763 1176.47 527.455 1205.33 516.723 1235.35C508.07 1259.55 500.938 1282.9 488.538 1305.69C487.059 1308.41 485.799 1311.7 484.523 1314.51C472.198 1359.39 448.387 1398.81 433.334 1442.58C430.286 1451.37 427.653 1460.24 424.727 1469.07C418.546 1485.43 416.25 1502.11 411.347 1518.72C408.302 1520.81 405.676 1522.7 402.396 1524.46C401.277 1534.19 395.578 1574.76 384.566 1577C383.48 1576.49 381.514 1575.91 381.359 1574.47C379.242 1554.63 386.447 1535.39 391.175 1516.56C398.713 1486.55 407.241 1460.87 420.577 1432.68C430.696 1411.29 438.681 1386.84 448.536 1365.22C456.752 1344.44 468.75 1324.22 476.059 1303.34C488.732 1267.12 501.693 1231.11 515.626 1195.35C519.26 1186.02 521.701 1175.64 524.927 1166.13C535.373 1134.88 547.025 1104.01 559.861 1073.57C559.596 1071.94 558.795 1067.25 558.148 1066.05C552.953 1056.36 523.646 1011.87 516.366 1006.14C513.042 1005.59 510.837 1006.04 508.122 1008.19C495.207 1018.43 488.541 1027.04 484.613 1042.1C487.831 1053.76 490.728 1059.15 499.696 1067.72C499.689 1071.57 500.119 1074.93 498.368 1078.28L496.794 1079.2C490.167 1077.01 478.955 1066.9 472.839 1062.65C460.906 1054.36 435.61 1036.54 428.091 1024.47C423.493 1045.04 419.76 1067.38 416.854 1088.23C414.036 1108.45 404.558 1138.93 407.203 1158.78C408.067 1154.71 407.782 1151.92 410.479 1149.72C413.431 1149.14 413.828 1148.88 416.55 1149.79C418.385 1152.44 417.75 1164.32 417.944 1168.84C421.002 1157.5 430.28 1117.79 440.311 1113.18C447.083 1116.31 433.507 1179.33 431.142 1187.7L430.084 1188.09C425.069 1178.75 438.133 1139.93 436.229 1130.99L435.304 1131.23C426.457 1147.75 416.972 1186.31 410.487 1205.52C404.029 1224.65 407.431 1259.1 405.355 1279.79C404.944 1289.7 403.383 1295.63 404.873 1305.57C412.214 1277.18 416.679 1245.42 422.101 1216.48C423.451 1209.28 423.603 1198.9 427.672 1192.72L428.88 1192.61C432.662 1200.59 424.114 1235.33 422.093 1246.03C417.275 1272.25 412.129 1298.41 406.655 1324.51C396.649 1370.88 386.486 1413.47 386.326 1461.1C386.319 1462.9 388.438 1470.82 388.923 1473.13C387.607 1476.26 386.737 1477.53 384.844 1480.39C394.388 1488.95 394.292 1485.74 393.684 1499.99C384.156 1491.1 375.444 1490.46 366.172 1482.13C362.449 1478.79 360.879 1471.59 357.779 1468.05C330.941 1437.38 309.348 1401.72 286.855 1368.03C254.918 1320.2 221.821 1270.86 202.006 1217.16C196.649 1201.89 172.842 1117.41 164.149 1109.95C159.862 1112.85 156.636 1117.63 153.192 1121.39C146.525 1128.7 136.064 1132.72 127.455 1138C117.766 1143.95 121.253 1154.94 119.703 1165.06C118.22 1174.74 116.609 1181.94 113.643 1191.38C110.556 1194.08 108.142 1196.36 104.623 1198.56C99.3042 1216.74 93.0125 1234.95 86.8183 1252.93C83.6389 1262.16 78.0206 1271.21 74.8756 1280.69C65.4379 1309.12 56.0402 1337.77 46.2654 1366.07C44.2582 1371.88 45.2149 1385.83 38.7848 1389.71C25.7387 1389.56 27.4978 1376.07 32.4075 1368.99C33.4664 1367.47 38.1346 1358.39 38.3482 1357.04C42.9644 1327.79 54.5086 1303.24 63.9862 1275.62L63.0546 1274.88C57.6433 1278.35 42.1108 1327.26 37.4519 1335.68C33.9363 1342.02 28.9217 1351.43 20.6794 1352.7C18.4698 1352.13 19.4005 1352.7 18.01 1350.64C18.0741 1346.6 27.8229 1329.45 30.2202 1323.38C45.8372 1283.93 57.3359 1245.46 77.7382 1207.76C82.7714 1198.46 95.8324 1169.09 98.2724 1159.96C88.6285 1129.38 65.6674 1116.51 56.0346 1087.67C49.6537 1068.58 60.8561 1048.76 63.4902 1029.7C65.4417 1012.16 62.3339 983.026 54.3061 967.025C47.1692 952.803 33.641 949.967 28.8298 931.131C21.7067 903.254 28.8065 888.338 32.9416 861.715C34.8262 849.582 16.1292 822.843 17.5976 808.487C16.3651 783.162 25.3541 760.542 25.4034 736.447C25.2 713.461 -1.33248 694.261 0.0523818 671.822C1.91558 641.62 14.9533 610.491 26.0675 582.332C36.8092 555.118 41.4895 546.203 41.6149 516.068C41.7375 486.588 25.7024 471.57 20.463 443.628C17.4602 424.149 20.4992 398.807 29.3833 381.012C34.6683 370.428 39.5807 369.065 41.5154 355.843C91.6295 304.308 74.4103 288.61 78.1664 226.813C79.3385 207.542 112.953 143.977 128.011 128.546C137.689 118.601 146.722 108.101 155.059 97.1003C157.533 93.8495 159.098 89.7747 161.437 86.4555C162.78 84.5479 165.337 85.5203 166.012 85.1266C173.918 80.5246 179.831 70.9928 183.503 63.8299L192.928 63.3614Z" fill="black"/>
<path d="M261.644 420.862C272.019 436.288 269.735 427.942 282.614 434.352C282.925 437.778 283.249 436.231 281.857 439.205C278.142 441.563 267.86 442.884 263.37 442.093C257.645 441.087 252.049 434.219 249.306 429.447C237.721 409.29 260.355 398.207 263.006 377.48C263.474 375.161 264.86 370.021 263.846 368.247C262.309 370.64 261.605 372.196 260.396 374.773C258.031 378.36 250.324 390.439 247.746 393.015C238.866 401.888 221.874 409.921 209.273 412.692C196.763 415.444 183.421 413.357 171.309 409.8C164.962 407.935 158.408 400.104 151.777 401.363C150.329 406.834 151.008 431.33 151.072 437.728C169.272 439.232 185.612 441.949 198.192 455.955C224.92 485.713 162.361 485.084 155.357 493.683C155.336 498.276 158.826 500.274 159.687 503.789C164.663 524.106 184.095 529.778 190.856 550.027C192.873 556.066 217.097 573.878 222.115 579.565C228.698 587.027 231.411 596.112 240.447 600.861C245.426 603.273 245.289 605.306 245.544 610.043C257.617 625.672 291.814 642.693 311.858 645.594C339.469 649.59 357.205 642.364 378.891 627.54C413.734 603.725 442.204 575.786 454.06 535.144C458.945 518.944 464.515 505.204 465.002 487.679C465.131 483.054 470.465 478.945 467.303 473.3C462.869 473.636 455.471 476.538 450.765 477.781C441.151 480.319 425.184 480.55 415.278 479.046C397.281 466.335 389.112 459.9 407.176 440.589C422.344 424.373 443.933 421.004 465.203 417.817C467.822 407.711 471.566 372.678 460.847 366.63C455.566 369.209 456.088 381.642 452.995 386.462C448.7 393.156 439.099 401.447 432.033 405.819C425.225 409.472 395.204 417.32 388.588 417.843C381.062 418.446 373.484 417.738 366.222 415.751C335.361 407.625 322.021 387.792 312.343 359.912C310.654 355.048 308.14 337.973 305.947 334.736C299.172 333.741 290.165 332.526 283.605 331.087C279.499 345.28 280.073 367.312 275.979 383.96C272.099 399.743 265.363 408.307 261.644 420.862Z" fill="black"/>
<path d="M334.147 1394.88C339.664 1405.7 363.233 1448.8 371.043 1455.33L372.131 1455.09C379.842 1425.06 379.49 1388.73 382.677 1357.73C385.188 1333.3 387.557 1308.69 390.462 1284.32C391.689 1274.02 394.352 1263.87 395.621 1253.56C398.269 1232.03 398.009 1208.84 396.857 1187.19L389.751 1180.65C385.256 1160.8 375.517 1143.16 367.808 1124.41C360.141 1105.76 353.552 1086.15 346.95 1067.1C340.842 1049.47 337.743 1029.36 334.106 1011.07C329.483 987.826 324.57 964.812 320.771 941.407C319.081 930.998 313.41 882.907 306.909 878.125C306.754 878.009 306.578 877.929 306.412 877.831L306.025 879.094C302.455 891.005 301.624 903.743 297.523 915.468C291.282 933.3 281.942 950.251 276.004 968.048C272.132 979.657 271.167 992.697 265.942 1003.73C262.114 1011.82 223.092 1064.39 216.361 1070.38C205.177 1080.35 191.122 1086.08 179.137 1094.82C187.791 1109.09 189.528 1126.72 195.357 1142.15C200.467 1155.68 205.161 1170.85 212.411 1183.42C214.914 1187.77 220.051 1190 222.069 1194.52C226.016 1203.33 226.727 1213.27 231.169 1222.06C237.805 1235.18 244.783 1248.66 252.611 1261.15C259.3 1271.82 266.827 1281.9 273.718 1292.42C281.308 1304.01 288.316 1315.93 296.194 1327.36C304.556 1339.48 318.337 1353.94 324.552 1366.36C326.837 1370.93 324.809 1375.29 326.23 1379.75C327.864 1384.87 331.951 1389.76 334.147 1394.88Z" fill="black"/>
<path d="M297.509 657.311C307.439 679.571 316.815 702.641 320.044 726.938C324.107 757.527 314.351 788.335 321.585 818.932C322.564 826.265 321.76 833.137 322.812 840.479C323.309 843.955 325.615 843.004 326.192 850.515C326.766 858 325.514 869.671 326.976 876.685C327.007 876.836 328.673 878.658 328.645 878.703C332.884 903.69 338.206 928.686 341.837 953.86C344.683 973.594 349.871 993.568 353.153 1013.17C358.483 1044.98 367.345 1074.64 377.015 1105.37C377.663 1107.42 379.95 1113.23 380.156 1114.75C384.678 1125.56 389.326 1150.44 394.187 1156.49C395.131 1156.14 395.483 1156.32 395.717 1155.52C398.24 1146.86 398.608 1131.68 400.073 1123.04C403.858 1100.71 412.802 1032.76 421.927 1015.02C408.629 990.19 415.906 971.577 410.913 944.936C406.779 922.882 397.348 900.063 390.9 878.498C388.79 871.44 387.466 861.146 387.883 853.724C388.542 841.999 392.214 830.906 394.474 819.305C398.316 799.589 399.606 779.428 406.049 760.236C415.448 732.237 430.365 703.671 427.113 673.285C426.381 666.431 421.219 651.417 419.559 642.324C417.704 632.161 420.263 619.817 419.274 616.677C417.262 614.604 418.193 615.237 414.875 614.633C405.276 623.871 392.431 637.598 380.738 643.528C362.962 652.543 345.358 659.838 324.907 659.946C315.705 659.931 306.529 659.049 297.509 657.311Z" fill="black"/>
<path d="M250.573 310.186C257.519 306.749 263.474 304.242 270.616 301.299C267.992 290.33 265.351 279.726 262.213 268.867C259.943 261.009 250.771 242.349 254.79 235.568C269.705 229.902 274.816 259.734 277.324 269.818C285.459 307.242 274.659 296.523 312.373 307.013C340.283 276.789 365.295 252.534 414.14 272.823C417.416 274.184 430.36 282.047 432.661 279.953C432.918 273.52 422.712 243.619 418.662 238.01C402.147 215.14 392.752 182.404 374.598 161.934C352.936 137.51 322.713 130.824 290.737 132.366C243.663 146.026 199.625 183.795 186.473 229.541C182.883 242.028 176.132 259.89 175.063 272.337C178.758 279.309 198.012 278.637 204.73 281.019C224.031 287.861 237.151 295.529 250.573 310.186Z" fill="black"/>
<path d="M388.953 406.801C395.021 406.6 396.485 404.622 401.063 403.671C410.932 401.62 430.696 397.05 436.457 388.937C459.628 356.311 457.499 300.123 411.916 286.55C397.139 282.15 404.778 277.257 383.072 279.215C372.562 280.606 362.585 281.588 353.214 286.775C344.242 291.74 335.956 297.019 329.363 304.942C320.543 315.539 318.84 331.43 320.204 344.521C320.608 347.712 324.262 349.732 325.321 353.044C326.015 355.215 326.457 363.194 327.238 364.902C331.842 374.969 345.368 392.605 354.774 398.515C365.131 405.023 377.029 409.083 388.953 406.801Z" fill="black"/>
<path d="M156.775 385.293C168.398 395.596 181.549 402.085 197.867 401.702C208.924 401.442 215.55 397.163 224.506 391.947C243.005 378.762 255.947 370.464 248.576 346.251C245.358 335.678 243.053 324.485 240.08 313.907C222.642 301.158 212.82 293.227 190.123 288.416C186.051 287.552 178.72 285.924 174.842 285.877C166.613 293.605 164.957 329.708 163.31 341.067C161.784 351.588 156.944 371.505 156.808 381.366L156.799 382.646C156.787 383.567 156.768 384.367 156.775 385.293Z" fill="black"/>
<path d="M530.724 773.075L541.674 775.611L543.567 774.912C545.637 768.238 522.886 730.019 518.017 721.525C511.499 710.151 504.406 697.911 497.078 687.013C492.949 680.872 487.961 675.262 483.927 669.076C477.854 659.763 440.88 599.082 434.576 597.151C433.681 596.877 432.966 596.855 432.058 596.774C429.938 598.992 427.817 600.579 427.424 603.404C439.209 628.193 458.387 651.654 473.151 674.943C477.359 681.581 484.438 688.678 488.139 695.423C502.145 720.942 517.519 747.205 530.724 773.075Z" fill="black"/>
<path d="M121.578 1060.75C132.223 1049.61 144.561 1040.19 156.385 1030.24L223.148 974.59C230.333 968.545 239.429 964.474 245.66 957.478C257.109 954.776 264.655 946.331 270.532 936.873C272.886 933.078 274.633 928.971 275.403 924.615L274.734 922.784L271.795 922.144C265.253 928.233 257.9 933.229 250.722 938.58C245.113 942.776 239.989 947.567 234.307 951.647C223.503 959.416 212.091 966.172 201.444 974.234C189.897 982.981 177.019 992.084 166.72 1002.12C157.298 1011.3 149.202 1021.85 139.836 1031.2C134.658 1036.36 119.365 1050.61 117.268 1056.83C118.388 1059.37 119.152 1059.43 121.578 1060.75Z" fill="black"/>
<path d="M125.062 829.154L126.121 829.012C150.186 826.034 174.503 827.892 198.617 826.79C216.361 825.99 233.562 822.665 251.132 820.994C259.172 820.23 282.566 820.95 287.398 814.612C288.223 813.527 288.104 812.825 288.259 811.536C287.338 809.749 287.293 809.323 285.19 808.683C273.283 805.011 259.483 810.754 247.652 807.963C237.04 811.465 225.596 809.358 214.596 810.087C198.156 811.172 181.752 813.998 165.303 815.341C150.522 816.549 135.187 816.31 120.541 817.972C114.539 818.647 108.831 820.843 102.873 821.741C97.8033 822.505 92.5137 822.354 87.5037 823.367C85.6962 823.741 83.8655 824.159 82.3033 825.128L82.3943 827.145C91.4112 831.848 115.21 831.812 125.062 829.154Z" fill="black"/>
<path d="M664.593 509.815C665.243 493.546 659.401 498.641 649.723 495.283C607.803 480.746 562.214 483.533 518.538 478.187C513.641 477.585 507.067 477.69 502.097 477.524C500.035 482.754 502.83 485.052 508.249 486.161C518.996 488.361 530.15 489.138 540.921 491.376C558.11 496.029 574.249 498.086 591.696 500.801C607.725 503.294 623.962 508.464 640.397 509.769C645.497 510.383 658.695 509.92 664.593 509.815Z" fill="black"/>
<path d="M545.562 976.919L546.574 975.15C541.211 962.767 531.514 953.132 525.216 941.789C517.233 927.424 508.239 916.455 498.922 903.183L456.03 841.492C452.493 836.47 448.243 831.812 444.687 826.781C440.637 821.047 437.747 811.118 433.427 805.9C429.361 801.002 416.756 784.095 411.394 782.246C409.301 784.895 408.275 785.58 408.329 788.682C413.383 799.633 424.64 810.887 430.702 821.527C438.539 835.27 445.854 849.146 455.257 862.089C465.899 875.654 475.887 888.125 485.722 902.303C494.478 914.926 506.661 927.015 515.125 940.109C519.69 946.482 526.138 954.278 530.242 960.714C536.075 969.87 532.656 971.648 545.562 976.919Z" fill="black"/>
<path d="M520.168 327.377C523.466 326.661 533.571 325.508 535.076 322.335C539.19 314.36 539.064 303.81 541.878 295.561C548.53 276.066 549.677 254.062 555.036 234.586C559.577 218.082 564.783 206.094 564.492 188.237C564.404 182.782 565.923 177.694 561.209 172.865C553.828 189.507 547.517 207.092 543.402 224.7C536.469 254.375 525.626 282.775 521.167 312.956C520.522 317.319 516.956 321.922 517.344 326.47C518.92 327.77 518.017 327.449 520.168 327.377Z" fill="black"/>
<path d="M618.607 838.817L620.613 833.866L619.925 832.47L614.94 831.181C606.82 829.074 599.024 824.052 591.42 821.99L456.46 786.086C448.275 783.864 431.997 776.29 424.553 775.596C426.463 780.673 433.099 788.762 436.885 792.815C471.003 801.873 506.4 807.705 539.31 820.159C560.653 828.23 596.82 832.728 615.1 842.835C616.296 841.501 617.51 840.212 618.607 838.817Z" fill="black"/>
<path d="M514.943 768.02C514.992 765.697 514.647 762.738 513.439 760.703C500.868 739.528 489.738 715.017 475.487 694.909C463.319 677.742 449.761 661.267 438.691 643.102C436.509 639.522 430.343 630.957 427.327 628.828C426.904 634.595 428.407 652.898 431.736 657.45C452.565 685.934 471.358 715.423 488.347 746.174C491.102 751.143 499.791 761.165 503.69 766.044C506.704 767.547 511.635 769.167 514.943 768.02Z" fill="black"/>
<path d="M596.789 856.897L601.048 855.128L601.711 853.44C599.265 848.63 591.581 846.684 586.492 845.004C575.427 841.359 563.979 838.888 552.819 835.546L446.01 803.714C444.816 805.909 443.824 806.469 445.019 808.905C452.386 823.936 463.532 821.616 476.867 825.634C500.346 832.719 523.799 840.23 546.895 848.426C560.387 853.262 571.57 852.844 583.606 861.849C588.082 860.391 592.631 859.084 596.789 856.897Z" fill="black"/>
<path d="M486.879 654.135C522.414 657.162 559.852 653.544 595.851 657.746C611.036 659.519 618.843 656.636 634.527 661.996L640.527 657.492C642.757 654.698 644.939 651.911 647.308 649.217C635.744 648.677 625.137 646.599 613.719 645.337C574.664 641.019 535.54 644.333 496.547 641.035C491.653 640.62 485.188 641.01 480.735 640.158C480.81 645.95 483.572 649.478 486.879 654.135Z" fill="black"/>
<path d="M96.6785 1056.31C104.167 1055.69 109.285 1050.27 113.927 1045.02C142.495 1012.72 169.981 985.533 204.793 958.954L255.008 920.117C259.441 916.65 265.05 914.384 269.19 910.615C272.973 907.166 284.759 894.996 284.495 890.552C284.377 888.561 284.258 886.676 282.992 885.085C264.796 901.246 244.469 915.424 225.798 931.131C219.376 936.535 213.641 942.687 207.276 948.163C192.633 960.758 96.3154 1040.97 94.4847 1051.85C94.2627 1053.17 95.9782 1055.16 96.6785 1056.31Z" fill="black"/>
<path d="M633.506 635.435C637.88 636.205 645.645 637.524 649.611 635.76L649.88 634.148C638.354 621.215 545.84 619.675 525.265 617.881C518.714 617.31 489.243 613.473 483.824 614.196L482.989 614.302C482.466 614.39 481.944 614.477 481.421 614.565C476.049 615.675 470.513 615.088 465.027 615.384C467.682 619.638 471.002 625.335 474.069 629.157C510.309 630.336 546.994 630.233 583.281 631.45C599.559 631.995 616.682 634.584 633.506 635.435Z" fill="black"/>
<path d="M622.377 821.047C624.798 818.603 624.532 819.581 624.926 816.754C619.974 808.549 604.772 804.078 595.565 801.687L524.503 782.975C503.797 777.544 483.053 772.819 463.181 764.769C455.687 761.734 423.687 757.437 419.815 755.052C417.17 757.938 417.078 757.12 416.744 760.234C420.697 764.254 473.642 778.655 483.716 781.464C513.004 789.624 541.533 800.718 571.482 806.585C586.756 809.571 602.304 812.549 617.388 816.585C619.131 817.056 621.244 819.696 622.377 821.047Z" fill="black"/>
<path d="M532.864 607.427C539.618 605.373 549.249 603.161 555.452 600.931C574.536 594.072 676.955 550.842 685.231 542.813C686.457 538.063 683.745 535.047 679.092 533.469C660.915 541.369 531.192 599.599 526.172 605.797C527.62 608.066 530.274 607.594 532.864 607.427Z" fill="black"/>
<path d="M112.659 850.773C116.667 851.893 120.3 852.062 124.445 851.911C144.158 851.182 163.556 848.035 183.185 846.577C200.668 845.279 218.18 843.777 235.675 842.684C246.989 841.972 258.291 841.937 269.578 840.764C274.512 840.257 280.683 839.884 285.106 837.599C286.318 836.977 287.111 836.115 287.989 835.128C288.146 832.443 287.655 831.892 286.371 829.59C283.685 828.088 279.856 827.803 276.707 828.452C276.519 828.488 276.338 828.55 276.153 828.603C257.625 833.083 218.331 836.106 198.746 836.941C185.75 837.501 110.255 837.91 102.621 840.986C102.012 842.328 101.418 842.666 102.03 844.097C103.458 847.448 109.398 849.368 112.659 850.773Z" fill="black"/>
<path d="M195.919 762.508C203.635 756.598 205.876 738.718 208.023 729.078C213.537 704.289 218.564 679.403 223.099 654.432C224.851 645.002 228.253 622.385 230.804 614.243C228.806 610.795 226.784 606.466 223.709 604.091C220.269 610.685 221.327 612.952 219.052 620.014C203.954 666.885 198.731 711.777 192.064 759.804C193.443 761.985 192.978 761.294 195.919 762.508Z" fill="black"/>
<path d="M581.648 609.577C591.132 608.898 601.546 603.625 610.595 600.851C644.577 590.43 675.395 572.329 709.027 561.438C706.324 558.369 701.392 552.53 697.575 550.886C687.144 555.353 571.492 604.53 569.388 606.777C571.389 610.548 577.535 609.583 581.648 609.577Z" fill="black"/>
<path d="M144.214 905.868C145.559 903.521 146.879 902.028 146.412 899.503C138.149 891.654 125.041 877.422 116.992 870.8C101.328 857.911 86.4458 845.137 71.1808 831.732C58.0075 820.167 44.6957 804.745 31.0877 793.962C29.5849 797.544 27.2628 807.491 30.3233 810.523C58.3065 838.266 93.3125 860.026 121.117 888.507C124.931 892.41 129.362 896.196 133.485 899.841C138.132 903.948 137.555 905.503 144.214 905.868Z" fill="black"/>
<path d="M505.913 679.728C529.872 686.585 566.247 678.887 597.635 685.011C602.481 680.645 605.181 677.958 611.679 675.89L614.443 674.761L615.159 673.006C610.859 668.099 509.558 665.115 494.206 664.779C497.126 671.901 500.253 674.269 505.913 679.728Z" fill="black"/>
<path d="M69.2089 953.389C78.3029 953.807 87.4545 951.523 96.4927 950.607C106.318 949.611 116.224 949.416 125.996 947.94C136.612 946.331 209.191 931.833 214.188 927.397C215.377 926.34 215.076 926.108 215.189 924.677C212.964 922.997 211.518 923.175 208.743 922.873C200.494 923.335 192.382 924.766 184.189 925.726C166.659 927.797 149.483 929.78 132.141 933.184C125.787 934.438 119.654 936.544 113.349 938.002C102.248 940.562 90.8874 942.687 79.7119 944.998C75.4793 945.869 63.8738 946.367 61.0428 948.758C62.006 950.9 63.3843 951.38 65.6386 952.296C66.7791 952.758 68.0154 953.069 69.2089 953.389Z" fill="black"/>
<path d="M512.328 369.871C521.006 371.691 556.379 360.538 566.231 358.243C588.406 353.077 611.835 351.97 632.846 343.319C634.648 342.545 634.249 340.318 634.286 338.513C632.828 335.831 632.744 335.775 630.004 334.146L627.394 334.195C606.759 341.258 510.877 354.988 501.885 361.889C501.524 367.463 507.497 368.21 512.328 369.871Z" fill="black"/>
<path d="M605.506 545.377L612.989 551.919C620.41 549.605 623.677 547.989 630.487 544.623C633.794 543.245 634.648 543.555 636.162 540.99C635.289 539.062 635.354 538.736 632.493 537.988C620.941 534.969 607.701 533.119 595.921 530.954C576.27 527.342 543.221 518.09 523.438 518.697C523.747 524.188 525.739 527.039 528.39 531.97C530.864 534.085 549.032 534.55 553.827 535.932C572.488 541.314 586.136 544.041 605.506 545.377Z" fill="black"/>
<path d="M558.507 319.339C562.905 308.255 566.045 296.444 569.872 285.344C577.736 262.529 590.426 237.809 578.065 214.308C577.206 212.675 576.464 211.244 574.882 210.141C570.281 218.745 548.771 311.407 549.182 319.322C551.975 321.237 555.233 320.029 558.507 319.339Z" fill="black"/>
<path d="M56.0328 362.185C62.4741 360.783 74.6768 344.086 79.4955 338.385L110.666 301.983C116.68 294.895 123.387 287.868 129.653 281.046C141.279 268.499 151.533 255.633 160.814 241.441C163.011 238.081 172.106 235.616 174.187 231.007C175.831 227.367 181.146 218.639 178.72 214.772C169.184 222.191 161.928 232.921 153.526 241.612C141.327 254.362 128.426 266.057 117.193 279.644C106.443 292.647 98.5751 307.79 86.2415 319.376C79.4286 325.774 74.14 332.332 68.7612 339.92C64.4162 346.05 57.048 351.154 53.5306 357.606C52.9853 358.606 55.4996 361.586 56.0328 362.185Z" fill="black"/>
<path d="M79.6376 693.736C80.8878 689.747 81.2714 688.995 84.4971 686.249C94.5942 677.649 102.021 666.915 110.659 657.168C123.328 642.869 133.544 627.461 144.734 612.234C151.734 602.708 160.801 593.606 167.581 583.693C172.732 577.248 180.069 571.199 185.284 564.287C185.196 560.893 182.983 558.909 179.702 557.639C164.314 572.865 149.706 597.256 133.088 613.134C127.045 618.908 73.7861 687.761 73.6189 691.922C75.7143 693.552 76.9505 693.428 79.6376 693.736Z" fill="black"/>
<path d="M489.85 956.99C489.312 951.078 478.973 939.913 475.274 934.811C465.389 921.157 454.572 908.028 445.06 894.17C440.653 887.752 436.841 880.969 432.44 874.551C428.962 869.476 424.979 864.711 421.576 859.591C416.216 851.519 410.432 838.497 403.047 832.088C402.255 831.403 400.751 831.35 399.712 831.137C399.206 836.612 399.344 841.893 399.647 847.377C406.197 854.622 411.333 862.373 417.033 870.205C431.73 890.401 445.013 911.299 459.489 931.575C465.478 939.967 473.822 946.074 479.426 954.758C482.777 955.585 486.397 956.803 489.85 956.99Z" fill="black"/>
<path d="M501.168 331.563C502.831 330.702 506.53 329.123 506.935 327.31C510.881 309.645 516.294 291.635 519.747 273.925C523.89 252.677 529.004 232.325 534.935 211.461C540.057 193.445 547.88 173.99 548.248 155.195C547.801 154.686 546.892 153.575 546.41 153.191C544.795 155.255 538.703 175.065 537.278 179.015C525.01 213.125 518.709 248.005 507.718 282.342C504.819 291.395 503.386 302.66 501.176 312.04C499.51 319.114 495.51 326.392 501.168 331.563Z" fill="black"/>
<path d="M50.2073 938.411C62.3886 935.94 74.7957 934.66 86.9929 932.251C100.592 929.566 113.913 925.7 127.506 923.042C160.385 916.624 196.314 912.917 229.86 912.739C233.995 910.188 241.836 906.41 243.119 901.485L242.731 900.392C241.138 899.903 240.025 899.468 238.33 899.69C230.995 901.405 223.438 901.805 215.969 902.783C202.33 904.597 188.713 906.543 175.117 908.632C159.458 911.121 143.69 914.437 128.07 917.299C120.059 918.757 112.127 920.873 103.941 920.944C102.822 920.953 101.704 920.988 100.584 920.997L95.9475 925.815C84.3717 926.331 73.4694 929.495 62.0738 931.06C57.4111 931.7 49.9769 931.309 45.7731 932.811C45.071 933.06 44.5805 933.682 43.9833 934.118C44.3288 936.402 44.7124 936.544 46.3416 938.135C47.6122 938.26 48.9329 938.491 50.2073 938.411Z" fill="black"/>
<path d="M61.8704 713.228L70.4972 715.806C79.7463 711.242 89.9558 710.737 99.3108 708.593C118.226 704.259 180.272 695.754 193.08 683.184C194.02 680.331 194.309 680.039 193.44 677.324C192.05 676.764 192.461 676.627 191.378 676.856C184.277 678.194 176.589 680.469 169.652 682.437C142.001 690.283 114.086 696.879 85.542 700.941C76.0505 702.292 65.5299 706.648 56.0458 706.738L55.0167 707.838C56.069 710.891 58.8471 711.981 61.8704 713.228Z" fill="black"/>
<path d="M487.07 354.493C506.241 347.409 614.4 330.813 622.068 325.489C623.051 322.91 622.991 324.249 621.716 321.346C619.502 319.697 618.374 318.315 615.236 319.241C612.608 319.675 605.521 320.838 603.525 321.675C581.657 330.851 493.766 335.546 478.726 346.811C477.669 351.338 482.933 354.227 487.07 354.493Z" fill="black"/>
<path d="M658.964 529.872C662.159 528.356 663.302 528.504 664.611 525.917C662.141 521.145 635.317 519.713 628.88 518.492C608.922 514.706 589.106 510.253 569.157 506.428C559.445 504.431 520.064 498.63 514.034 496.071C512.075 499.217 510.993 506.924 515.444 507.233C557.438 510.157 597.227 523.742 639.385 526.741C648.348 527.379 641.289 540.296 658.964 529.872Z" fill="black"/>
<path d="M514.897 964.332C515.22 961.15 515.703 959.425 513.422 956.785C504.019 945.878 497.007 934.144 488.331 922.819L463.756 890.419C458.861 884.089 453.316 878.223 448.787 871.636C443.475 863.92 439.685 855.244 434.997 847.173C428.848 836.586 422.001 826.248 415.234 816.016C413.472 813.349 411.093 808.611 408.644 806.585C408.065 806.105 406.424 805.678 405.662 805.367C404.088 808.238 403.035 812.096 404.094 815.296C406.331 822.07 413.582 828.221 417.684 834.186C425.994 846.248 433.363 858.924 441.845 870.88C452.362 885.698 463.877 899.841 474.444 914.579C480.219 922.642 485.419 931.166 491.424 939.051C494.651 943.291 500.148 946.145 502.975 950.563C505.427 954.385 504.517 959.434 507.519 963.221C510.04 964.012 512.252 964.243 514.897 964.332Z" fill="black"/>
<path d="M160.776 869.307C170.334 868.507 179.917 866.578 189.416 865.235C202.702 863.333 216.056 861.875 229.449 860.871C244.339 859.618 259.374 861.129 274.231 859.529C277.714 859.155 284.193 858.986 286.615 856.231C287.114 855.662 287.235 855.404 287.677 854.72C287.281 853.315 287.561 853.057 286.138 852.284C282.352 850.222 258.842 851.359 253.484 851.822C235.534 853.822 138.62 859.698 129.472 864.346L128.509 865.938C130.426 868.667 132.872 869.36 136.214 870.009C144.414 871.591 152.539 869.173 160.776 869.307Z" fill="black"/>
<path d="M91.4019 294.07C96.9711 292.514 114.342 269.859 119.317 264.39C140.506 241.095 162.843 219.573 182.084 194.65C187.502 187.629 208.228 174.839 209.737 166.047C201.793 171.402 197.437 176.907 190.338 182.532C176.218 193.72 165.594 204.596 153.427 217.675C132.765 239.884 105.144 259.064 89.6883 285.137C88.9062 286.468 90.8391 292.357 91.4019 294.07Z" fill="black"/>
<path d="M553.044 470.337C574.132 457.308 597.945 421.532 614.979 402.872C620.758 396.543 627.171 382.955 632.8 375.492C635.818 371.488 645.329 359.436 642.171 355.139C630.264 369.179 551.919 460.213 552.008 468.553L553.044 470.337Z" fill="black"/>
<path d="M451.015 232.537C461.931 221.057 536.307 191.061 526.623 170.297L523.74 168.995C519.295 174.393 518.138 175.436 511.773 177.889C498 183.197 450.812 218.48 447.286 228.586L448.07 231.41C449.74 232.297 449.205 232.19 451.015 232.537Z" fill="black"/>
<path d="M423.936 209.828C436.941 196.006 458.608 183.242 474.654 173.019C482.576 167.972 489.167 160.816 498.732 155.113C509.042 148.965 522.336 140.551 532.328 133.657C532.665 132.595 532.951 131.696 533.184 130.964C532.745 128.051 532.238 127.838 530.051 125.544C528.051 124.946 528.129 124.866 526.07 125.027C514.469 135.241 506.299 137.607 493.791 145.872C484.399 152.415 477.972 161.653 469.142 168.806C463.388 173.468 454.258 176.878 448.526 181.034C440.661 186.736 422.051 197.721 418.025 205.523C417.903 209.042 417.471 207.854 419.147 210.723C421.17 211.412 422.143 211.654 423.936 209.828Z" fill="black"/>
<path d="M296.68 496.183C304.958 494.502 322.462 506.277 330.728 509.218C331.729 509.574 331.356 511.524 331.369 512.527C330.038 514.82 329.866 514.842 327.362 516.032L322.339 518.479C315.711 516.368 306.976 511.991 300.506 508.984C294.306 510.486 292.373 511 286.062 511.091L273.039 511.041C266.912 514.559 262.582 521.08 254.983 519.769C252.303 518.157 252.014 518.136 250.898 515.457C251.728 508.817 260.911 507.506 267.493 498.299C270.491 494.061 291.22 496.882 296.68 496.183Z" fill="black" fill-opacity="0.988235"/>
<path d="M297.658 423.654C303.878 424.182 303.344 430.463 311.56 432.182C315.315 432.967 319.416 435.483 318.788 439.845C316.31 443.115 315.601 443.354 311.787 445.179C310.718 445.235 305.855 445.497 305.057 445.102C298.605 441.917 288.333 436.682 290.636 428.478C292.599 425.53 294.316 425.156 297.658 423.654Z" fill="black" fill-opacity="0.988235"/>
<path d="M284.479 535.978C291.89 535.201 300.492 537.397 303.747 544.446C303.315 547.621 304.027 546.293 301.359 548.469C297.618 549.427 296.243 548.809 292.475 547.981C288.198 548.107 278.869 554.989 274.456 546.226C273.753 538.375 278.11 537.321 284.479 535.978Z" fill="black"/>
<path d="M362.32 308.43C377.474 307.831 391.943 312.354 405.501 319.002C407.491 319.978 407.634 322.529 407.919 324.359C406.38 329.363 402.556 331.938 397.126 330.648C389.18 327.952 381.161 323.127 372.414 322.306C367.934 321.673 359.157 326.888 355.387 323.991C346.878 317.454 354.116 310.088 362.32 308.43Z" fill="black" fill-opacity="0.988235"/>
<path d="M373.188 343.039C380.249 343.533 393.81 347.338 396.196 354.326C394.401 361.457 389.174 357.477 383.154 362.595C376.064 363.033 365.425 363.33 362.077 355.7C361.341 354.042 361.395 352.16 362.228 350.544C364.152 346.786 369.297 344.422 373.188 343.039Z" fill="black" fill-opacity="0.988235"/>
<path d="M178.804 305.423C190.549 305.135 223.533 306.142 220.939 323.589C212.012 324.467 205.861 325.861 198.545 320.513L179.521 319.973C178.684 313.84 178.543 311.577 178.804 305.423Z" fill="black" fill-opacity="0.984314"/>
<path d="M192.745 341.43C200.421 342.406 212.114 349.089 208.286 358.116C205.697 359.954 206.471 359.402 202.309 359.05C198.174 358.7 197.666 361.146 193.683 364.726C192.81 364.561 191.945 364.361 191.088 364.128C185.207 362.571 178.936 360.526 175.957 355.398C174.599 346.256 185.542 343.355 192.745 341.43Z" fill="black"/>
<path d="M760.279 680.738C769.669 685.185 777.573 684.474 786.676 688.474C794.617 691.964 799.391 699.526 807.704 702.387C808.679 702.72 808.568 702.757 809.46 703.423L807.825 705.897C809.265 708.544 808.772 707.708 811.689 709.528L810.918 710.518C806.859 709.107 802.911 707.369 799.168 705.318C784.354 697.192 768.908 691.467 753.332 684.913C757.056 681.287 755.616 681.96 760.279 680.738Z" fill="black" fill-opacity="0.968627"/>
<path d="M14.9784 1424.18C15.6964 1424.63 16.3373 1425.31 16.967 1425.87C18.1383 1437.14 7.60833 1464.45 4.3222 1476.62C3.11381 1475.65 3.16675 1475.07 2.69213 1473.66C5.09125 1463.13 9.76781 1430.95 14.9784 1424.18Z" fill="black"/>
<path d="M27.8201 1387.07L28.9616 1387.95C29.8653 1392.99 22.0494 1412.89 19.4794 1418.04L18.1345 1417.44C17.5298 1415.19 17.5939 1414.13 18.3211 1411.93C20.8094 1404.4 22.2565 1392.9 27.8201 1387.07Z" fill="black" fill-opacity="0.980392"/>
</svg>
